<svg xmlns="http://www.w3.org/2000/svg" width="21" height="18" viewBox="0 0 21 18">
    <g fill="none" fill-rule="evenodd">
        <g fill="#CACCD8" fill-rule="nonzero">
            <g>
                <path d="M19.185 1.148c-.04-.163-.167-.29-.326-.326C17.4.465 16.984.439 15.704.439c-2.546 0-4.755 1.666-6.451 3.563H4.52c-.423 0-.812.222-1.024.59L.723 9.342c-.46.79.112 1.784 1.025 1.784h3.07c-.32.709-.531 1.243-.691 1.655-.063.163-.026.353.1.475l2.513 2.512c.126.126.312.163.475.1.416-.16.947-.37 1.656-.69v3.073c0 .916.994 1.488 1.785 1.024l4.75-2.772c.365-.212.591-.605.591-1.024v-4.731c1.897-1.696 3.563-3.904 3.563-6.45.004-1.28-.022-1.7-.375-3.15zM1.748 9.938L4.52 5.19h3.753c-1.206 1.58-2.175 3.277-2.899 4.75H1.748zm8.314 8.313v-3.626c1.474-.723 3.17-1.688 4.751-2.898v3.752l-4.751 2.772zm-2.825-3.663l-1.822-1.822c1.737-4.315 5.679-11.14 10.293-11.14.916 0 1.384 0 2.43.242.238 1.046.238 1.51.238 2.43 0 4.613-6.833 8.554-11.139 10.29zM14.22 3.705c-1.147 0-2.078.931-2.078 2.078 0 1.146.931 2.078 2.078 2.078 1.147 0 2.079-.932 2.079-2.078 0-1.147-.932-2.078-2.079-2.078zm0 2.968c-.49 0-.89-.4-.89-.89s.4-.89.89-.89.891.4.891.89-.4.89-.89.89z" transform="translate(-1288 -830) rotate(45 -347.984 1976.132)"/>
            </g>
        </g>
    </g>
</svg>
