<svg xmlns="http://www.w3.org/2000/svg" xmlns:xlink="http://www.w3.org/1999/xlink" width="174" height="174" viewBox="0 0 174 174">
    <defs>
        <path id="hkjnjpdjza" d="M0 0.615L23.051 0.615 23.051 23.666 0 23.666z"/>
        <path id="mdrtpeduoc" d="M0 0.949L23.051 0.949 23.051 23.999 0 23.999z"/>
        <path id="2vje8eto2e" d="M0 0.782L23.051 0.782 23.051 23.833 0 23.833z"/>
    </defs>
    <g fill="none" fill-rule="evenodd">
        <g>
            <g>
                <g transform="translate(75 30) translate(0 .386)">
                    <mask id="k8a3hsjbgb" fill="#fff">
                        <use xlink:href="#hkjnjpdjza"/>
                    </mask>
                    <path fill="#FF5E4D" d="M23.051 12.14c0 6.366-5.16 11.526-11.525 11.526C5.16 23.666 0 18.506 0 12.14 0 5.775 5.16.615 11.526.615c6.365 0 11.525 5.16 11.525 11.525" mask="url(#k8a3hsjbgb)"/>
                </g>
                <g transform="translate(75 30) translate(0 90.386)">
                    <mask id="zdjyz3o2nd" fill="#fff">
                        <use xlink:href="#mdrtpeduoc"/>
                    </mask>
                    <path fill="#FF5E4D" d="M0 12.474C0 6.11 5.16.95 11.526.95 17.89.95 23.05 6.11 23.05 12.474S17.89 24 11.526 24C5.16 24 0 18.84 0 12.474" mask="url(#zdjyz3o2nd)"/>
                </g>
                <g transform="translate(75 30) translate(0 45.386)">
                    <mask id="xkd9ph7zwf" fill="#fff">
                        <use xlink:href="#2vje8eto2e"/>
                    </mask>
                    <path fill="#001A5C" d="M11.526 23.833C5.16 23.833 0 18.673 0 12.308 0 5.942 5.16.782 11.526.782c6.365 0 11.525 5.16 11.525 11.526 0 6.365-5.16 11.525-11.525 11.525" mask="url(#xkd9ph7zwf)"/>
                </g>
            </g>
        </g>
    </g>
</svg>
