<svg xmlns="http://www.w3.org/2000/svg" xmlns:xlink="http://www.w3.org/1999/xlink" width="174" height="174" viewBox="0 0 174 174">
    <defs>
        <path id="0lphhkaq3a" d="M0.266 0.614L20.388 0.614 20.388 20.736 0.266 20.736z"/>
        <path id="ca58sbzqsc" d="M0 0.612L20.122 0.612 20.122 20.733 0 20.733z"/>
    </defs>
    <g fill="none" fill-rule="evenodd">
        <g>
            <g>
                <g transform="translate(30 30) translate(46 .386)">
                    <mask id="4kfiqqiy9b" fill="#fff">
                        <use xlink:href="#0lphhkaq3a"/>
                    </mask>
                    <path fill="#001A5C" d="M20.388 10.675c0 5.557-4.505 10.06-10.06 10.06-5.557 0-10.062-4.503-10.062-10.06C.266 5.119 4.771.614 10.327.614s10.061 4.505 10.061 10.06" mask="url(#4kfiqqiy9b)"/>
                </g>
                <path fill="#00D2B5" d="M30.574 17.864c3.93 3.929 3.93 10.299 0 14.228-3.929 3.929-10.299 3.929-14.228 0-3.929-3.93-3.929-10.3 0-14.228 3.93-3.93 10.3-3.93 14.228 0" transform="translate(30 30)"/>
                <g transform="translate(30 30) translate(0 47.386)">
                    <mask id="03dqfpclqd" fill="#fff">
                        <use xlink:href="#ca58sbzqsc"/>
                    </mask>
                    <path fill="#001A5C" d="M10.06.612c5.558 0 10.062 4.504 10.062 10.06 0 5.557-4.504 10.06-10.061 10.06C4.505 20.733 0 16.23 0 10.673 0 5.117 4.505.613 10.06.613" mask="url(#03dqfpclqd)"/>
                </g>
                <path fill="#00D2B5" d="M16.863 83.811c3.93-3.929 10.3-3.929 14.228 0 3.93 3.93 3.93 10.3 0 14.23-3.929 3.927-10.299 3.927-14.228 0-3.929-3.93-3.929-10.3 0-14.23" transform="translate(30 30)"/>
                <path fill="#001A5C" d="M46.998 104.325c0-5.556 4.504-10.061 10.06-10.061 5.557 0 10.06 4.505 10.06 10.061 0 5.557-4.503 10.061-10.06 10.061-5.556 0-10.06-4.504-10.06-10.061" transform="translate(30 30)"/>
                <path fill="#00D2B5" d="M82.811 97.522c-3.929-3.929-3.929-10.299 0-14.228 3.93-3.928 10.3-3.928 14.23 0 3.927 3.93 3.927 10.3 0 14.228-3.93 3.93-10.3 3.93-14.23 0" transform="translate(30 30)"/>
                <path fill="#001A5C" d="M103.325 67.388c-5.556 0-10.061-4.505-10.061-10.06 0-5.556 4.505-10.062 10.06-10.062 5.558 0 10.062 4.506 10.062 10.062 0 5.555-4.504 10.06-10.061 10.06" transform="translate(30 30)"/>
                <path fill="#00D2B5" d="M96.522 31.575c-3.929 3.929-10.299 3.929-14.228 0-3.928-3.93-3.928-10.3 0-14.229 3.93-3.928 10.3-3.928 14.228 0 3.93 3.93 3.93 10.3 0 14.229" transform="translate(30 30)"/>
                <path fill="#001A5C" d="M41.331 68.715L56.693 40.861 72.056 68.715z" transform="translate(30 30)"/>
            </g>
        </g>
    </g>
</svg>
