<svg xmlns="http://www.w3.org/2000/svg" width="90" height="90" viewBox="0 0 90 90">
    <g fill="none" fill-rule="evenodd">
        <g>
            <g>
                <g>
                    <g>
                        <g>
                            <g>
                                <path fill="#00D2B5" d="M29.324 39.449c-5.592 0-10.125-4.533-10.125-10.125S23.732 19.2 29.324 19.2s10.124 4.533 10.124 10.125S34.916 39.45 29.324 39.45zm29.323-4.776V23.975H49.92c-.5-1.93-1.267-3.752-2.255-5.428l6.176-6.176-7.564-7.565-6.176 6.176c-1.677-.987-3.498-1.754-5.428-2.254V0H23.975v8.728c-1.93.5-3.751 1.267-5.428 2.254L12.37 4.806l-7.564 7.565 6.176 6.176c-.988 1.676-1.755 3.498-2.255 5.428H0v10.698h8.728c.5 1.93 1.267 3.752 2.255 5.428l-6.176 6.176 7.564 7.564 6.176-6.175c1.677.987 3.498 1.754 5.428 2.254v8.728h10.698V49.92c1.93-.5 3.751-1.267 5.428-2.254l6.176 6.175 7.564-7.564-6.176-6.176c.988-1.676 1.755-3.498 2.255-5.428h8.727z" transform="translate(-1075 -1140) translate(0 921) translate(932 200) translate(143 19) translate(15.517 15.517)"/>
                                <path fill="#001A5C" d="M39.449 29.324c0 5.592-4.534 10.125-10.125 10.125-5.592 0-10.125-4.533-10.125-10.125S23.732 19.2 29.324 19.2c5.591 0 10.125 4.533 10.125 10.125" transform="translate(-1075 -1140) translate(0 921) translate(932 200) translate(143 19) translate(15.517 15.517)"/>
                            </g>
                        </g>
                    </g>
                </g>
            </g>
        </g>
    </g>
</svg>
