<?xml version="1.0" encoding="UTF-8"?>
<svg width="210px" height="66px" viewBox="0 0 210 66" version="1.1" xmlns="http://www.w3.org/2000/svg" xmlns:xlink="http://www.w3.org/1999/xlink">
    <!-- Generator: Sketch 60 (88103) - https://sketch.com -->
    <title>illustration/alpha/services-managés mobile@1,5x</title>
    <desc>Created with Sketch.</desc>
    <defs>
        <polygon id="path-1" points="0 27.6923077 24.4078947 27.6923077 24.4078947 0 0 0"></polygon>
        <polygon id="path-3" points="0 27.6923077 24.4078947 27.6923077 24.4078947 0 0 0"></polygon>
        <polygon id="path-5" points="0 0.149630769 20.983105 0.149630769 20.983105 7.38447692 0 7.38447692"></polygon>
        <polygon id="path-7" points="0 0.146957183 20.9830568 0.146957183 20.9830568 19.7618914 0 19.7618914"></polygon>
        <polygon id="path-9" points="0 0.144912587 14.974822 0.144912587 14.974822 20.5738112 0 20.5738112"></polygon>
        <polygon id="path-11" points="0.074475 0.292523077 0.2095 0.292523077 0.2095 0.7796 0.074475 0.7796"></polygon>
        <polygon id="path-13" points="2.30263158e-05 0.228168 10.0942763 0.228168 10.0942763 5.868408 2.30263158e-05 5.868408"></polygon>
        <polygon id="path-15" points="0 0.069163227 4.04840828 0.069163227 4.04840828 9.09460413 0 9.09460413"></polygon>
        <polygon id="path-17" points="0.141099009 0.141738462 18.8305288 0.141738462 18.8305288 13.2247385 0.141099009 13.2247385"></polygon>
        <polygon id="path-19" points="0 0.0493733583 4.04840828 0.0493733583 4.04840828 9.07481426 0 9.07481426"></polygon>
        <polygon id="path-21" points="0.141099009 0.069648583 18.8305288 0.069648583 18.8305288 12.9230769 0.141099009 12.9230769"></polygon>
        <polygon id="path-23" points="0 26.7692308 23.4868421 26.7692308 23.4868421 0 0 0"></polygon>
    </defs>
    <g id="Mobile" stroke="none" stroke-width="1" fill="none" fill-rule="evenodd">
        <g id="2.0.0.4---Services-managés" transform="translate(-83.000000, -149.000000)">
            <g id="illustration/alpha/services-managés-mobile" transform="translate(83.000000, 149.000000)">
                <g id="Group-7">
                    <path d="M25.1923435,12.3554446 C23.9764577,11.0422038 22.3840085,10.0945396 20.5888314,9.69230769 L20.5888314,18.2000257 L9.29939214,18.2000257 C8.63559073,18.2000257 7.99105088,18.1218275 7.36842105,17.9830257 L7.36842105,18.7178443 L7.36842105,27.6923077 L18.6581011,27.6923077 C23.6138589,27.6923077 27.6315789,23.6147612 27.6315789,18.584663 C27.6315789,16.172249 26.701005,13.9848992 25.1923435,12.3554446" id="Fill-1" fill="#FFFFFF"></path>
                    <path d="M18.3324276,9.49329966 C18.9959882,9.49329966 19.6412504,9.56930471 20.2631579,9.70860657 L20.2631579,9.24157875 L20.2631579,0 L8.97347784,0 C6.39435536,0 4.07622699,1.11050466 2.43923542,2.87890514 C0.930814739,4.50849253 0,6.69577614 0,9.10863101 C0,13.4656022 3.01563751,17.1028471 7.04274752,18 L7.04274752,9.49329966 L18.3324276,9.49329966 Z" id="Fill-3" fill="#00D2B5"></path>
                    <path d="M20.2631579,18 L20.2631579,9.44744509 C19.6349067,9.30717081 18.9830626,9.23076923 18.3127335,9.23076923 L6.90789474,9.23076923 L6.90789474,17.7818502 C7.53687561,17.9216331 8.18798999,18 8.8585624,18 L20.2631579,18 Z" id="Fill-5" fill="#001A5C"></path>
                </g>
                <g id="Group-9" transform="translate(31.315789, 0.000000)">
                    <path d="M20.2631579,13.6155075 C20.2631579,16.2919086 18.0980957,18.4615385 15.4276316,18.4615385 C12.7571675,18.4615385 10.5921053,16.2919086 10.5921053,13.6155075 C10.5921053,10.9391064 12.7571675,8.76923077 15.4276316,8.76923077 C18.0980957,8.76923077 20.2631579,10.9391064 20.2631579,13.6155075" id="Fill-1" fill="#FFFFFF"></path>
                    <mask id="mask-2" fill="white">
                        <use xlink:href="#path-1"></use>
                    </mask>
                    <g id="Clip-4"></g>
                    <polygon id="Fill-3" fill="#FFFFFF" mask="url(#mask-2)" points="0 18.4615385 10.5921053 18.4615385 10.5921053 8.76923077 0 8.76923077"></polygon>
                    <polygon id="Fill-5" fill="#00D2B5" mask="url(#mask-2)" points="11.0526316 8.76923077 24.4078947 8.76923077 24.4078947 0 11.0526316 0"></polygon>
                    <polygon id="Fill-6" fill="#00D2B5" mask="url(#mask-2)" points="11.0526316 27.6923077 24.4078947 27.6923077 24.4078947 18.9230769 11.0526316 18.9230769"></polygon>
                    <polygon id="Fill-7" fill="#001A5C" mask="url(#mask-2)" points="0 8.76923077 10.5921053 8.76923077 10.5921053 0 0 0"></polygon>
                    <polygon id="Fill-8" fill="#001A5C" mask="url(#mask-2)" points="0 27.6923077 10.5921053 27.6923077 10.5921053 18.9230769 0 18.9230769"></polygon>
                </g>
                <g id="Group-9-Copy" transform="translate(155.197368, 0.000000)">
                    <path d="M20.2631579,13.6155075 C20.2631579,16.2919086 18.0980957,18.4615385 15.4276316,18.4615385 C12.7571675,18.4615385 10.5921053,16.2919086 10.5921053,13.6155075 C10.5921053,10.9391064 12.7571675,8.76923077 15.4276316,8.76923077 C18.0980957,8.76923077 20.2631579,10.9391064 20.2631579,13.6155075" id="Fill-1" fill="#FFFFFF"></path>
                    <mask id="mask-4" fill="white">
                        <use xlink:href="#path-3"></use>
                    </mask>
                    <g id="Clip-4"></g>
                    <polygon id="Fill-3" fill="#FFFFFF" mask="url(#mask-4)" points="0 18.4615385 10.5921053 18.4615385 10.5921053 8.76923077 0 8.76923077"></polygon>
                    <polygon id="Fill-5" fill="#00D2B5" mask="url(#mask-4)" points="11.0526316 8.76923077 24.4078947 8.76923077 24.4078947 0 11.0526316 0"></polygon>
                    <polygon id="Fill-6" fill="#00D2B5" mask="url(#mask-4)" points="11.0526316 27.6923077 24.4078947 27.6923077 24.4078947 18.9230769 11.0526316 18.9230769"></polygon>
                    <polygon id="Fill-7" fill="#001A5C" mask="url(#mask-4)" points="0 8.76923077 10.5921053 8.76923077 10.5921053 0 0 0"></polygon>
                    <polygon id="Fill-8" fill="#001A5C" mask="url(#mask-4)" points="0 27.6923077 10.5921053 27.6923077 10.5921053 18.9230769 0 18.9230769"></polygon>
                </g>
                <g id="Group-10" transform="translate(59.407895, 0.000000)">
                    <g id="Group-3" transform="translate(0.000000, 19.384615)">
                        <mask id="mask-6" fill="white">
                            <use xlink:href="#path-5"></use>
                        </mask>
                        <g id="Clip-2"></g>
                        <path d="M10.5645658,1.19363077 L-9.6291866e-05,1.19363077 L-9.6291866e-05,7.38447692 L20.983105,7.38447692 L15.1810386,0.149630769 C13.7881767,0.811938462 12.2246376,1.19363077 10.5645658,1.19363077" id="Fill-1" fill="#00D2B5" mask="url(#mask-6)"></path>
                    </g>
                    <g id="Group-6">
                        <mask id="mask-8" fill="white">
                            <use xlink:href="#path-7"></use>
                        </mask>
                        <g id="Clip-5"></g>
                        <path d="M20.9830568,10.4954113 C20.9830568,4.78019722 16.3184381,0.146957183 10.5645176,0.146957183 L-0.000144437799,0.146957183 L15.1809904,19.7618914 C18.6162028,18.0701861 20.9830568,14.5617209 20.9830568,10.4954113" id="Fill-4" fill="#FFFFFF" mask="url(#mask-8)"></path>
                    </g>
                    <g id="Group-9">
                        <mask id="mask-10" fill="white">
                            <use xlink:href="#path-9"></use>
                        </mask>
                        <g id="Clip-8"></g>
                        <path d="M14.974822,19.5060839 L-4.74917763e-05,0.144912587 L-4.74917763e-05,20.5738112 L10.421073,20.5738112 C12.0585894,20.5738112 13.6008849,20.1834441 14.974822,19.5060839" id="Fill-7" fill="#001A5C" mask="url(#mask-10)"></path>
                    </g>
                </g>
                <g id="Group-4" transform="translate(84.276316, 0.461538)">
                    <polygon id="Fill-1" fill="#00D2B5" points="21.6125363 2.76923077 13.3551457 17.6083408 5.09775511 2.76923077 0 2.76923077 13.3551457 26.7692308 26.7105263 2.76923077"></polygon>
                    <polygon id="Fill-2" fill="#FFFFFF" points="3.68421053 0 5.10410751 2.76923077 21.606184 2.76923077 23.0263158 0"></polygon>
                    <polyline id="Fill-3" fill="#001A5C" points="5.06578947 2.76923077 13.3552632 17.5384615 21.6447368 2.76923077"></polyline>
                </g>
                <g id="Group-11" transform="translate(114.671053, 0.000000)">
                    <path d="M5.06578947,10.8471883 C2.26815356,10.8471883 0,8.47039589 0,5.53846154 L0,27.6923077 L10.1315789,27.6923077 L10.1315789,5.53846154 C10.1315789,8.47039589 7.86342539,10.8471883 5.06578947,10.8471883" id="Fill-1" fill="#00D2B5"></path>
                    <g id="Group-5" transform="translate(10.131579, 4.615385)">
                        <mask id="mask-12" fill="white">
                            <use xlink:href="#path-11"></use>
                        </mask>
                        <g id="Clip-4"></g>
                        <path d="M0.189475,0.292523077 C0.198725,0.454061538 0.209475,0.614984615 0.209475,0.7796 L0.209475,0.292523077 L0.189475,0.292523077 Z" id="Fill-3" fill="#00D2B5" mask="url(#mask-12)"></path>
                    </g>
                    <path d="M5.06578947,0 C2.38177235,0 0.188816,2.2401274 0,5.07692308 L10.1315789,5.07692308 C9.94276295,2.2401274 7.7498066,0 5.06578947,0" id="Fill-6" fill="#FFFFFF"></path>
                    <g id="Group-10" transform="translate(0.000000, 4.615385)">
                        <mask id="mask-14" fill="white">
                            <use xlink:href="#path-13"></use>
                        </mask>
                        <g id="Clip-9"></g>
                        <path d="M0.0184440789,0.228168 C0.00969407895,0.354168 2.30263158e-05,0.479688 2.30263158e-05,0.608088 C2.30263158e-05,3.513288 2.25959539,5.868408 5.04716118,5.868408 C7.83449671,5.868408 10.0942993,3.513288 10.0942993,0.608088 C10.0942993,0.479688 10.084398,0.354168 10.0758783,0.228168 L0.0184440789,0.228168 Z" id="Fill-8" fill="#001A5C" mask="url(#mask-14)"></path>
                    </g>
                </g>
                <g id="Group-15" transform="translate(128.947368, 0.461538)">
                    <g id="Group-3" transform="translate(0.000000, 13.384615)">
                        <mask id="mask-16" fill="white">
                            <use xlink:href="#path-15"></use>
                        </mask>
                        <g id="Clip-2"></g>
                        <path d="M-2.4380805e-05,0.069163227 C-2.4380805e-05,3.33572983 1.34945317,6.60252158 4.04840828,9.09460413 C1.34945317,6.60229644 -2.4380805e-05,3.33572983 -2.4380805e-05,0.069163227" id="Fill-1" fill="#00D2B5" mask="url(#mask-16)"></path>
                    </g>
                    <g id="Group-6" transform="translate(3.684211, 0.000000)">
                        <mask id="mask-18" fill="white">
                            <use xlink:href="#path-17"></use>
                        </mask>
                        <g id="Clip-5"></g>
                        <path d="M9.48584885,13.2247385 L18.8305987,3.97366154 C13.6694007,-1.13556923 5.30206392,-1.13556923 0.141099009,3.97366154 L9.48584885,13.2247385 Z" id="Fill-4" fill="#00D2B5" mask="url(#mask-18)"></path>
                    </g>
                    <g id="Group-9" transform="translate(0.000000, 4.153846)">
                        <mask id="mask-20" fill="white">
                            <use xlink:href="#path-19"></use>
                        </mask>
                        <g id="Clip-8"></g>
                        <path d="M4.04840828,0.0493733583 L4.04840828,0.0493733583 C1.34945317,2.54168105 -2.4380805e-05,5.80824765 -2.4380805e-05,9.07481426 C-2.4380805e-05,5.80824765 1.34945317,2.54168105 4.04840828,0.0493733583 Z" id="Fill-7" fill="#00D2B5" mask="url(#mask-20)"></path>
                    </g>
                    <g id="Group-12" transform="translate(3.684211, 13.384615)">
                        <mask id="mask-22" fill="white">
                            <use xlink:href="#path-21"></use>
                        </mask>
                        <g id="Clip-11"></g>
                        <path d="M9.48584885,0.069648583 L0.141099009,9.15842591 C5.30206392,14.1780211 13.6694007,14.1780211 18.8305987,9.15842591 L9.48584885,0.069648583 Z" id="Fill-10" fill="#FFFFFF" mask="url(#mask-22)"></path>
                    </g>
                    <path d="M13.3552632,13.3846154 L13.3552632,13.3846154 L3.91166713,4.15384615 L3.91166713,4.15407642 C1.30388904,6.70285372 0,10.0437346 0,13.3846154 C0,16.7254962 1.30388904,20.066377 3.91166713,22.6153846 L13.3552632,13.3846154 Z" id="Fill-13" fill="#001A5C"></path>
                </g>
                <g id="Group-7" transform="translate(183.289474, 0.461538)">
                    <path d="M24.3267281,11.757335 C23.1384761,10.5114399 21.5822189,9.61237386 19.8278412,9.23076923 L19.8278412,17.302194 L8.79498011,17.302194 C8.1462651,17.302194 7.51637389,17.228006 6.90789474,17.0963222 L6.90789474,17.7934578 L6.90789474,26.3076923 L17.9409912,26.3076923 C22.7841181,26.3076923 26.7105263,22.4392507 26.7105263,17.6671063 C26.7105263,15.3784059 25.8011018,13.3032279 24.3267281,11.757335" id="Fill-1" fill="#FFFFFF"></path>
                    <path d="M17.9157815,9.00646378 C18.5642612,9.00646378 19.1948583,9.07857114 19.8026316,9.21072931 L19.8026316,8.76765164 L19.8026316,0 L8.76953516,0 C6.2490291,0 3.98358546,1.05355571 2.38379825,2.73126898 C0.909659858,4.27728778 0,6.352403 0,8.64152173 C0,12.7750585 2.94710029,16.2257781 6.88268508,17.0769231 L6.88268508,9.00646378 L17.9157815,9.00646378 Z" id="Fill-3" fill="#00D2B5"></path>
                    <path d="M19.8026316,17.5384615 L19.8026316,9.4360411 C19.1960442,9.30314967 18.5666775,9.23076923 17.9194632,9.23076923 L6.90789474,9.23076923 L6.90789474,17.3317933 C7.51518661,17.4642192 8.14384877,17.5384615 8.79129799,17.5384615 L19.8026316,17.5384615 Z" id="Fill-5" fill="#001A5C"></path>
                </g>
                <g id="Group-7-Copy" transform="translate(183.289474, 38.769231)">
                    <path d="M24.3267281,11.757335 C23.1384761,10.5114399 21.5822189,9.61237386 19.8278412,9.23076923 L19.8278412,17.302194 L8.79498011,17.302194 C8.1462651,17.302194 7.51637389,17.228006 6.90789474,17.0963222 L6.90789474,17.7934578 L6.90789474,26.3076923 L17.9409912,26.3076923 C22.7841181,26.3076923 26.7105263,22.4392507 26.7105263,17.6671063 C26.7105263,15.3784059 25.8011018,13.3032279 24.3267281,11.757335" id="Fill-1" fill="#FFFFFF"></path>
                    <path d="M17.9157815,9.00646378 C18.5642612,9.00646378 19.1948583,9.07857114 19.8026316,9.21072931 L19.8026316,8.76765164 L19.8026316,0 L8.76953516,0 C6.2490291,0 3.98358546,1.05355571 2.38379825,2.73126898 C0.909659858,4.27728778 0,6.352403 0,8.64152173 C0,12.7750585 2.94710029,16.2257781 6.88268508,17.0769231 L6.88268508,9.00646378 L17.9157815,9.00646378 Z" id="Fill-3" fill="#00D2B5"></path>
                    <path d="M19.8026316,17.5384615 L19.8026316,9.4360411 C19.1960442,9.30314967 18.5666775,9.23076923 17.9194632,9.23076923 L6.90789474,9.23076923 L6.90789474,17.3317933 C7.51518661,17.4642192 8.14384877,17.5384615 8.79129799,17.5384615 L19.8026316,17.5384615 Z" id="Fill-5" fill="#001A5C"></path>
                </g>
                <g id="Group-4" transform="translate(0.921053, 38.307692)">
                    <polygon id="Fill-1" fill="#FFFFFF" points="0 0 0 27.6923077 13.8157895 13.846276"></polygon>
                    <polygon id="Fill-2" fill="#00D2B5" points="13.8157895 13.846276 27.6315789 27.6923077 27.6315789 0"></polygon>
                    <polygon id="Fill-3" fill="#001A5C" points="0 27.6923077 27.6315789 27.6923077 27.6315789 27.6920635 13.8157895 13.8461538"></polygon>
                </g>
                <g id="Group-4" transform="translate(32.236842, 38.307692)">
                    <polygon id="Fill-1" fill="#00D2B5" points="13.8156679 0 0 24.9230769 5.27353977 24.9230769 13.8156679 9.51338222 22.3577961 24.9230769 27.6315789 24.9230769"></polygon>
                    <polygon id="Fill-2" fill="#FFFFFF" points="21.4752599 24.9230769 5.69579274 24.9230769 5.13791458 24.9230769 3.68421053 27.6923077 7.86793618 27.6923077 19.3031165 27.6923077 23.4868421 27.6923077 22.0328977 24.9230769"></polygon>
                    <polygon id="Fill-3" fill="#001A5C" points="5.06578947 24.9230769 5.62843876 24.9230769 21.5426139 24.9230769 22.1052632 24.9230769 13.5855263 9.69230769"></polygon>
                </g>
                <g id="Group-9" transform="translate(156.118421, 38.769231)">
                    <path d="M19.8026316,13.3847324 C19.8026316,15.9336859 17.7406676,18 15.1973684,18 C12.6540693,18 10.5921053,15.9336859 10.5921053,13.3847324 C10.5921053,10.835779 12.6540693,8.76923077 15.1973684,8.76923077 C17.7406676,8.76923077 19.8026316,10.835779 19.8026316,13.3847324" id="Fill-1" fill="#FFFFFF"></path>
                    <mask id="mask-24" fill="white">
                        <use xlink:href="#path-23"></use>
                    </mask>
                    <g id="Clip-4"></g>
                    <polygon id="Fill-3" fill="#FFFFFF" mask="url(#mask-24)" points="0 18 10.5921053 18 10.5921053 8.76923077 0 8.76923077"></polygon>
                    <polygon id="Fill-5" fill="#00D2B5" mask="url(#mask-24)" points="10.5921053 8.76923077 23.4868421 8.76923077 23.4868421 0 10.5921053 0"></polygon>
                    <polygon id="Fill-6" fill="#00D2B5" mask="url(#mask-24)" points="10.5921053 26.7692308 23.4868421 26.7692308 23.4868421 18 10.5921053 18"></polygon>
                    <polygon id="Fill-7" fill="#001A5C" mask="url(#mask-24)" points="0 8.76923077 10.5921053 8.76923077 10.5921053 0 0 0"></polygon>
                    <polygon id="Fill-8" fill="#001A5C" mask="url(#mask-24)" points="0 26.7692308 10.5921053 26.7692308 10.5921053 18 0 18"></polygon>
                </g>
                <g id="Group-4-Copy" transform="translate(94.407895, 38.307692)">
                    <polygon id="Fill-1" fill="#00D2B5" points="13.8156679 0 0 24.9230769 5.27353977 24.9230769 13.8156679 9.51338222 22.3577961 24.9230769 27.6315789 24.9230769"></polygon>
                    <polygon id="Fill-2" fill="#FFFFFF" points="21.4752599 24.9230769 5.69579274 24.9230769 5.13791458 24.9230769 3.68421053 27.6923077 7.86793618 27.6923077 19.3031165 27.6923077 23.4868421 27.6923077 22.0328977 24.9230769"></polygon>
                    <polygon id="Fill-3" fill="#001A5C" points="5.06578947 24.9230769 5.62843876 24.9230769 21.5426139 24.9230769 22.1052632 24.9230769 13.5855263 9.69230769"></polygon>
                </g>
                <g id="Group-4" transform="translate(63.552632, 38.307692)">
                    <polygon id="Fill-1" fill="#00D2B5" points="0 0 0 27.2307692 13.8157895 27.2307692 13.8157895 13.6155047"></polygon>
                    <polygon id="Fill-2" fill="#FFFFFF" points="13.3552632 0 13.3552632 13.6155047 27.1710526 27.2307692 27.1710526 0"></polygon>
                    <polygon id="Fill-3" fill="#FFFFFF" points="13.3552632 27.2307692 27.1710526 27.2307692 13.3552632 13.3846154"></polygon>
                </g>
                <g id="Group-11" transform="translate(125.723684, 38.769231)">
                    <path d="M4.14473684,22.6153846 C6.50182099,24.8967255 9.75840651,26.3076923 13.3552632,26.3076923 C9.75840651,26.3076923 6.50205075,24.8967255 4.14473684,22.6153846" id="Fill-1" fill="#00D2B5"></path>
                    <path d="M13.3552632,13.3846154 L13.3552632,0 C5.97914934,0 0,5.99242072 0,13.3846154 L13.3552632,13.3846154 Z" id="Fill-3" fill="#00D2B5"></path>
                    <path d="M0,13.3846154 L0,13.3846154 C0,16.9893772 1.40787255,20.2528898 3.68421053,22.6153846 C1.40787255,20.2528898 0,16.9893772 0,13.3846154" id="Fill-5" fill="#00D2B5"></path>
                    <path d="M13.3552632,13.3846154 L13.3552632,26.7692308 C20.731377,26.7692308 26.7105263,20.7769404 26.7105263,13.3846154 L13.3552632,13.3846154 Z" id="Fill-7" fill="#FFFFFF"></path>
                    <path d="M13.3552632,13.3846154 L13.3552632,13.3846154 L0,13.3846154 C0,17.0806599 1.49472844,20.4268137 3.91150056,22.8491335 C6.32850825,25.2712172 9.66732404,26.7692308 13.3552632,26.7692308 L13.3552632,13.3846154 Z" id="Fill-9" fill="#001A5C"></path>
                </g>
            </g>
        </g>
    </g>
</svg>