<svg xmlns="http://www.w3.org/2000/svg" width="245" height="204" viewBox="0 0 245 204">
    <g fill="none" fill-rule="evenodd">
        <g>
            <g>
                <g>
                    <g>
                        <g>
                            <path fill="#00D2B5" d="M64.246 75.987L28.706 55.107 64.246 34.228 99.787 55.107zM100.471 137.597L64.93 116.553 100.597 95.154 136.011 116.553z" transform="translate(101 -560) translate(-101 58) translate(0 502) translate(0 43.812)"/>
                            <path fill="#001A5C" d="M64.93 76.254L64.93 117.06 28.706 95.906 28.706 55.45z" transform="translate(101 -560) translate(-101 58) translate(0 502) translate(0 43.812)"/>
                            <path fill="#FFF" d="M64.93 76.254L64.93 117.06 101.154 95.906 101.154 55.45z" transform="translate(101 -560) translate(-101 58) translate(0 502) translate(0 43.812)"/>
                            <path fill="#00D2B5" d="M0 112.542L0 120.483 29.121 137.597 64.93 116.553 28.994 95.154z" transform="translate(101 -560) translate(-101 58) translate(0 502) translate(0 43.812)"/>
                            <path fill="#001A5C" d="M0 122.564L0 160.188 28.638 160.188 28.706 138 .268 121.168zM136.011 76.254L136.011 117.06 99.787 95.906 99.787 55.45z" transform="translate(101 -560) translate(-101 58) translate(0 502) translate(0 43.812)"/>
                            <path fill="#FFF" d="M65.614 158.819L30.073 137.94 65.614 117.06 101.154 137.94zM28.706 160.188L64.93 160.188 64.93 158.846 28.776 137.597z" transform="translate(101 -560) translate(-101 58) translate(0 502) translate(0 43.812)"/>
                            <path fill="#001A5C" d="M64.93 158.803L64.93 160.188 101.154 160.188 101.154 137.597z" transform="translate(101 -560) translate(-101 58) translate(0 502) translate(0 43.812)"/>
                            <path fill="#818181" d="M208.117 139.31l.001-.002v.001z" transform="translate(101 -560) translate(-101 58) translate(0 502) translate(0 43.812)"/>
                            <path fill="#00D2B5" d="M171.552 96.523L136.011 75.644 171.552 54.765 207.092 75.644zM207.776 158.819L172.235 137.774 207.902 116.376 243.317 137.774z" transform="translate(101 -560) translate(-101 58) translate(0 502) translate(0 43.812)"/>
                            <path fill="#001A5C" d="M172.235 96.791L172.235 137.597 136.011 116.443 136.011 75.987z" transform="translate(101 -560) translate(-101 58) translate(0 502) translate(0 43.812)"/>
                            <path fill="#FFF" d="M172.235 96.791L172.235 137.597 208.459 116.443 208.459 75.987zM136.695 158.819L101.154 137.94 136.695 117.06 172.235 137.94z" transform="translate(101 -560) translate(-101 58) translate(0 502) translate(0 43.812)"/>
                            <path fill="#001A5C" d="M136.011 158.586L136.011 160.188 172.235 160.188 172.235 137.597zM243.317 96.791L243.317 137.597 207.092 116.443 207.092 75.987z" transform="translate(101 -560) translate(-101 58) translate(0 502) translate(0 43.812)"/>
                            <path fill="#FFF" d="M4.784 0L28.706 13.691 52.627 0z" transform="translate(101 -560) translate(-101 58) translate(0 502) translate(0 43.812)"/>
                            <path fill="#FFF" d="M0 0L0 37.762 28.706 54.765 28.706 13.856 4.92 0z" transform="translate(101 -560) translate(-101 58) translate(0 502) translate(0 43.812)"/>
                        </g>
                    </g>
                </g>
            </g>
        </g>
    </g>
</svg>
