<svg xmlns="http://www.w3.org/2000/svg" xmlns:xlink="http://www.w3.org/1999/xlink" width="200" height="167" viewBox="0 0 200 167">
    <defs>
        <path id="q3y8hfrx5a" d="M0 152.43L244.258 152.43 244.258 0 0 0z"/>
    </defs>
    <g fill="none" fill-rule="evenodd">
        <g>
            <g>
                <g>
                    <g>
                        <path fill="#001A5C" d="M27.451 152.43L83.473 152.43 83.473 26.899 27.451 26.899z" transform="translate(-572 -597) translate(-74 58) matrix(-1 0 0 1 891 539) translate(0 14.57)"/>
                        <g transform="translate(-572 -597) translate(-74 58) matrix(-1 0 0 1 891 539) translate(0 14.57)">
                            <path fill="#FF5E4D" d="M83.482 27.132c0 6.955-12.544 12.594-28.018 12.594s-28.018-5.639-28.018-12.594c0-6.956 12.544-12.595 28.018-12.595s28.018 5.639 28.018 12.595"/>
                            <mask id="mpsuksfy7b" fill="#fff">
                                <use xlink:href="#q3y8hfrx5a"/>
                            </mask>
                            <path fill="#00D2B5" d="M43.743 244.07L143.575 244.07 143.575 70.737 43.743 70.737z" mask="url(#mpsuksfy7b)"/>
                            <path fill="#FFF" d="M143.575 70.738c0 12.392-22.348 22.438-49.916 22.438-27.568 0-49.916-10.046-49.916-22.438 0-12.393 22.348-22.438 49.916-22.438 27.568 0 49.916 10.045 49.916 22.438" mask="url(#mpsuksfy7b)"/>
                            <path fill="#FF5E4D" d="M8.646 283.175L74.593 283.175 74.593 121.649 8.646 121.649z" mask="url(#mpsuksfy7b)"/>
                            <path fill="#001A5C" d="M113.455 321.736L167.252 321.736 167.252 74.384 113.455 74.384zM74.593 121.649c0 8.186-14.763 14.822-32.974 14.822-18.21 0-32.973-6.636-32.973-14.822s14.763-14.822 32.973-14.822c18.211 0 32.974 6.636 32.974 14.822" mask="url(#mpsuksfy7b)"/>
                            <path fill="#FF5E4D" d="M167.252 74.384c0 6.677-12.043 12.09-26.899 12.09-14.855 0-26.898-5.413-26.898-12.09 0-6.678 12.043-12.092 26.898-12.092 14.856 0 26.9 5.414 26.9 12.092" mask="url(#mpsuksfy7b)"/>
                            <path fill="#FFF" d="M59.25 277.823L95.723 277.823 95.723 110.124 59.25 110.124z" mask="url(#mpsuksfy7b)"/>
                            <path fill="#FF5E4D" d="M95.723 110.124c0 4.528-8.165 8.198-18.237 8.198s-18.237-3.67-18.237-8.198c0-4.527 8.165-8.197 18.237-8.197s18.237 3.67 18.237 8.197" mask="url(#mpsuksfy7b)"/>
                        </g>
                    </g>
                </g>
            </g>
        </g>
    </g>
</svg>
