<svg xmlns="http://www.w3.org/2000/svg" xmlns:xlink="http://www.w3.org/1999/xlink" width="357" height="298" viewBox="0 0 357 298">
    <defs>
        <path id="v671dj9hoa" d="M0 272L436 272 436 0 0 0z"/>
    </defs>
    <g fill="none" fill-rule="evenodd">
        <g>
            <g>
                <g>
                    <g>
                        <path fill="#001A5C" d="M49 272L149 272 149 48 49 48z" transform="translate(-1229 -466) translate(-74 58) translate(1303 408) translate(0 26)"/>
                        <g transform="translate(-1229 -466) translate(-74 58) translate(1303 408) translate(0 26)">
                            <path fill="#FF5E4D" d="M149.015 48.414c0 12.412-22.391 22.474-50.012 22.474-27.62 0-50.012-10.062-50.012-22.474s22.391-22.473 50.012-22.473c27.62 0 50.012 10.061 50.012 22.473"/>
                            <mask id="vqevyf8w5b" fill="#fff">
                                <use xlink:href="#v671dj9hoa"/>
                            </mask>
                            <path fill="#00D2B5" d="M78.081 435.526L256.282 435.526 256.282 126.226 78.081 126.226z" mask="url(#vqevyf8w5b)"/>
                            <path fill="#FFF" d="M256.282 126.226c0 22.113-39.892 40.04-89.1 40.04-49.21 0-89.1-17.927-89.1-40.04s39.89-40.039 89.1-40.039c49.208 0 89.1 17.926 89.1 40.04" mask="url(#vqevyf8w5b)"/>
                            <path fill="#FF5E4D" d="M15.433 505.306L133.148 505.306 133.148 217.074 15.433 217.074z" mask="url(#vqevyf8w5b)"/>
                            <path fill="#001A5C" d="M202.517 574.116L298.545 574.116 298.545 132.733 202.517 132.733zM133.148 217.074c0 14.607-26.351 26.45-58.857 26.45s-58.858-11.843-58.858-26.45 26.352-26.449 58.858-26.449 58.857 11.842 58.857 26.45" mask="url(#vqevyf8w5b)"/>
                            <path fill="#FF5E4D" d="M298.545 132.733c0 11.916-21.497 21.576-48.014 21.576-26.518 0-48.014-9.66-48.014-21.576 0-11.917 21.496-21.577 48.014-21.577 26.517 0 48.014 9.66 48.014 21.577" mask="url(#vqevyf8w5b)"/>
                            <path fill="#FFF" d="M105.76 495.756L170.865 495.756 170.865 196.509 105.76 196.509z" mask="url(#vqevyf8w5b)"/>
                            <path fill="#FF5E4D" d="M170.865 196.51c0 8.078-14.574 14.627-32.552 14.627s-32.553-6.549-32.553-14.628 14.575-14.628 32.553-14.628c17.978 0 32.552 6.549 32.552 14.628" mask="url(#vqevyf8w5b)"/>
                        </g>
                    </g>
                </g>
            </g>
        </g>
    </g>
</svg>
