<svg xmlns="http://www.w3.org/2000/svg" xmlns:xlink="http://www.w3.org/1999/xlink" width="290" height="59" viewBox="0 0 290 59">
    <defs>
        <path id="qt37rvzs3a" d="M0 0.155L8.217 0.155 8.217 20.373 0 20.373z"/>
        <path id="hdo5uaq2pc" d="M0.3 0.31L39.974 0.31 39.974 28.903 0.3 28.903z"/>
        <path id="gymxtry95e" d="M0 0.111L8.217 0.111 8.217 20.329 0 20.329z"/>
        <path id="c5fg0icu8g" d="M0.3 0.155L39.974 0.155 39.974 28.748 0.3 28.748z"/>
        <path id="h19qna451i" d="M0.305 0.033L48.706 0.033 48.706 49.426 0.305 49.426z"/>
        <path id="mncq2za0pk" d="M0 0.31L48.372 0.31 48.372 49.119 0 49.119z"/>
        <path id="cyq91iyd5m" d="M0.496 0.25L0.743 0.25 0.743 0.5 0.496 0.5z"/>
        <path id="nglcrgc61o" d="M0.422 0.067L28.6 0.067 28.6 28.5 0.422 28.5z"/>
        <path id="xvsv4um03q" d="M0 0.307L56.356 0.307 56.356 56.993 0 56.993z"/>
        <path id="8wi3s8ukxs" d="M0.422 0.307L28.6 0.307 28.6 56.993 0.422 56.993z"/>
        <path id="jozy2l3g0u" d="M0.233 0.31L39.101 0.31 39.101 57.495 0.233 57.495z"/>
    </defs>
    <g fill="none" fill-rule="evenodd">
        <g>
            <g>
                <g>
                    <g>
                        <g transform="translate(-575 -130) translate(-74 58) translate(649 72) translate(0 28.943)">
                            <mask id="n1xodjip0b" fill="#fff">
                                <use xlink:href="#qt37rvzs3a"/>
                            </mask>
                            <path fill="#00D2B5" d="M0 .155C0 7.473 2.739 14.79 8.217 20.373 2.739 14.79 0 7.473 0 .155" mask="url(#n1xodjip0b)"/>
                        </g>
                        <g transform="translate(-575 -130) translate(-74 58) translate(649 72) translate(7.918 .195)">
                            <mask id="7vf5ve45qd" fill="#fff">
                                <use xlink:href="#hdo5uaq2pc"/>
                            </mask>
                            <path fill="#FFF" d="M20.137 28.903L39.974 8.684C29.018-2.482 11.255-2.482.3 8.684l19.837 20.219z" mask="url(#7vf5ve45qd)"/>
                        </g>
                        <g transform="translate(-575 -130) translate(-74 58) translate(649 72) translate(0 8.769)">
                            <mask id="4s48vjgk0f" fill="#fff">
                                <use xlink:href="#gymxtry95e"/>
                            </mask>
                            <path fill="#00D2B5" d="M8.217.11C2.739 5.695 0 13.012 0 20.33 0 13.01 2.739 5.694 8.217.11z" mask="url(#4s48vjgk0f)"/>
                        </g>
                        <g transform="translate(-575 -130) translate(-74 58) translate(649 72) translate(7.918 28.943)">
                            <mask id="4qtt66b7eh" fill="#fff">
                                <use xlink:href="#c5fg0icu8g"/>
                            </mask>
                            <path fill="#FF5E4D" d="M20.137.155L.3 20.373c10.955 11.166 28.718 11.166 39.674 0L20.137.155z" mask="url(#4qtt66b7eh)"/>
                        </g>
                        <path fill="#001A5C" d="M28.054 29.097L8.217 8.88C2.74 14.463 0 21.78 0 29.098s2.74 14.636 8.217 20.219l19.837-20.219z" transform="translate(-575 -130) translate(-74 58) translate(649 72)"/>
                    </g>
                    <g>
                        <path fill="#FF5E4D" d="M0 0L28.346 28.347 28.346 0z" transform="translate(-575 -130) translate(-74 58) translate(649 72) translate(56 1)"/>
                        <path fill="#FFF" d="M28.346 56.693L56.693 56.693 28.346 28.347z" transform="translate(-575 -130) translate(-74 58) translate(649 72) translate(56 1)"/>
                        <path fill="#001A5C" d="M0 0L0 56.693 28.346 56.693 28.346 28.347z" transform="translate(-575 -130) translate(-74 58) translate(649 72) translate(56 1)"/>
                    </g>
                    <g>
                        <g transform="translate(-575 -130) translate(-74 58) translate(649 72) translate(106) translate(8 8.264)">
                            <mask id="khtfn9csrj" fill="#fff">
                                <use xlink:href="#h19qna451i"/>
                            </mask>
                            <path fill="#FF5E4D" d="M40.402.603c-.2-.203-.42-.375-.626-.57l.596.6L.305 41.05c11.072 11.17 29.024 11.17 40.097 0 11.073-11.169 11.073-29.277 0-40.446" mask="url(#khtfn9csrj)"/>
                        </g>
                        <g transform="translate(-575 -130) translate(-74 58) translate(649 72) translate(106) translate(0 .195)">
                            <mask id="y6j7uxe3el" fill="#fff">
                                <use xlink:href="#mncq2za0pk"/>
                            </mask>
                            <path fill="#FFF" d="M47.776 8.102c-11.112-10.568-28.6-10.396-39.471.57-11.073 11.17-11.073 29.278 0 40.447L48.372 8.703l-.596-.6z" mask="url(#y6j7uxe3el)"/>
                        </g>
                    </g>
                    <g>
                        <g transform="translate(-575 -130) translate(-74 58) translate(649 72) translate(170) translate(0 56.693)">
                            <mask id="0687n1847n" fill="#fff">
                                <use xlink:href="#cyq91iyd5m"/>
                            </mask>
                        </g>
                        <g transform="translate(-575 -130) translate(-74 58) translate(649 72) translate(170) translate(28.252 28.693)">
                            <mask id="raq5rbtamp" fill="#fff">
                                <use xlink:href="#nglcrgc61o"/>
                            </mask>
                            <path fill="#FF5E4D" d="M.422 28.493v.007H28.6V.067c0 15.7-12.616 28.426-28.178 28.426" mask="url(#raq5rbtamp)"/>
                        </g>
                        <g transform="translate(-575 -130) translate(-74 58) translate(649 72) translate(170) translate(.496 .193)">
                            <mask id="pfmxbf25wr" fill="#fff">
                                <use xlink:href="#xvsv4um03q"/>
                            </mask>
                            <path fill="#FFF" d="M0 .307v28.26c0 15.7 12.616 28.426 28.178 28.426V.307h28.178H0z" mask="url(#pfmxbf25wr)"/>
                        </g>
                        <g transform="translate(-575 -130) translate(-74 58) translate(649 72) translate(170) translate(28.252 .193)">
                            <mask id="848fpfj53t" fill="#fff">
                                <use xlink:href="#8wi3s8ukxs"/>
                            </mask>
                            <path fill="#001A5C" d="M.422 56.993c15.562 0 28.178-12.727 28.178-28.426V.307H.422v56.686z" mask="url(#848fpfj53t)"/>
                        </g>
                    </g>
                    <g>
                        <path fill="#FF5E4D" d="M0 0.505L0 57.69 14.732 57.69 14.732 57.647 14.732 0.505z" transform="translate(-575 -130) translate(-74 58) translate(649 72) translate(235)"/>
                        <g transform="translate(-575 -130) translate(-74 58) translate(649 72) translate(235) translate(14.5 .195)">
                            <mask id="pu10nesusv" fill="#fff">
                                <use xlink:href="#jozy2l3g0u"/>
                            </mask>
                            <path fill="#FFF" d="M10.733.31H.233v57.164h10.5v.021h.843c15.274-.453 27.526-13.055 27.526-28.571C39.102 13.121 26.4.31 10.734.31" mask="url(#pu10nesusv)"/>
                        </g>
                    </g>
                </g>
            </g>
        </g>
    </g>
</svg>
