<svg xmlns="http://www.w3.org/2000/svg" width="239" height="478" viewBox="0 0 239 478">
    <g fill="none" fill-rule="evenodd">
        <g>
            <g>
                <path fill="#001A5C" d="M0 0H239V239H0z" transform="translate(-1201 -58) translate(1201 58)"/>
                <g fill="#001A5C">
                    <path d="M120 1c-.268 65.768-53.891 119-120 119V1z" transform="translate(-1201 -58) translate(1201 58) translate(119 238) rotate(-90 60 60.5)"/>
                </g>
                <path fill="#FF5E4D" d="M59.5 0C92.36 0 119 26.64 119 59.5V119H0V59.5C0 26.64 26.64 0 59.5 0z" transform="translate(-1201 -58) translate(1201 58) rotate(-90 179 179)"/>
                <path fill="#00D2B5" d="M0 0L120 120 0 120z" transform="translate(-1201 -58) translate(1201 58) rotate(-180 119.5 239)"/>
            </g>
        </g>
    </g>
</svg>
