<svg xmlns="http://www.w3.org/2000/svg" width="110" height="134" viewBox="0 0 110 134">
    <g fill="none" fill-rule="evenodd">
        <g fill="#FF5E4D">
            <g>
                <g transform="translate(-277 -3949) translate(277 3949)">
                    <ellipse cx="5" cy="4.963" rx="5" ry="4.963"/>
                    <ellipse cx="5" cy="4.963" rx="5" ry="4.963" transform="translate(0 24.815)"/>
                    <ellipse cx="5" cy="4.963" rx="5" ry="4.963" transform="translate(25)"/>
                    <ellipse cx="5" cy="4.963" rx="5" ry="4.963" transform="translate(25 24.815)"/>
                    <ellipse cx="5" cy="4.963" rx="5" ry="4.963" transform="translate(50)"/>
                    <ellipse cx="5" cy="4.963" rx="5" ry="4.963" transform="translate(50 24.815)"/>
                    <ellipse cx="5" cy="4.963" rx="5" ry="4.963" transform="translate(75)"/>
                    <ellipse cx="5" cy="4.963" rx="5" ry="4.963" transform="translate(75 24.815)"/>
                    <ellipse cx="5" cy="4.963" rx="5" ry="4.963" transform="translate(100)"/>
                    <ellipse cx="5" cy="4.963" rx="5" ry="4.963" transform="translate(100 24.815)"/>
                    <ellipse cx="5" cy="4.963" rx="5" ry="4.963" transform="translate(0 49.63)"/>
                    <ellipse cx="5" cy="4.963" rx="5" ry="4.963" transform="translate(25 49.63)"/>
                    <ellipse cx="5" cy="4.963" rx="5" ry="4.963" transform="translate(50 49.63)"/>
                    <ellipse cx="5" cy="4.963" rx="5" ry="4.963" transform="translate(75 49.63)"/>
                    <ellipse cx="5" cy="4.963" rx="5" ry="4.963" transform="translate(100 49.63)"/>
                    <ellipse cx="5" cy="4.963" rx="5" ry="4.963" transform="translate(0 74.444)"/>
                    <ellipse cx="5" cy="4.963" rx="5" ry="4.963" transform="translate(25 74.444)"/>
                    <ellipse cx="5" cy="4.963" rx="5" ry="4.963" transform="translate(50 74.444)"/>
                    <ellipse cx="5" cy="4.963" rx="5" ry="4.963" transform="translate(75 74.444)"/>
                    <ellipse cx="5" cy="4.963" rx="5" ry="4.963" transform="translate(100 74.444)"/>
                    <ellipse cx="5" cy="4.963" rx="5" ry="4.963" transform="translate(0 99.26)"/>
                    <ellipse cx="5" cy="4.963" rx="5" ry="4.963" transform="translate(25 99.26)"/>
                    <ellipse cx="5" cy="4.963" rx="5" ry="4.963" transform="translate(50 99.26)"/>
                    <ellipse cx="5" cy="4.963" rx="5" ry="4.963" transform="translate(75 99.26)"/>
                    <ellipse cx="5" cy="4.963" rx="5" ry="4.963" transform="translate(100 99.26)"/>
                    <ellipse cx="5" cy="4.963" rx="5" ry="4.963" transform="translate(0 124.074)"/>
                    <ellipse cx="5" cy="4.963" rx="5" ry="4.963" transform="translate(25 124.074)"/>
                    <ellipse cx="5" cy="4.963" rx="5" ry="4.963" transform="translate(50 124.074)"/>
                    <ellipse cx="5" cy="4.963" rx="5" ry="4.963" transform="translate(75 124.074)"/>
                    <ellipse cx="5" cy="4.963" rx="5" ry="4.963" transform="translate(100 124.074)"/>
                </g>
            </g>
        </g>
    </g>
</svg>
