<svg xmlns="http://www.w3.org/2000/svg" width="374" height="278" viewBox="0 0 374 278">
    <g fill="none" fill-rule="evenodd">
        <g>
            <g>
                <path fill="#001A5C" d="M191.714 164.188L116.286 234.154 40.857 164.188z" transform="translate(-350 -1992) translate(350 1992)"/>
                <path fill="#FFF" d="M116.286 208.286L116.286 278 191.714 164.188z" transform="translate(-350 -1992) translate(350 1992)"/>
                <path fill="#FF5E4D" d="M116.286 278L116.286 208.286 40.857 164.188z" transform="translate(-350 -1992) translate(350 1992)"/>
                <path fill="#001A5C" d="M341.524 164.188L266.619 234.154 191.714 164.188z" transform="translate(-350 -1992) translate(350 1992)"/>
                <path fill="#FF5E4D" d="M266.095 278L266.095 208.286 191.714 164.188z" transform="translate(-350 -1992) translate(350 1992)"/>
                <path fill="#FFF" d="M80.985 69.966L40.857 93.668 40.857 164.188 102.667 69.966z" transform="translate(-350 -1992) translate(350 1992)"/>
                <path fill="#FF5E4D" d="M0 69.966L0 101.697 40.857 164.188 40.857 93.668 0.864 69.966z" transform="translate(-350 -1992) translate(350 1992)"/>
                <path fill="#001A5C" d="M116.286 278L191.714 233.902 191.714 164.188z" transform="translate(-350 -1992) translate(350 1992)"/>
                <path fill="#FFF" d="M191.714 233.902L266.095 278 191.714 164.188z" transform="translate(-350 -1992) translate(350 1992)"/>
                <path fill="#001A5C" d="M0 164.188L0 201.503 40.857 164.188z" transform="translate(-350 -1992) translate(350 1992)"/>
                <path fill="#FF5E4D" d="M0 188.044L0 225.758 40.857 164.188zM0 246.011L0 278 116.286 278 40.912 208.034z" transform="translate(-350 -1992) translate(350 1992)"/>
                <path fill="#001A5C" d="M0 225.726L0 257.477 40.857 233.633 40.857 164.188z" transform="translate(-350 -1992) translate(350 1992)"/>
                <path fill="#00D2B5" d="M40.857 233.902L116.286 278 40.857 164.188z" transform="translate(-350 -1992) translate(350 1992)"/>
                <path fill="#FFF" d="M40.857 164.188L116.286 93.289 191.714 164.188z" transform="translate(-350 -1992) translate(350 1992)"/>
                <path fill="#001A5C" d="M102.588 69.966L40.857 164.188 116.286 119.58 116.286 69.966z" transform="translate(-350 -1992) translate(350 1992)"/>
                <path fill="#00D2B5" d="M116.286 69.966L116.286 119.58 191.714 164.188 129.983 69.966z" transform="translate(-350 -1992) translate(350 1992)"/>
                <path fill="#FFF" d="M0 164.188L40.857 164.188 0 125.94z" transform="translate(-350 -1992) translate(350 1992)"/>
                <path fill="#00D2B5" d="M0 139.97L40.857 164.188 0 101.685z" transform="translate(-350 -1992) translate(350 1992)"/>
                <path fill="#FFF" d="M231.842 69.966L191.714 93.668 191.714 164.188 253.524 69.966z" transform="translate(-350 -1992) translate(350 1992)"/>
                <path fill="#FF5E4D" d="M129.905 69.966L191.714 164.188 191.714 93.668 151.587 69.966z" transform="translate(-350 -1992) translate(350 1992)"/>
                <g>
                    <path fill="#FFF" d="M0 44.098L0 113.812 75.429 0z" transform="translate(-350 -1992) translate(350 1992) translate(266.095 164.188)"/>
                    <path fill="#001A5C" d="M0 113.812L75.429 69.714 75.429 0z" transform="translate(-350 -1992) translate(350 1992) translate(266.095 164.188)"/>
                    <path fill="#00D2B5" d="M75.429 69.073L107.905 87.691 107.905 48.052 75.429 0z" transform="translate(-350 -1992) translate(350 1992) translate(266.095 164.188)"/>
                </g>
            </g>
        </g>
    </g>
</svg>
