<svg xmlns="http://www.w3.org/2000/svg" xmlns:xlink="http://www.w3.org/1999/xlink" width="926" height="60" viewBox="0 0 926 60">
    <defs>
        <path id="zb4jtc8rla" d="M0 60L53 60 53 0 0 0z"/>
        <path id="8hp5ba8y2c" d="M0 60L53 60 53 0 0 0z"/>
        <path id="g1mqoe3ige" d="M0 0.324L45.563 0.324 45.563 16 0 16z"/>
        <path id="abwxpd9wtg" d="M0 0.318L45.563 0.318 45.563 42.817 0 42.817z"/>
        <path id="a7ibfxdoli" d="M0 0.314L32.517 0.314 32.517 44.577 0 44.577z"/>
        <path id="hln2tekigk" d="M0.149 0.634L0.419 0.634 0.419 1.689 0.149 1.689z"/>
        <path id="piiol99x6m" d="M0 0.494L21.919 0.494 21.919 12.715 0 12.715z"/>
        <path id="yrdk79drlo" d="M0 0.15L8.791 0.15 8.791 19.705 0 19.705z"/>
        <path id="po9oyax7vq" d="M0.306 0.307L40.889 0.307 40.889 28.654 0.306 28.654z"/>
        <path id="b2j3rf070s" d="M0 0.107L8.791 0.107 8.791 19.662 0 19.662z"/>
        <path id="ted0yc22wu" d="M0.306 0.151L40.889 0.151 40.889 28 0.306 28z"/>
        <path id="xhl1remxjw" d="M0 58L51 58 51 0 0 0z"/>
    </defs>
    <g fill="none" fill-rule="evenodd">
        <g>
            <g>
                <g>
                    <g>
                        <path fill="#FFF" d="M54.703 26.77c-2.64-2.845-6.098-4.898-9.996-5.77v18.433H20.193c-1.441 0-2.841-.169-4.193-.47V60h24.515C51.275 60 60 51.165 60 40.267c0-5.227-2.02-9.966-5.297-13.497" transform="translate(-257 -130) translate(-101 58) translate(358 72)"/>
                        <path fill="#00D2B5" d="M39.808 20.569c1.44 0 2.842.164 4.192.466V0H19.485c-5.6 0-10.634 2.406-14.188 6.238C2.02 9.768 0 14.508 0 19.735 0 29.175 6.548 37.056 15.293 39V20.569h24.515z" transform="translate(-257 -130) translate(-101 58) translate(358 72)"/>
                        <path fill="#001A5C" d="M44 39V20.47c-1.364-.304-2.78-.47-4.235-.47H15v18.527c1.366.303 2.78.473 4.236.473H44z" transform="translate(-257 -130) translate(-101 58) translate(358 72)"/>
                    </g>
                    <g transform="translate(-257 -130) translate(-101 58) translate(358 72) translate(68)">
                        <path fill="#FFF" d="M44 29.5C44 35.3 39.299 40 33.5 40S23 35.3 23 29.5C23 23.701 27.701 19 33.5 19S44 23.701 44 29.5"/>
                        <mask id="ktjoxkrwyb" fill="#fff">
                            <use xlink:href="#zb4jtc8rla"/>
                        </mask>
                        <path fill="#FFF" d="M0 40L23 40 23 19 0 19z" mask="url(#ktjoxkrwyb)"/>
                        <path fill="#00D2B5" d="M24 19L53 19 53 0 24 0zM24 60L53 60 53 41 24 41z" mask="url(#ktjoxkrwyb)"/>
                        <path fill="#001A5C" d="M0 19L23 19 23 0 0 0zM0 60L23 60 23 41 0 41z" mask="url(#ktjoxkrwyb)"/>
                    </g>
                    <g transform="translate(-257 -130) translate(-101 58) translate(358 72) translate(337)">
                        <path fill="#FFF" d="M44 29.5C44 35.3 39.299 40 33.5 40S23 35.3 23 29.5C23 23.701 27.701 19 33.5 19S44 23.701 44 29.5"/>
                        <mask id="vodidjg8kd" fill="#fff">
                            <use xlink:href="#8hp5ba8y2c"/>
                        </mask>
                        <path fill="#FFF" d="M0 40L23 40 23 19 0 19z" mask="url(#vodidjg8kd)"/>
                        <path fill="#00D2B5" d="M24 19L53 19 53 0 24 0zM24 60L53 60 53 41 24 41z" mask="url(#vodidjg8kd)"/>
                        <path fill="#001A5C" d="M0 19L23 19 23 0 0 0zM0 60L23 60 23 41 0 41z" mask="url(#vodidjg8kd)"/>
                    </g>
                    <g>
                        <g transform="translate(-257 -130) translate(-101 58) translate(358 72) translate(129) translate(0 42)">
                            <mask id="fpzoblvn6f" fill="#fff">
                                <use xlink:href="#g1mqoe3ige"/>
                            </mask>
                            <path fill="#00D2B5" d="M22.94 2.586H0V16h45.563L32.965.324C29.94 1.76 26.545 2.586 22.94 2.586" mask="url(#fpzoblvn6f)"/>
                        </g>
                        <g transform="translate(-257 -130) translate(-101 58) translate(358 72) translate(129)">
                            <mask id="825fy3ja7h" fill="#fff">
                                <use xlink:href="#abwxpd9wtg"/>
                            </mask>
                            <path fill="#FFF" d="M45.563 22.74C45.563 10.357 35.434.318 22.94.318H0l32.964 42.5c7.46-3.666 12.6-11.268 12.6-20.078" mask="url(#825fy3ja7h)"/>
                        </g>
                        <g transform="translate(-257 -130) translate(-101 58) translate(358 72) translate(129)">
                            <mask id="75wo1jx5oj" fill="#fff">
                                <use xlink:href="#a7ibfxdoli"/>
                            </mask>
                            <path fill="#001A5C" d="M32.517 42.263L0 .314v44.263h22.629c3.555 0 6.904-.846 9.888-2.314" mask="url(#75wo1jx5oj)"/>
                        </g>
                    </g>
                    <g>
                        <path fill="#00D2B5" d="M46.93 6L29 38.151 11.069 6 0 6 29 58 58 6z" transform="translate(-257 -130) translate(-101 58) translate(358 72) translate(183 1)"/>
                        <path fill="#FFF" d="M8 0L11.083 6 46.916 6 50 0z" transform="translate(-257 -130) translate(-101 58) translate(358 72) translate(183 1)"/>
                        <path fill="#001A5C" d="M11 6L29 38 47 6" transform="translate(-257 -130) translate(-101 58) translate(358 72) translate(183 1)"/>
                    </g>
                    <g>
                        <path fill="#00D2B5" d="M11 23.502c-6.075 0-11-5.15-11-11.502v48h22V12c0 6.353-4.925 11.502-11 11.502" transform="translate(-257 -130) translate(-101 58) translate(358 72) translate(249)"/>
                        <g transform="translate(-257 -130) translate(-101 58) translate(358 72) translate(249) translate(22 10)">
                            <mask id="3tuecv76jl" fill="#fff">
                                <use xlink:href="#hln2tekigk"/>
                            </mask>
                            <path fill="#00D2B5" d="M.379.634c.018.35.04.698.04 1.055V.634h-.04z" mask="url(#3tuecv76jl)"/>
                        </g>
                        <path fill="#FFF" d="M11 0C5.172 0 .41 4.854 0 11h22c-.41-6.146-5.172-11-11-11" transform="translate(-257 -130) translate(-101 58) translate(358 72) translate(249)"/>
                        <g transform="translate(-257 -130) translate(-101 58) translate(358 72) translate(249) translate(0 10)">
                            <mask id="efoulpizcn" fill="#fff">
                                <use xlink:href="#piiol99x6m"/>
                            </mask>
                            <path fill="#001A5C" d="M.04.494C.021.767 0 1.04 0 1.318c0 6.294 4.907 11.397 10.96 11.397 6.052 0 10.959-5.103 10.959-11.397 0-.279-.021-.55-.04-.824H.04z" mask="url(#efoulpizcn)"/>
                        </g>
                    </g>
                    <g>
                        <g transform="translate(-257 -130) translate(-101 58) translate(358 72) translate(280 1) translate(0 29)">
                            <mask id="v6o7whc08p" fill="#fff">
                                <use xlink:href="#yrdk79drlo"/>
                            </mask>
                            <path fill="#00D2B5" d="M0 .15c0 7.077 2.93 14.155 8.79 19.555C2.93 14.305 0 7.227 0 .15" mask="url(#v6o7whc08p)"/>
                        </g>
                        <g transform="translate(-257 -130) translate(-101 58) translate(358 72) translate(280 1) translate(8)">
                            <mask id="xl3u388iqr" fill="#fff">
                                <use xlink:href="#po9oyax7vq"/>
                            </mask>
                            <path fill="#00D2B5" d="M20.598 28.654L40.889 8.61C29.682-2.46 11.513-2.46.306 8.61l20.292 20.044z" mask="url(#xl3u388iqr)"/>
                        </g>
                        <g transform="translate(-257 -130) translate(-101 58) translate(358 72) translate(280 1) translate(0 9)">
                            <mask id="1jp6r2737t" fill="#fff">
                                <use xlink:href="#b2j3rf070s"/>
                            </mask>
                            <path fill="#00D2B5" d="M8.79.107C2.93 5.507 0 12.585 0 19.662 0 12.585 2.93 5.507 8.79.107z" mask="url(#1jp6r2737t)"/>
                        </g>
                        <g transform="translate(-257 -130) translate(-101 58) translate(358 72) translate(280 1) translate(8 29)">
                            <mask id="mqjl6ovwzv" fill="#fff">
                                <use xlink:href="#ted0yc22wu"/>
                            </mask>
                            <path fill="#FFF" d="M20.598.15L.306 19.844c11.207 10.876 29.376 10.876 40.583 0L20.598.151z" mask="url(#mqjl6ovwzv)"/>
                        </g>
                        <path fill="#001A5C" d="M29 29L8.494 9C2.83 14.523 0 21.761 0 29c0 7.239 2.831 14.477 8.494 20L29 29z" transform="translate(-257 -130) translate(-101 58) translate(358 72) translate(280 1)"/>
                    </g>
                    <g>
                        <path fill="#FFF" d="M52.824 25.474c-2.58-2.7-5.96-4.647-9.77-5.474v17.488H19.099c-1.409 0-2.777-.16-4.098-.446V57h23.958C49.474 57 58 48.618 58 38.279c0-4.96-1.975-9.455-5.176-12.805" transform="translate(-257 -130) translate(-101 58) translate(358 72) translate(398 1)"/>
                        <path fill="#00D2B5" d="M38.903 19.514c1.408 0 2.777.156 4.097.443V0H19.042C13.57 0 8.65 2.283 5.176 5.918 1.976 9.268 0 13.764 0 18.723 0 27.68 6.4 35.156 14.945 37V19.514h23.958z" transform="translate(-257 -130) translate(-101 58) translate(358 72) translate(398 1)"/>
                        <path fill="#001A5C" d="M43 38V20.445c-1.317-.288-2.684-.445-4.09-.445H15v17.552c1.319.287 2.684.448 4.09.448H43z" transform="translate(-257 -130) translate(-101 58) translate(358 72) translate(398 1)"/>
                    </g>
                    <g>
                        <path fill="#FFF" d="M52.824 25.474c-2.58-2.7-5.96-4.647-9.77-5.474v17.488H19.099c-1.409 0-2.777-.16-4.098-.446V57h23.958C49.474 57 58 48.618 58 38.279c0-4.96-1.975-9.455-5.176-12.805" transform="translate(-257 -130) translate(-101 58) translate(358 72) translate(868 1)"/>
                        <path fill="#00D2B5" d="M38.903 19.514c1.408 0 2.777.156 4.097.443V0H19.042C13.57 0 8.65 2.283 5.176 5.918 1.976 9.268 0 13.764 0 18.723 0 27.68 6.4 35.156 14.945 37V19.514h23.958z" transform="translate(-257 -130) translate(-101 58) translate(358 72) translate(868 1)"/>
                        <path fill="#001A5C" d="M43 38V20.445c-1.317-.288-2.684-.445-4.09-.445H15v17.552c1.319.287 2.684.448 4.09.448H43z" transform="translate(-257 -130) translate(-101 58) translate(358 72) translate(868 1)"/>
                    </g>
                    <g>
                        <path fill="#FFF" d="M0 0L0 60 30 30z" transform="translate(-257 -130) translate(-101 58) translate(358 72) translate(472)"/>
                        <path fill="#00D2B5" d="M30 30L60 60 60 0z" transform="translate(-257 -130) translate(-101 58) translate(358 72) translate(472)"/>
                        <path fill="#001A5C" d="M0 60L60 60 60 59.999 30 30z" transform="translate(-257 -130) translate(-101 58) translate(358 72) translate(472)"/>
                    </g>
                    <g>
                        <path fill="#00D2B5" d="M30 0L0 54 11.451 54 30 20.612 48.548 54 60 54z" transform="translate(-257 -130) translate(-101 58) translate(358 72) translate(540)"/>
                        <path fill="#FFF" d="M46.632 54L12.368 54 11.157 54 8 60 17.085 60 41.915 60 51 60 47.843 54z" transform="translate(-257 -130) translate(-101 58) translate(358 72) translate(540)"/>
                        <path fill="#001A5C" d="M11 54L12.222 54 46.778 54 48 54 29.5 21z" transform="translate(-257 -130) translate(-101 58) translate(358 72) translate(540)"/>
                    </g>
                    <g transform="translate(-257 -130) translate(-101 58) translate(358 72) translate(809 1)">
                        <path fill="#FFF" d="M43 29c0 5.523-4.477 10-10 10s-10-4.477-10-10c0-5.522 4.477-10 10-10s10 4.478 10 10"/>
                        <mask id="y5ym7u7b8x" fill="#fff">
                            <use xlink:href="#xhl1remxjw"/>
                        </mask>
                        <path fill="#FFF" d="M0 39L23 39 23 19 0 19z" mask="url(#y5ym7u7b8x)"/>
                        <path fill="#00D2B5" d="M23 19L51 19 51 0 23 0zM23 58L51 58 51 39 23 39z" mask="url(#y5ym7u7b8x)"/>
                        <path fill="#001A5C" d="M0 19L23 19 23 0 0 0zM0 58L23 58 23 39 0 39z" mask="url(#y5ym7u7b8x)"/>
                    </g>
                    <g>
                        <path fill="#00D2B5" d="M30 0L0 54 11.451 54 30 20.612 48.548 54 60 54z" transform="translate(-257 -130) translate(-101 58) translate(358 72) translate(675)"/>
                        <path fill="#FFF" d="M46.632 54L12.368 54 11.157 54 8 60 17.085 60 41.915 60 51 60 47.843 54z" transform="translate(-257 -130) translate(-101 58) translate(358 72) translate(675)"/>
                        <path fill="#001A5C" d="M11 54L12.222 54 46.778 54 48 54 29.5 21z" transform="translate(-257 -130) translate(-101 58) translate(358 72) translate(675)"/>
                    </g>
                    <g>
                        <path fill="#00D2B5" d="M0 0L0 59 30 59 30 29.5z" transform="translate(-257 -130) translate(-101 58) translate(358 72) translate(608)"/>
                        <path fill="#FFF" d="M29 0L29 29.5 59 59 59 0z" transform="translate(-257 -130) translate(-101 58) translate(358 72) translate(608)"/>
                        <path fill="#FFF" d="M29 59L59 59 29 29z" transform="translate(-257 -130) translate(-101 58) translate(358 72) translate(608)"/>
                    </g>
                    <g>
                        <path fill="#00D2B5" d="M9 49c5.118 4.943 12.19 8 20 8-7.81 0-14.881-3.057-20-8M29 29V0C12.983 0 0 12.984 0 29h29zM0 29c0 7.81 3.057 14.881 8 20-4.943-5.119-8-12.19-8-20" transform="translate(-257 -130) translate(-101 58) translate(358 72) translate(743 1)"/>
                        <path fill="#FFF" d="M29 29v29c16.017 0 29-12.983 29-29H29z" transform="translate(-257 -130) translate(-101 58) translate(358 72) translate(743 1)"/>
                        <path fill="#001A5C" d="M29 29H0c0 8.008 3.246 15.258 8.494 20.506C13.742 54.754 20.992 58 29 58V29z" transform="translate(-257 -130) translate(-101 58) translate(358 72) translate(743 1)"/>
                    </g>
                </g>
            </g>
        </g>
    </g>
</svg>
