<svg xmlns="http://www.w3.org/2000/svg" xmlns:xlink="http://www.w3.org/1999/xlink" width="174" height="174" viewBox="0 0 174 174">
    <defs>
        <path id="b59mxd6uua" d="M.517 22.755c0 12.05 9.77 21.82 21.82 21.82s21.819-9.77 21.819-21.82S34.387.935 22.337.935c-12.05 0-21.82 9.77-21.82 21.82z"/>
        <path id="qdhreayigc" d="M.44 41.329c0 22.78 18.467 41.245 41.246 41.245 22.779 0 41.245-18.465 41.245-41.245 0-22.78-18.466-41.247-41.245-41.247C18.907.082.44 18.55.44 41.33z"/>
        <path id="g5gfvuljye" d="M0.83 8.573L15.387 16.832 29.946 8.573 15.387 0.312z"/>
        <path id="ammn28jvmg" d="M0.823 16.443L15.408 24.629 15.408 8.257 0.823 0.071z"/>
        <path id="kr3t1btyni" d="M0.369 8.257L0.369 24.629 14.954 16.443 14.954 0.071z"/>
    </defs>
    <g fill="none" fill-rule="evenodd">
        <g>
            <g>
                <path fill="#FF5E4D" d="M22 83c12.15 0 22-9.85 22-22s-9.85-22-22-22S0 48.85 0 61s9.85 22 22 22" transform="translate(26 26)"/>
                <g transform="translate(26 26) translate(0 38)">
                    <mask id="rrxupz69zb" fill="#fff">
                        <use xlink:href="#b59mxd6uua"/>
                    </mask>
                    <path fill="#FF5E4D" d="M0.517 44.574L44.155 44.574 44.155 0.936 0.517 0.936z" mask="url(#rrxupz69zb)"/>
                    <path fill="#FF5E4D" d="M-26.757 71.848L71.43 71.848 71.43 -26.338 -26.757 -26.338z" mask="url(#rrxupz69zb)"/>
                </g>
                <g transform="translate(26 26) translate(38)">
                    <mask id="1hhbgrslbd" fill="#fff">
                        <use xlink:href="#qdhreayigc"/>
                    </mask>
                    <path fill="#07D1B4" d="M-51.116 134.13L134.488 134.13 134.488 -51.473 -51.116 -51.473z" mask="url(#1hhbgrslbd)"/>
                </g>
                <g>
                    <path fill="#001A5C" d="M.448 78.946c0 18.382 15.03 33.285 33.568 33.285 18.538 0 33.567-14.903 33.567-33.285 0-18.384-15.03-33.286-33.567-33.286C15.477 45.66.448 60.562.448 78.946" transform="translate(26 26) translate(22 10)"/>
                    <path fill="#FFF" d="M61.534 24.635L45.986 40.054 86.234 29.621z" transform="translate(26 26) translate(22 10)"/>
                    <path fill="#FF5E4D" d="M56.506 0.143L61.535 24.635 45.985 40.054z" transform="translate(26 26) translate(22 10)"/>
                    <path fill="#001A5C" d="M86.234 29.621L61.535 24.634 56.506 0.142z" transform="translate(26 26) translate(22 10)"/>
                </g>
                <g transform="translate(26 26) translate(40 72)">
                    <mask id="wtn9rcbovf" fill="#fff">
                        <use xlink:href="#g5gfvuljye"/>
                    </mask>
                    <path fill="#07D1B4" d="M-0.531 18.166L31.306 18.166 31.306 -1.02 -0.531 -1.02z" mask="url(#wtn9rcbovf)"/>
                </g>
                <g transform="translate(26 26) translate(40 81)">
                    <mask id="0g0aq54oeh" fill="#fff">
                        <use xlink:href="#ammn28jvmg"/>
                    </mask>
                    <path fill="#FFF" d="M-0.527 25.935L16.758 25.935 16.758 -1.235 -0.527 -1.235z" mask="url(#0g0aq54oeh)"/>
                </g>
                <g transform="translate(26 26) translate(55 81)">
                    <mask id="lk0yqxnlgj" fill="#fff">
                        <use xlink:href="#kr3t1btyni"/>
                    </mask>
                    <path fill="#FE5E4D" d="M-0.982 25.935L16.304 25.935 16.304 -1.235 -0.982 -1.235z" mask="url(#lk0yqxnlgj)"/>
                </g>
            </g>
        </g>
    </g>
</svg>
