<svg xmlns="http://www.w3.org/2000/svg" width="357" height="298" viewBox="0 0 357 298">
    <g fill="none" fill-rule="evenodd">
        <g>
            <g>
                <g>
                    <g>
                        <g>
                            <path fill="#00D2B5" d="M94 111L42 80.5 94 50 146 80.5zM147 201L95 170.258 147.185 139 199 170.258z" transform="translate(-1225 -466) translate(-101 58) translate(1326 408) translate(0 64)"/>
                            <path fill="#001A5C" d="M95 111.391L95 171 42 140.098 42 81z" transform="translate(-1225 -466) translate(-101 58) translate(1326 408) translate(0 64)"/>
                            <path fill="#FFF" d="M95 111.391L95 171 148 140.098 148 81z" transform="translate(-1225 -466) translate(-101 58) translate(1326 408) translate(0 64)"/>
                            <path fill="#00D2B5" d="M0 164.399L0 176 42.607 201 95 170.258 42.421 139z" transform="translate(-1225 -466) translate(-101 58) translate(1326 408) translate(0 64)"/>
                            <path fill="#001A5C" d="M0 179.04L0 234 41.901 234 42 201.588.392 177zM199 111.391L199 171 146 140.098 146 81z" transform="translate(-1225 -466) translate(-101 58) translate(1326 408) translate(0 64)"/>
                            <path fill="#FFF" d="M96 232L44 201.5 96 171 148 201.5zM42 234L95 234 95 232.04 42.103 201z" transform="translate(-1225 -466) translate(-101 58) translate(1326 408) translate(0 64)"/>
                            <path fill="#001A5C" d="M95 231.977L95 234 148 234 148 201z" transform="translate(-1225 -466) translate(-101 58) translate(1326 408) translate(0 64)"/>
                            <path fill="#818181" d="M304.5 203.501v-.002.002z" transform="translate(-1225 -466) translate(-101 58) translate(1326 408) translate(0 64)"/>
                            <path fill="#00D2B5" d="M251 141L199 110.5 251 80 303 110.5zM304 232L252 201.258 304.185 170 356 201.258z" transform="translate(-1225 -466) translate(-101 58) translate(1326 408) translate(0 64)"/>
                            <path fill="#001A5C" d="M252 141.391L252 201 199 170.098 199 111z" transform="translate(-1225 -466) translate(-101 58) translate(1326 408) translate(0 64)"/>
                            <path fill="#FFF" d="M252 141.391L252 201 305 170.098 305 111zM200 232L148 201.5 200 171 252 201.5z" transform="translate(-1225 -466) translate(-101 58) translate(1326 408) translate(0 64)"/>
                            <path fill="#001A5C" d="M199 231.66L199 234 252 234 252 201zM356 141.391L356 201 303 170.098 303 111z" transform="translate(-1225 -466) translate(-101 58) translate(1326 408) translate(0 64)"/>
                            <path fill="#FFF" d="M7 0L42 20 77 0z" transform="translate(-1225 -466) translate(-101 58) translate(1326 408) translate(0 64)"/>
                            <path fill="#FFF" d="M0 0L0 55.162 42 80 42 20.241 7.199 0z" transform="translate(-1225 -466) translate(-101 58) translate(1326 408) translate(0 64)"/>
                        </g>
                    </g>
                </g>
            </g>
        </g>
    </g>
</svg>
