<svg xmlns="http://www.w3.org/2000/svg" viewBox="0 0 2882.04 684.96">
    <defs>
        <style>.cls-1{fill:#f55e4f;}.cls-2{fill:#3bd1b5;}.cls-3{fill:#00205b;}</style>
    </defs>
    <title>Asset 1</title>
    <g id="Layer_2" data-name="Layer 2">
        <g id="Calque_1" data-name="Calque 1">
            <polygon class="cls-1" points="0 684.96 684.96 684.96 342.48 342.48 0 684.96"/>
            <polygon class="cls-2" points="684.96 0 0 0 342.48 342.48 684.96 0"/>
            <polygon class="cls-3" points="0 0 0 684.96 342.48 342.48 0 0"/>
            <path class="cls-3" d="M1442.72,84.16a49.38,49.38,0,1,0,49.38,49.38A49.38,49.38,0,0,0,1442.72,84.16Z"/>
            <path class="cls-3"
                  d="M2428.5,172.26c-44.49,0-79,16.6-98.94,46.48V181.57h-85.64v332h85.64V334.27c0-57.76,31.22-82.33,73-82.33,38.52,0,65.75,23.25,65.75,68.39V513.56H2554V309.7C2554,221.4,2498.89,172.26,2428.5,172.26Z"/>
            <path class="cls-3"
                  d="M946,167.62c-104.25,0-175.3,76.36-175.3,175.3S841.07,518.2,952.62,518.2c63.75,0,113.54-25.89,144.75-71.05l-69-39.83c-14.61,19.25-41.17,33.21-74.36,33.21-45.16,0-81.68-18.6-93.63-62.43h250.32a197.79,197.79,0,0,0,3.33-35.18C1114,245.31,1044.25,167.62,946,167.62ZM859,311.7c10-42.49,41.16-67.06,87-67.06,35.85,0,71.7,19.26,82.33,67.06Z"/>
            <path class="cls-3"
                  d="M1640.93,271.2c0-17.93,17.26-27.22,38.51-27.22,24.56,0,43.15,12.61,53.11,33.86l73-39.83c-25.89-45.83-72.37-70.39-126.15-70.39-68.4,0-126.16,37.85-126.16,105.57,0,116.86,171.31,90.31,171.31,138.78,0,19.25-18.6,28.56-45.81,28.56-33.21,0-55.79-15.95-65.08-43.17l-74.36,41.83c23.9,51.13,73,79,139.44,79,71,0,133.46-34.53,133.46-106.23C1812.24,289.79,1640.93,320.34,1640.93,271.2Z"/>
            <path class="cls-3"
                  d="M2020.77,167.62c-104.25,0-175.3,76.36-175.3,175.3S1915.85,518.2,2027.4,518.2c63.75,0,113.54-25.89,144.76-71.05l-69.06-39.83c-14.61,19.25-41.17,33.21-74.36,33.21-45.16,0-81.68-18.6-93.63-62.43h250.32a197.79,197.79,0,0,0,3.33-35.18C2188.76,245.31,2119,167.62,2020.77,167.62Zm-87,144.08c10-42.49,41.16-67.06,87-67.06,35.85,0,71.7,19.26,82.33,67.06Z"/>
            <path class="cls-3"
                  d="M2710.74,271.2c0-17.93,17.26-27.22,38.51-27.22,24.56,0,43.15,12.61,53.11,33.86l73-39.83c-25.89-45.83-72.37-70.39-126.15-70.39-68.4,0-126.16,37.85-126.16,105.57,0,116.86,171.3,90.31,171.3,138.78,0,19.25-18.59,28.56-45.81,28.56-33.2,0-55.78-15.95-65.07-43.17l-74.36,41.83c23.9,51.13,73,79,139.43,79C2819.63,518.2,2882,483.67,2882,412,2882,289.79,2710.74,320.34,2710.74,271.2Z"/>
            <rect class="cls-3" x="1401.55" y="218.08" width="82.33" height="290.83"/>
            <path class="cls-3"
                  d="M1182,164.43v9.78h-43.37V260H1182V507.88h88.17V260h72.3v-85.8h-72.3v-9.78a47.79,47.79,0,0,1,47.73-47.73h38.09V28.53h-38.09C1242.91,28.53,1182,89.49,1182,164.43Z"/>
        </g>
    </g>
</svg>