<svg xmlns="http://www.w3.org/2000/svg" xmlns:xlink="http://www.w3.org/1999/xlink" width="244" height="204" viewBox="0 0 244 204">
    <defs>
        <path id="irs67h6c6a" d="M0 186.201L297.994 186.201 297.994 0 0 0z"/>
    </defs>
    <g fill="none" fill-rule="evenodd">
        <g>
            <g>
                <g>
                    <g>
                        <path fill="#001A5C" d="M33.49 186.201L101.838 186.201 101.838 32.859 33.49 32.859z" transform="translate(74 -560) translate(-74 58) translate(0 502) translate(0 17.799)"/>
                        <g transform="translate(74 -560) translate(-74 58) translate(0 502) translate(0 17.799)">
                            <path fill="#FF5E4D" d="M101.848 33.143c0 8.497-15.304 15.384-34.182 15.384S33.484 41.64 33.484 33.143s15.304-15.385 34.182-15.385 34.182 6.888 34.182 15.385"/>
                            <mask id="c218ytp0gb" fill="#fff">
                                <use xlink:href="#irs67h6c6a"/>
                            </mask>
                            <path fill="#00D2B5" d="M53.366 298.146L175.162 298.146 175.162 86.41 53.366 86.41z" mask="url(#c218ytp0gb)"/>
                            <path fill="#FFF" d="M175.162 86.41c0 15.138-27.265 27.41-60.898 27.41s-60.898-12.272-60.898-27.41S80.631 59 114.264 59s60.898 12.272 60.898 27.41" mask="url(#c218ytp0gb)"/>
                            <path fill="#FF5E4D" d="M10.548 345.914L91.003 345.914 91.003 148.601 10.548 148.601z" mask="url(#c218ytp0gb)"/>
                            <path fill="#001A5C" d="M138.415 393.019L204.047 393.019 204.047 90.864 138.415 90.864zM91.003 148.601c0 10-18.01 18.106-40.227 18.106-22.217 0-40.228-8.106-40.228-18.106 0-10 18.01-18.106 40.228-18.106 22.217 0 40.227 8.107 40.227 18.106" mask="url(#c218ytp0gb)"/>
                            <path fill="#FF5E4D" d="M204.048 90.864c0 8.157-14.693 14.77-32.817 14.77-18.124 0-32.816-6.613-32.816-14.77s14.692-14.77 32.816-14.77c18.124 0 32.817 6.613 32.817 14.77" mask="url(#c218ytp0gb)"/>
                            <path fill="#FFF" d="M72.284 339.376L116.782 339.376 116.782 134.523 72.284 134.523z" mask="url(#c218ytp0gb)"/>
                            <path fill="#FF5E4D" d="M116.782 134.523c0 5.53-9.961 10.014-22.249 10.014-12.288 0-22.249-4.483-22.249-10.014 0-5.53 9.961-10.014 22.25-10.014 12.287 0 22.248 4.483 22.248 10.014" mask="url(#c218ytp0gb)"/>
                        </g>
                    </g>
                </g>
            </g>
        </g>
    </g>
</svg>
