<svg xmlns="http://www.w3.org/2000/svg" width="90" height="90" viewBox="0 0 90 90">
    <g fill="none" fill-rule="evenodd">
        <g>
            <g>
                <g>
                    <g>
                        <g>
                            <g>
                                <path fill="#00D2B5" d="M39.739 29.324c0 5.752-4.663 10.415-10.415 10.415-5.752 0-10.415-4.663-10.415-10.415 0-5.752 4.663-10.415 10.415-10.415 5.752 0 10.415 4.663 10.415 10.415" transform="translate(-275 -1140) translate(0 921) translate(132 200) translate(143 19) translate(15.517 15.517)"/>
                                <path fill="#001A5C" d="M23.261 8.222L29.324 0 35.387 8.222z" transform="translate(-275 -1140) translate(0 921) translate(132 200) translate(143 19) translate(15.517 15.517)"/>
                                <path fill="#00D2B5" d="M10.115 18.69L8.589 8.589 18.689 10.115z" transform="translate(-275 -1140) translate(0 921) translate(132 200) translate(143 19) translate(15.517 15.517)"/>
                                <path fill="#001A5C" d="M8.222 35.387L0 29.324 8.222 23.261z" transform="translate(-275 -1140) translate(0 921) translate(132 200) translate(143 19) translate(15.517 15.517)"/>
                                <path fill="#00D2B5" d="M18.689 48.533L8.589 50.059 10.115 39.958z" transform="translate(-275 -1140) translate(0 921) translate(132 200) translate(143 19) translate(15.517 15.517)"/>
                                <path fill="#001A5C" d="M35.387 50.426L29.324 58.648 23.261 50.426z" transform="translate(-275 -1140) translate(0 921) translate(132 200) translate(143 19) translate(15.517 15.517)"/>
                                <path fill="#00D2B5" d="M48.533 39.958L50.059 50.059 39.958 48.533z" transform="translate(-275 -1140) translate(0 921) translate(132 200) translate(143 19) translate(15.517 15.517)"/>
                                <path fill="#001A5C" d="M50.426 23.261L58.648 29.324 50.426 35.387z" transform="translate(-275 -1140) translate(0 921) translate(132 200) translate(143 19) translate(15.517 15.517)"/>
                                <path fill="#00D2B5" d="M39.958 10.115L50.059 8.589 48.533 18.689z" transform="translate(-275 -1140) translate(0 921) translate(132 200) translate(143 19) translate(15.517 15.517)"/>
                            </g>
                        </g>
                    </g>
                </g>
            </g>
        </g>
    </g>
</svg>
