<svg xmlns="http://www.w3.org/2000/svg" width="174" height="174" viewBox="0 0 174 174">
    <g fill="none" fill-rule="evenodd">
        <g>
            <g>
                <g>
                    <g>
                        <g>
                            <g>
                                <path fill="#FF5E4D" d="M95 125L127 125 127 0 95 0z" transform="translate(-933 -4439) translate(0 4144) translate(882 295) translate(51) translate(23 28)"/>
                                <path fill="#001A5C" d="M48 125L80 125 80 0 48 0z" transform="translate(-933 -4439) translate(0 4144) translate(882 295) translate(51) translate(23 28)"/>
                                <path fill="#00D2B5" d="M0 125L32 125 32 0 0 0z" transform="translate(-933 -4439) translate(0 4144) translate(882 295) translate(51) translate(23 28)"/>
                            </g>
                            <path d="M0 0H174V174H0z" transform="translate(-933 -4439) translate(0 4144) translate(882 295) translate(51)"/>
                        </g>
                    </g>
                </g>
            </g>
        </g>
    </g>
</svg>
