<svg xmlns="http://www.w3.org/2000/svg" width="110" height="134" viewBox="0 0 110 134">
    <g fill="none" fill-rule="evenodd">
        <g fill="#00D2B5">
            <g>
                <g transform="translate(-1231 -3542) translate(-55 3301) translate(1286 241)">
                    <g>
                        <ellipse cx="2.34" cy="2.351" rx="2.34" ry="2.351"/>
                        <ellipse cx="2.34" cy="2.351" rx="2.34" ry="2.351" transform="translate(0 70.526)"/>
                        <ellipse cx="2.34" cy="2.351" rx="2.34" ry="2.351" transform="translate(58.51)"/>
                        <ellipse cx="2.34" cy="2.351" rx="2.34" ry="2.351" transform="translate(58.51 70.526)"/>
                        <ellipse cx="2.34" cy="2.351" rx="2.34" ry="2.351" transform="translate(0 11.754)"/>
                        <ellipse cx="2.34" cy="2.351" rx="2.34" ry="2.351" transform="translate(0 82.28)"/>
                        <ellipse cx="2.34" cy="2.351" rx="2.34" ry="2.351" transform="translate(58.51 11.754)"/>
                        <ellipse cx="2.34" cy="2.351" rx="2.34" ry="2.351" transform="translate(58.51 82.28)"/>
                        <ellipse cx="2.34" cy="2.351" rx="2.34" ry="2.351" transform="translate(11.702)"/>
                        <ellipse cx="2.34" cy="2.351" rx="2.34" ry="2.351" transform="translate(11.702 70.526)"/>
                        <ellipse cx="2.34" cy="2.351" rx="2.34" ry="2.351" transform="translate(70.213)"/>
                        <ellipse cx="2.34" cy="2.351" rx="2.34" ry="2.351" transform="translate(70.213 70.526)"/>
                        <ellipse cx="2.34" cy="2.351" rx="2.34" ry="2.351" transform="translate(11.702 11.754)"/>
                        <ellipse cx="2.34" cy="2.351" rx="2.34" ry="2.351" transform="translate(11.702 82.28)"/>
                        <ellipse cx="2.34" cy="2.351" rx="2.34" ry="2.351" transform="translate(70.213 11.754)"/>
                        <ellipse cx="2.34" cy="2.351" rx="2.34" ry="2.351" transform="translate(70.213 82.28)"/>
                        <ellipse cx="2.34" cy="2.351" rx="2.34" ry="2.351" transform="translate(23.404)"/>
                        <ellipse cx="2.34" cy="2.351" rx="2.34" ry="2.351" transform="translate(23.404 70.526)"/>
                        <ellipse cx="2.34" cy="2.351" rx="2.34" ry="2.351" transform="translate(81.915)"/>
                        <ellipse cx="2.34" cy="2.351" rx="2.34" ry="2.351" transform="translate(81.915 70.526)"/>
                        <ellipse cx="2.34" cy="2.351" rx="2.34" ry="2.351" transform="translate(23.404 11.754)"/>
                        <ellipse cx="2.34" cy="2.351" rx="2.34" ry="2.351" transform="translate(23.404 82.28)"/>
                        <ellipse cx="2.34" cy="2.351" rx="2.34" ry="2.351" transform="translate(81.915 11.754)"/>
                        <ellipse cx="2.34" cy="2.351" rx="2.34" ry="2.351" transform="translate(81.915 82.28)"/>
                        <ellipse cx="2.34" cy="2.351" rx="2.34" ry="2.351" transform="translate(35.106)"/>
                        <ellipse cx="2.34" cy="2.351" rx="2.34" ry="2.351" transform="translate(35.106 70.526)"/>
                        <ellipse cx="2.34" cy="2.351" rx="2.34" ry="2.351" transform="translate(93.617)"/>
                        <ellipse cx="2.34" cy="2.351" rx="2.34" ry="2.351" transform="translate(93.617 70.526)"/>
                        <ellipse cx="2.34" cy="2.351" rx="2.34" ry="2.351" transform="translate(35.106 11.754)"/>
                        <ellipse cx="2.34" cy="2.351" rx="2.34" ry="2.351" transform="translate(35.106 82.28)"/>
                        <ellipse cx="2.34" cy="2.351" rx="2.34" ry="2.351" transform="translate(93.617 11.754)"/>
                        <ellipse cx="2.34" cy="2.351" rx="2.34" ry="2.351" transform="translate(93.617 82.28)"/>
                        <ellipse cx="2.34" cy="2.351" rx="2.34" ry="2.351" transform="translate(46.809)"/>
                        <ellipse cx="2.34" cy="2.351" rx="2.34" ry="2.351" transform="translate(46.809 70.526)"/>
                        <ellipse cx="2.34" cy="2.351" rx="2.34" ry="2.351" transform="translate(46.809 11.754)"/>
                        <ellipse cx="2.34" cy="2.351" rx="2.34" ry="2.351" transform="translate(46.809 82.28)"/>
                        <ellipse cx="2.34" cy="2.351" rx="2.34" ry="2.351" transform="translate(0 23.509)"/>
                        <ellipse cx="2.34" cy="2.351" rx="2.34" ry="2.351" transform="translate(0 94.035)"/>
                        <ellipse cx="2.34" cy="2.351" rx="2.34" ry="2.351" transform="translate(58.51 23.509)"/>
                        <ellipse cx="2.34" cy="2.351" rx="2.34" ry="2.351" transform="translate(58.51 94.035)"/>
                        <ellipse cx="2.34" cy="2.351" rx="2.34" ry="2.351" transform="translate(11.702 23.509)"/>
                        <ellipse cx="2.34" cy="2.351" rx="2.34" ry="2.351" transform="translate(11.702 94.035)"/>
                        <ellipse cx="2.34" cy="2.351" rx="2.34" ry="2.351" transform="translate(70.213 23.509)"/>
                        <ellipse cx="2.34" cy="2.351" rx="2.34" ry="2.351" transform="translate(70.213 94.035)"/>
                        <ellipse cx="2.34" cy="2.351" rx="2.34" ry="2.351" transform="translate(23.404 23.509)"/>
                        <ellipse cx="2.34" cy="2.351" rx="2.34" ry="2.351" transform="translate(23.404 94.035)"/>
                        <ellipse cx="2.34" cy="2.351" rx="2.34" ry="2.351" transform="translate(81.915 23.509)"/>
                        <ellipse cx="2.34" cy="2.351" rx="2.34" ry="2.351" transform="translate(81.915 94.035)"/>
                        <ellipse cx="2.34" cy="2.351" rx="2.34" ry="2.351" transform="translate(35.106 23.509)"/>
                        <ellipse cx="2.34" cy="2.351" rx="2.34" ry="2.351" transform="translate(35.106 94.035)"/>
                        <ellipse cx="2.34" cy="2.351" rx="2.34" ry="2.351" transform="translate(93.617 23.509)"/>
                        <ellipse cx="2.34" cy="2.351" rx="2.34" ry="2.351" transform="translate(93.617 94.035)"/>
                        <ellipse cx="2.34" cy="2.351" rx="2.34" ry="2.351" transform="translate(46.809 23.509)"/>
                        <ellipse cx="2.34" cy="2.351" rx="2.34" ry="2.351" transform="translate(46.809 94.035)"/>
                        <ellipse cx="2.34" cy="2.351" rx="2.34" ry="2.351" transform="translate(0 35.263)"/>
                        <ellipse cx="2.34" cy="2.351" rx="2.34" ry="2.351" transform="translate(0 105.79)"/>
                        <ellipse cx="2.34" cy="2.351" rx="2.34" ry="2.351" transform="translate(58.51 35.263)"/>
                        <ellipse cx="2.34" cy="2.351" rx="2.34" ry="2.351" transform="translate(58.51 105.79)"/>
                        <ellipse cx="2.34" cy="2.351" rx="2.34" ry="2.351" transform="translate(11.702 35.263)"/>
                        <ellipse cx="2.34" cy="2.351" rx="2.34" ry="2.351" transform="translate(11.702 105.79)"/>
                        <ellipse cx="2.34" cy="2.351" rx="2.34" ry="2.351" transform="translate(70.213 35.263)"/>
                        <ellipse cx="2.34" cy="2.351" rx="2.34" ry="2.351" transform="translate(70.213 105.79)"/>
                        <ellipse cx="2.34" cy="2.351" rx="2.34" ry="2.351" transform="translate(23.404 35.263)"/>
                        <ellipse cx="2.34" cy="2.351" rx="2.34" ry="2.351" transform="translate(23.404 105.79)"/>
                        <ellipse cx="2.34" cy="2.351" rx="2.34" ry="2.351" transform="translate(81.915 35.263)"/>
                        <ellipse cx="2.34" cy="2.351" rx="2.34" ry="2.351" transform="translate(81.915 105.79)"/>
                        <ellipse cx="2.34" cy="2.351" rx="2.34" ry="2.351" transform="translate(35.106 35.263)"/>
                        <ellipse cx="2.34" cy="2.351" rx="2.34" ry="2.351" transform="translate(35.106 105.79)"/>
                        <ellipse cx="2.34" cy="2.351" rx="2.34" ry="2.351" transform="translate(93.617 35.263)"/>
                        <ellipse cx="2.34" cy="2.351" rx="2.34" ry="2.351" transform="translate(93.617 105.79)"/>
                        <ellipse cx="2.34" cy="2.351" rx="2.34" ry="2.351" transform="translate(46.809 35.263)"/>
                        <ellipse cx="2.34" cy="2.351" rx="2.34" ry="2.351" transform="translate(46.809 105.79)"/>
                        <ellipse cx="2.34" cy="2.351" rx="2.34" ry="2.351" transform="translate(0 47.018)"/>
                        <ellipse cx="2.34" cy="2.351" rx="2.34" ry="2.351" transform="translate(0 117.544)"/>
                        <ellipse cx="2.34" cy="2.351" rx="2.34" ry="2.351" transform="translate(58.51 47.018)"/>
                        <ellipse cx="2.34" cy="2.351" rx="2.34" ry="2.351" transform="translate(58.51 117.544)"/>
                        <ellipse cx="2.34" cy="2.351" rx="2.34" ry="2.351" transform="translate(11.702 47.018)"/>
                        <ellipse cx="2.34" cy="2.351" rx="2.34" ry="2.351" transform="translate(11.702 117.544)"/>
                        <ellipse cx="2.34" cy="2.351" rx="2.34" ry="2.351" transform="translate(70.213 47.018)"/>
                        <ellipse cx="2.34" cy="2.351" rx="2.34" ry="2.351" transform="translate(70.213 117.544)"/>
                        <ellipse cx="2.34" cy="2.351" rx="2.34" ry="2.351" transform="translate(23.404 47.018)"/>
                        <ellipse cx="2.34" cy="2.351" rx="2.34" ry="2.351" transform="translate(23.404 117.544)"/>
                        <ellipse cx="2.34" cy="2.351" rx="2.34" ry="2.351" transform="translate(81.915 47.018)"/>
                        <ellipse cx="2.34" cy="2.351" rx="2.34" ry="2.351" transform="translate(81.915 117.544)"/>
                        <ellipse cx="2.34" cy="2.351" rx="2.34" ry="2.351" transform="translate(35.106 47.018)"/>
                        <ellipse cx="2.34" cy="2.351" rx="2.34" ry="2.351" transform="translate(35.106 117.544)"/>
                        <ellipse cx="2.34" cy="2.351" rx="2.34" ry="2.351" transform="translate(93.617 47.018)"/>
                        <ellipse cx="2.34" cy="2.351" rx="2.34" ry="2.351" transform="translate(93.617 117.544)"/>
                        <ellipse cx="2.34" cy="2.351" rx="2.34" ry="2.351" transform="translate(46.809 47.018)"/>
                        <ellipse cx="2.34" cy="2.351" rx="2.34" ry="2.351" transform="translate(46.809 117.544)"/>
                        <ellipse cx="2.34" cy="2.351" rx="2.34" ry="2.351" transform="translate(0 58.772)"/>
                        <ellipse cx="2.34" cy="2.351" rx="2.34" ry="2.351" transform="translate(58.51 58.772)"/>
                        <ellipse cx="2.34" cy="2.351" rx="2.34" ry="2.351" transform="translate(11.702 58.772)"/>
                        <ellipse cx="2.34" cy="2.351" rx="2.34" ry="2.351" transform="translate(70.213 58.772)"/>
                        <ellipse cx="2.34" cy="2.351" rx="2.34" ry="2.351" transform="translate(23.404 58.772)"/>
                        <ellipse cx="2.34" cy="2.351" rx="2.34" ry="2.351" transform="translate(81.915 58.772)"/>
                        <ellipse cx="2.34" cy="2.351" rx="2.34" ry="2.351" transform="translate(35.106 58.772)"/>
                        <ellipse cx="2.34" cy="2.351" rx="2.34" ry="2.351" transform="translate(93.617 58.772)"/>
                        <ellipse cx="2.34" cy="2.351" rx="2.34" ry="2.351" transform="translate(46.809 58.772)"/>
                    </g>
                    <ellipse cx="2.34" cy="2.351" rx="2.34" ry="2.351" transform="translate(105.32)"/>
                    <ellipse cx="2.34" cy="2.351" rx="2.34" ry="2.351" transform="translate(105.32 70.526)"/>
                    <ellipse cx="2.34" cy="2.351" rx="2.34" ry="2.351" transform="translate(105.32 11.754)"/>
                    <ellipse cx="2.34" cy="2.351" rx="2.34" ry="2.351" transform="translate(105.32 82.28)"/>
                    <ellipse cx="2.34" cy="2.351" rx="2.34" ry="2.351" transform="translate(105.32 23.509)"/>
                    <ellipse cx="2.34" cy="2.351" rx="2.34" ry="2.351" transform="translate(105.32 94.035)"/>
                    <ellipse cx="2.34" cy="2.351" rx="2.34" ry="2.351" transform="translate(105.32 35.263)"/>
                    <ellipse cx="2.34" cy="2.351" rx="2.34" ry="2.351" transform="translate(105.32 105.79)"/>
                    <ellipse cx="2.34" cy="2.351" rx="2.34" ry="2.351" transform="translate(105.32 47.018)"/>
                    <ellipse cx="2.34" cy="2.351" rx="2.34" ry="2.351" transform="translate(105.32 117.544)"/>
                    <ellipse cx="2.34" cy="2.351" rx="2.34" ry="2.351" transform="translate(105.32 58.772)"/>
                    <ellipse cx="2.34" cy="2.351" rx="2.34" ry="2.351" transform="translate(0 129.298)"/>
                    <ellipse cx="2.34" cy="2.351" rx="2.34" ry="2.351" transform="translate(58.51 129.298)"/>
                    <ellipse cx="2.34" cy="2.351" rx="2.34" ry="2.351" transform="translate(11.702 129.298)"/>
                    <ellipse cx="2.34" cy="2.351" rx="2.34" ry="2.351" transform="translate(70.213 129.298)"/>
                    <ellipse cx="2.34" cy="2.351" rx="2.34" ry="2.351" transform="translate(23.404 129.298)"/>
                    <ellipse cx="2.34" cy="2.351" rx="2.34" ry="2.351" transform="translate(81.915 129.298)"/>
                    <ellipse cx="2.34" cy="2.351" rx="2.34" ry="2.351" transform="translate(35.106 129.298)"/>
                    <ellipse cx="2.34" cy="2.351" rx="2.34" ry="2.351" transform="translate(93.617 129.298)"/>
                    <ellipse cx="2.34" cy="2.351" rx="2.34" ry="2.351" transform="translate(46.809 129.298)"/>
                    <ellipse cx="2.34" cy="2.351" rx="2.34" ry="2.351" transform="translate(105.32 129.298)"/>
                </g>
            </g>
        </g>
    </g>
</svg>
