<svg xmlns="http://www.w3.org/2000/svg" xmlns:xlink="http://www.w3.org/1999/xlink" width="967" height="59" viewBox="0 0 967 59">
    <defs>
        <path id="y5ph4893xa" d="M0.305 0.033L48.706 0.033 48.706 49.426 0.305 49.426z"/>
        <path id="wxulgge02c" d="M0 0.31L48.372 0.31 48.372 49.119 0 49.119z"/>
        <path id="i69bkk4pze" d="M0.305 0.033L48.706 0.033 48.706 49.426 0.305 49.426z"/>
        <path id="rmdorigzkg" d="M0 0.31L48.372 0.31 48.372 49.119 0 49.119z"/>
        <path id="bz0nv1dkki" d="M0 0.344L43.582 0.344 43.582 17 0 17z"/>
        <path id="rsbl1np00k" d="M0 0.311L43.582 0.311 43.582 41.822 0 41.822z"/>
        <path id="xzgpqg8qsm" d="M0 0.314L30.546 0.314 30.546 44.577 0 44.577z"/>
        <path id="7tj6vvsawo" d="M0 0.344L43.582 0.344 43.582 17 0 17z"/>
        <path id="8f418rpn0q" d="M0 0.311L43.582 0.311 43.582 41.822 0 41.822z"/>
        <path id="xnn232pgss" d="M0 0.314L30.546 0.314 30.546 44.577 0 44.577z"/>
        <path id="7lvyvdzy7u" d="M148 2L187 2 187 59 148 59z"/>
        <path id="6f7l7f6j0w" d="M0 60L53 60 53 0 0 0z"/>
        <path id="zt9ki8vspy" d="M0 0.155L8.217 0.155 8.217 20.373 0 20.373z"/>
        <path id="jbqf697p7A" d="M0.3 0.31L39.974 0.31 39.974 28.903 0.3 28.903z"/>
        <path id="7w172e9h6C" d="M0 0.111L8.217 0.111 8.217 20.329 0 20.329z"/>
        <path id="4kpd8te8xE" d="M0.3 0.155L39.974 0.155 39.974 28.748 0.3 28.748z"/>
        <path id="q8o0vs4beG" d="M0 60L53 60 53 0 0 0z"/>
    </defs>
    <g fill="none" fill-rule="evenodd">
        <g>
            <g>
                <g transform="translate(-237 -130) translate(-148 58) translate(385 71)">
                    <g>
                        <path fill="#FF5E4D" d="M0 0L0 60 30 30z" transform="translate(0 1)"/>
                        <path fill="#00D2B5" d="M30 30L60 60 60 0z" transform="translate(0 1)"/>
                        <path fill="#FFF" d="M0 60L60 60 60 59.999 30 30z" transform="translate(0 1)"/>
                    </g>
                    <g>
                        <path fill="#00D2B5" d="M0 0L0 59 30 59 30 29.5z" transform="translate(308 1)"/>
                        <path fill="#FF5E4D" d="M29 0L29 29.5 59 59 59 0z" transform="translate(308 1)"/>
                        <path fill="#FFF" d="M29 59L59 59 29 29z" transform="translate(308 1)"/>
                    </g>
                    <g>
                        <g transform="translate(68 1) translate(8 8.264)">
                            <mask id="awoap73nmb" fill="#fff">
                                <use xlink:href="#y5ph4893xa"/>
                            </mask>
                            <path fill="#FF5E4D" d="M40.402.603c-.2-.203-.42-.375-.626-.57l.596.6L.305 41.05c11.072 11.17 29.024 11.17 40.097 0 11.073-11.169 11.073-29.277 0-40.446" mask="url(#awoap73nmb)"/>
                        </g>
                        <g transform="translate(68 1) translate(0 .195)">
                            <mask id="gssj072cqd" fill="#fff">
                                <use xlink:href="#wxulgge02c"/>
                            </mask>
                            <path fill="#FFF" d="M47.776 8.102c-11.112-10.568-28.6-10.396-39.471.57-11.073 11.17-11.073 29.278 0 40.447L48.372 8.703l-.596-.6z" mask="url(#gssj072cqd)"/>
                        </g>
                    </g>
                    <g>
                        <g transform="translate(484 1) translate(8 8.264)">
                            <mask id="0t7b2ry9ef" fill="#fff">
                                <use xlink:href="#i69bkk4pze"/>
                            </mask>
                            <path fill="#FF5E4D" d="M40.402.603c-.2-.203-.42-.375-.626-.57l.596.6L.305 41.05c11.072 11.17 29.024 11.17 40.097 0 11.073-11.169 11.073-29.277 0-40.446" mask="url(#0t7b2ry9ef)"/>
                        </g>
                        <g transform="translate(484 1) translate(0 .195)">
                            <mask id="pt4hf4dy7h" fill="#fff">
                                <use xlink:href="#rmdorigzkg"/>
                            </mask>
                            <path fill="#FFF" d="M47.776 8.102c-11.112-10.568-28.6-10.396-39.471.57-11.073 11.17-11.073 29.278 0 40.447L48.372 8.703l-.596-.6z" mask="url(#pt4hf4dy7h)"/>
                        </g>
                    </g>
                    <g>
                        <g transform="translate(256 1) translate(0 42)">
                            <mask id="o7y27jyokj" fill="#fff">
                                <use xlink:href="#bz0nv1dkki"/>
                            </mask>
                            <path fill="#00D2B5" d="M21.943 2.748H0V17h43.582L31.532.344c-2.894 1.525-6.141 2.404-9.59 2.404" mask="url(#o7y27jyokj)"/>
                        </g>
                        <g transform="translate(256 1)">
                            <mask id="zdpeq559zl" fill="#fff">
                                <use xlink:href="#rsbl1np00k"/>
                            </mask>
                            <path fill="#FF5E4D" d="M43.582 22.211c0-12.095-9.688-21.9-21.64-21.9H0l31.531 41.51c7.135-3.58 12.051-11.004 12.051-19.61" mask="url(#zdpeq559zl)"/>
                        </g>
                        <g transform="translate(256 1)">
                            <mask id="sole6jjein" fill="#fff">
                                <use xlink:href="#xzgpqg8qsm"/>
                            </mask>
                            <path fill="#FFF" d="M30.546 42.263L0 .314v44.263h21.257c3.34 0 6.486-.846 9.289-2.314" mask="url(#sole6jjein)"/>
                        </g>
                    </g>
                    <g>
                        <g transform="translate(549 1) translate(0 42)">
                            <mask id="xcg1jehmsp" fill="#fff">
                                <use xlink:href="#7tj6vvsawo"/>
                            </mask>
                            <path fill="#00D2B5" d="M21.943 2.748H0V17h43.582L31.532.344c-2.894 1.525-6.141 2.404-9.59 2.404" mask="url(#xcg1jehmsp)"/>
                        </g>
                        <g transform="translate(549 1)">
                            <mask id="6oor0izuzr" fill="#fff">
                                <use xlink:href="#8f418rpn0q"/>
                            </mask>
                            <path fill="#FF5E4D" d="M43.582 22.211c0-12.095-9.688-21.9-21.64-21.9H0l31.531 41.51c7.135-3.58 12.051-11.004 12.051-19.61" mask="url(#6oor0izuzr)"/>
                        </g>
                        <g transform="translate(549 1)">
                            <mask id="9r813hztxt" fill="#fff">
                                <use xlink:href="#xnn232pgss"/>
                            </mask>
                            <path fill="#FFF" d="M30.546 42.263L0 .314v44.263h21.257c3.34 0 6.486-.846 9.289-2.314" mask="url(#9r813hztxt)"/>
                        </g>
                    </g>
                    <g>
                        <path fill="#FF5E4D" d="M29 0L29 30 59 0z" transform="translate(601 1)"/>
                        <path fill="#00D2B5" d="M29 59L59 59 29 29z" transform="translate(601 1)"/>
                        <path fill="#FFF" d="M0 59L30 59 30 0 0 0z" transform="translate(601 1)"/>
                    </g>
                    <g>
                        <path fill="#00D2B5" d="M6.592 22.408C6.592 10.033 16.624 0 29 0H0v58h29V44.816c-12.376 0-22.408-10.032-22.408-22.408" transform="translate(668 2)"/>
                        <path fill="#FF5E4D" d="M29 0v45c12.15 0 22-10.073 22-22.5S41.15 0 29 0" transform="translate(668 2)"/>
                        <path fill="#FFF" d="M7 22.5C7 34.927 16.85 45 29 45V0C16.85 0 7 10.074 7 22.5" transform="translate(668 2)"/>
                    </g>
                    <path fill="#FF5E4D" d="M133 2L133 59 148 59 148 58.957 148 2z"/>
                    <mask id="5xg1o3mlyv" fill="#fff">
                        <use xlink:href="#7lvyvdzy7u"/>
                    </mask>
                    <path fill="#FFF" d="M158.536 2H148v56.978h10.536V59h.846C174.707 58.548 187 45.987 187 30.521 187 14.77 174.256 2 158.536 2" mask="url(#5xg1o3mlyv)"/>
                    <g transform="translate(914 1)">
                        <path fill="#FF5E4D" d="M44 29.5C44 35.3 39.299 40 33.5 40S23 35.3 23 29.5C23 23.701 27.701 19 33.5 19S44 23.701 44 29.5"/>
                        <mask id="2qqgqmi8lx" fill="#fff">
                            <use xlink:href="#6f7l7f6j0w"/>
                        </mask>
                        <path fill="#FF5E4D" d="M0 40L23 40 23 19 0 19z" mask="url(#2qqgqmi8lx)"/>
                        <path fill="#00D2B5" d="M24 19L53 19 53 0 24 0zM24 60L53 60 53 41 24 41z" mask="url(#2qqgqmi8lx)"/>
                        <path fill="#FFF" d="M0 19L23 19 23 0 0 0zM0 60L23 60 23 41 0 41z" mask="url(#2qqgqmi8lx)"/>
                    </g>
                    <g>
                        <path fill="#00D2B5" d="M0 0L29.999 60 45 30 29.999 0z" transform="translate(394 1)"/>
                        <path fill="#FF5E4D" d="M60 0L45 30 60 60 90 0.001 90 0z" transform="translate(394 1)"/>
                        <path fill="#FFF" d="M30 0L45.001 30 60 0z" transform="translate(394 1)"/>
                    </g>
                    <path fill="#FF5E4D" d="M727 2L755 30 755 2z"/>
                    <path fill="#FFF" d="M756 59L784 59 756 31zM727 2L727 59 755 59 755 30.5z"/>
                    <g>
                        <path fill="#00D2B5" d="M29 0L0 52 11.069 52 29 19.849 46.93 52 58 52z" transform="translate(792 2)"/>
                        <path fill="#FF5E4D" d="M45.734 52L12.266 52 11.083 52 8 58 16.873 58 41.127 58 50 58 46.916 52z" transform="translate(792 2)"/>
                        <path fill="#FFF" d="M11 52L12.189 52 45.811 52 47 52 29 20z" transform="translate(792 2)"/>
                    </g>
                    <g>
                        <g transform="translate(858 1) translate(0 28.943)">
                            <mask id="j6pfay23rz" fill="#fff">
                                <use xlink:href="#zt9ki8vspy"/>
                            </mask>
                            <path fill="#00D2B5" d="M0 .155C0 7.473 2.739 14.79 8.217 20.373 2.739 14.79 0 7.473 0 .155" mask="url(#j6pfay23rz)"/>
                        </g>
                        <g transform="translate(858 1) translate(7.918 .195)">
                            <mask id="vcowtdn8bB" fill="#fff">
                                <use xlink:href="#jbqf697p7A"/>
                            </mask>
                            <path fill="#FFF" d="M20.137 28.903L39.974 8.684C29.018-2.482 11.255-2.482.3 8.684l19.837 20.219z" mask="url(#vcowtdn8bB)"/>
                        </g>
                        <g transform="translate(858 1) translate(0 8.769)">
                            <mask id="fes893iyfD" fill="#fff">
                                <use xlink:href="#7w172e9h6C"/>
                            </mask>
                            <path fill="#00D2B5" d="M8.217.11C2.739 5.695 0 13.012 0 20.33 0 13.01 2.739 5.694 8.217.11z" mask="url(#fes893iyfD)"/>
                        </g>
                        <g transform="translate(858 1) translate(7.918 28.943)">
                            <mask id="ptrguuhjdF" fill="#fff">
                                <use xlink:href="#4kpd8te8xE"/>
                            </mask>
                            <path fill="#FF5E4D" d="M20.137.155L.3 20.373c10.955 11.166 28.718 11.166 39.674 0L20.137.155z" mask="url(#ptrguuhjdF)"/>
                        </g>
                        <path fill="#FFF" d="M28.054 29.097L8.217 8.88C2.74 14.463 0 21.78 0 29.098s2.74 14.636 8.217 20.219l19.837-20.219z" transform="translate(858 1)"/>
                    </g>
                    <g transform="translate(195)">
                        <path fill="#FF5E4D" d="M44 29.5C44 35.3 39.299 40 33.5 40S23 35.3 23 29.5C23 23.701 27.701 19 33.5 19S44 23.701 44 29.5"/>
                        <mask id="7rua3i7zxH" fill="#fff">
                            <use xlink:href="#q8o0vs4beG"/>
                        </mask>
                        <path fill="#FF5E4D" d="M0 40L23 40 23 19 0 19z" mask="url(#7rua3i7zxH)"/>
                        <path fill="#00D2B5" d="M24 19L53 19 53 0 24 0zM24 60L53 60 53 41 24 41z" mask="url(#7rua3i7zxH)"/>
                        <path fill="#FFF" d="M0 19L23 19 23 0 0 0zM0 60L23 60 23 41 0 41z" mask="url(#7rua3i7zxH)"/>
                    </g>
                </g>
            </g>
        </g>
    </g>
</svg>
