<?xml version="1.0" encoding="UTF-8"?>
<svg width="271px" height="66px" viewBox="0 0 271 66" version="1.1" xmlns="http://www.w3.org/2000/svg" xmlns:xlink="http://www.w3.org/1999/xlink">
    <!-- Generator: Sketch 60 (88103) - https://sketch.com -->
    <title>illustration/alpha/cloud@1,5x</title>
    <desc>Created with Sketch.</desc>
    <defs>
        <polygon id="path-1" points="0.143848229 0.0154071056 22.9980101 0.0154071056 22.9980101 23.3008696 0.143848229 23.3008696"></polygon>
        <polygon id="path-3" points="-1.77635684e-13 0.145987081 22.8399258 0.145987081 22.8399258 23.1561902 -1.77635684e-13 23.1561902"></polygon>
        <polygon id="path-5" points="0.143848229 0.0154071056 22.9980101 0.0154071056 22.9980101 23.3008696 0.143848229 23.3008696"></polygon>
        <polygon id="path-7" points="-1.77635684e-13 0.145987081 22.8399258 0.145987081 22.8399258 23.1561902 -1.77635684e-13 23.1561902"></polygon>
        <polygon id="path-9" points="0 0.162389464 20.578489 0.162389464 20.578489 8.01413545 0 8.01413545"></polygon>
        <polygon id="path-11" points="3.83693077e-13 0.146615422 20.5784418 0.146615422 20.5784418 19.7159335 3.83693077e-13 19.7159335"></polygon>
        <polygon id="path-13" points="2.57571742e-13 0.148017857 14.4230898 0.148017857 14.4230898 21.0146786 2.57571742e-13 21.0146786"></polygon>
        <polygon id="path-15" points="-8.66862138e-13 0.162389464 20.578489 0.162389464 20.578489 8.01413545 -8.66862138e-13 8.01413545"></polygon>
        <polygon id="path-17" points="-186.037099 0.146615422 -165.458658 0.146615422 -165.458658 19.7159335 -186.037099 19.7159335"></polygon>
        <polygon id="path-19" points="-186.037099 0.148017857 -171.61401 0.148017857 -171.61401 21.0146786 -186.037099 21.0146786"></polygon>
        <polygon id="path-21" points="123.237774 0.942857143 141.652614 0.942857143 141.652614 27.8142857 123.237774 27.8142857"></polygon>
        <polygon id="path-23" points="0 28.2857143 25.0252951 28.2857143 25.0252951 0 0 0"></polygon>
        <polygon id="path-25" points="-8.06466005e-13 0.0730410932 3.87979792 0.0730410932 3.87979792 9.60452333 -8.06466005e-13 9.60452333"></polygon>
        <polygon id="path-27" points="0.141430643 0.146034634 18.8747873 0.146034634 18.8747873 13.6255877 0.141430643 13.6255877"></polygon>
        <polygon id="path-29" points="-8.06466005e-13 0.0521416398 3.87979792 0.0521416398 3.87979792 9.58362388 -8.06466005e-13 9.58362388"></polygon>
        <polygon id="path-31" points="0.141430643 0.0730410932 18.8747873 0.0730410932 18.8747873 13.5525466 0.141430643 13.5525466"></polygon>
        <polygon id="path-33" points="0 28.2857143 25.0252951 28.2857143 25.0252951 0 0 0"></polygon>
    </defs>
    <g id="Mobile" stroke="none" stroke-width="1" fill="none" fill-rule="evenodd">
        <g id="2.0.0.2---Modern-Workplace" transform="translate(-48.000000, -152.000000)">
            <g id="illustration/alpha/modern-workplace-mobile" transform="translate(48.000000, 152.000000)">
                <g id="Group-4" stroke-width="1" fill-rule="evenodd" transform="translate(53.355818, 0.471429)">
                    <polygon id="Fill-1" fill="#FF5E4D" points="0 0 0 28.2857143 14.1652614 14.1429819"></polygon>
                    <polygon id="Fill-2" fill="#00D2B5" points="14.1652614 14.1429819 28.3305228 28.2857143 28.3305228 0"></polygon>
                    <polygon id="Fill-3" fill="#FFFFFF" points="0 28.2857143 28.3305228 28.2857143 28.3305228 28.2854648 14.1652614 14.1428571"></polygon>
                </g>
                <g id="Group-4" stroke-width="1" fill-rule="evenodd" transform="translate(198.785835, 0.471429)">
                    <polygon id="Fill-1" fill="#00D2B5" points="0 0 0 27.8142857 14.1652614 27.8142857 14.1652614 13.9072655"></polygon>
                    <polygon id="Fill-2" fill="#FF5E4D" points="13.693086 0 13.693086 13.9072655 27.8583474 27.8142857 27.8583474 0"></polygon>
                    <polygon id="Fill-3" fill="#FFFFFF" points="13.693086 27.8142857 27.8583474 27.8142857 13.693086 13.6714286"></polygon>
                </g>
                <g id="Group-7" stroke-width="1" fill-rule="evenodd" transform="translate(85.463744, 0.471429)">
                    <g id="Group-3" transform="translate(3.777403, 3.896000)">
                        <mask id="mask-2" fill="white">
                            <use xlink:href="#path-1"></use>
                        </mask>
                        <g id="Clip-2"></g>
                        <path d="M19.0769005,0.284318161 C18.9819933,0.188737043 18.8783508,0.107421764 18.7813187,0.0154071056 L19.0624992,0.298584 L0.143848229,19.3518001 C5.37201012,24.6173211 13.8485025,24.6173211 19.0769005,19.3518001 C24.3052985,14.0865169 24.3052985,5.54983916 19.0769005,0.284318161" id="Fill-1" fill="#FF5E4D" mask="url(#mask-2)"></path>
                    </g>
                    <g id="Group-6" transform="translate(0.000000, 0.091777)">
                        <mask id="mask-4" fill="white">
                            <use xlink:href="#path-3"></use>
                        </mask>
                        <g id="Clip-5"></g>
                        <path d="M22.5587454,3.81955938 C17.3116965,-1.16254696 9.05452951,-1.08123168 3.92127487,4.08847043 C-1.3071231,9.35399143 -1.3071231,17.8906692 3.92127487,23.1561902 L22.8399258,4.10273627 L22.5587454,3.81955938 Z" id="Fill-4" fill="#FFFFFF" mask="url(#mask-4)"></path>
                    </g>
                </g>
                <g id="Group-7-Copy" stroke-width="1" fill-rule="evenodd" transform="translate(42.495784, 37.714286)">
                    <g id="Group-3" transform="translate(3.777403, 3.896000)">
                        <mask id="mask-6" fill="white">
                            <use xlink:href="#path-5"></use>
                        </mask>
                        <g id="Clip-2"></g>
                        <path d="M19.0769005,0.284318161 C18.9819933,0.188737043 18.8783508,0.107421764 18.7813187,0.0154071056 L19.0624992,0.298584 L0.143848229,19.3518001 C5.37201012,24.6173211 13.8485025,24.6173211 19.0769005,19.3518001 C24.3052985,14.0865169 24.3052985,5.54983916 19.0769005,0.284318161" id="Fill-1" fill="#FF5E4D" mask="url(#mask-6)"></path>
                    </g>
                    <g id="Group-6" transform="translate(0.000000, 0.091777)">
                        <mask id="mask-8" fill="white">
                            <use xlink:href="#path-7"></use>
                        </mask>
                        <g id="Clip-5"></g>
                        <path d="M22.5587454,3.81955938 C17.3116965,-1.16254696 9.05452951,-1.08123168 3.92127487,4.08847043 C-1.3071231,9.35399143 -1.3071231,17.8906692 3.92127487,23.1561902 L22.8399258,4.10273627 L22.5587454,3.81955938 Z" id="Fill-4" fill="#FFFFFF" mask="url(#mask-8)"></path>
                    </g>
                </g>
                <g id="Group-10" stroke-width="1" fill-rule="evenodd" transform="translate(166.677909, 0.471429)">
                    <g id="Group-3" transform="translate(0.000000, 19.800000)">
                        <mask id="mask-10" fill="white">
                            <use xlink:href="#path-9"></use>
                        </mask>
                        <g id="Clip-2"></g>
                        <path d="M10.3608499,1.29540911 L-9.4435076e-05,1.29540911 L-9.4435076e-05,8.01413545 L20.578489,8.01413545 L14.8883035,0.162389464 C13.5223002,0.881170714 11.9889106,1.29540911 10.3608499,1.29540911" id="Fill-1" fill="#00D2B5" mask="url(#mask-10)"></path>
                    </g>
                    <g id="Group-6" transform="translate(7.554806, 0.000000)">
                        <mask id="mask-12" fill="white">
                            <use xlink:href="#path-11"></use>
                        </mask>
                        <g id="Clip-5"></g>
                        <path d="M20.5784418,10.4710034 C20.5784418,4.76908048 16.0037707,0.146615422 10.3608027,0.146615422 L-0.000141652614,0.146615422 L14.8882563,19.7159335 C18.2572277,18.0281624 20.5784418,14.5278564 20.5784418,10.4710034" id="Fill-4" fill="#FF5E4D" mask="url(#mask-12)"></path>
                    </g>
                    <g id="Group-9" transform="translate(7.554806, 0.000000)">
                        <mask id="mask-14" fill="white">
                            <use xlink:href="#path-13"></use>
                        </mask>
                        <g id="Clip-8"></g>
                        <path d="M14.4230898,19.9240714 L-4.57419896e-05,0.148017857 L-4.57419896e-05,21.0146786 L10.0371191,21.0146786 C11.6143029,21.0146786 13.099774,20.6159464 14.4230898,19.9240714" id="Fill-7" fill="#FFFFFF" mask="url(#mask-14)"></path>
                    </g>
                </g>
                <g id="Group-10-Copy" stroke-width="1" fill-rule="evenodd" transform="translate(73.187184, 37.714286)">
                    <g id="Group-3" transform="translate(0.000000, 19.800000)">
                        <mask id="mask-16" fill="white">
                            <use xlink:href="#path-15"></use>
                        </mask>
                        <g id="Clip-2"></g>
                        <path d="M10.3608499,1.29540911 L-9.4435076e-05,1.29540911 L-9.4435076e-05,8.01413545 L20.578489,8.01413545 L14.8883035,0.162389464 C13.5223002,0.881170714 11.9889106,1.29540911 10.3608499,1.29540911" id="Fill-1" fill="#00D2B5" mask="url(#mask-16)"></path>
                    </g>
                    <g id="Group-6" transform="translate(186.037099, 0.000000)">
                        <mask id="mask-18" fill="white">
                            <use xlink:href="#path-17"></use>
                        </mask>
                        <g id="Clip-5"></g>
                        <path d="M-165.458658,10.4710034 C-165.458658,4.76908048 -170.033329,0.146615422 -175.676297,0.146615422 L-186.037241,0.146615422 L-171.148843,19.7159335 C-167.779872,18.0281624 -165.458658,14.5278564 -165.458658,10.4710034" id="Fill-4" fill="#FF5E4D" mask="url(#mask-18)"></path>
                    </g>
                    <g id="Group-9" transform="translate(186.037099, 0.000000)">
                        <mask id="mask-20" fill="white">
                            <use xlink:href="#path-19"></use>
                        </mask>
                        <g id="Clip-8"></g>
                        <path d="M-171.61401,19.9240714 L-186.037145,0.148017857 L-186.037145,21.0146786 L-175.99998,21.0146786 C-174.422797,21.0146786 -172.937325,20.6159464 -171.61401,19.9240714" id="Fill-7" fill="#FFFFFF" mask="url(#mask-20)"></path>
                    </g>
                </g>
                <g id="Group-4" stroke-width="1" fill-rule="evenodd" transform="translate(97.740304, 37.714286)">
                    <polygon id="Fill-1" fill="#FF5E4D" points="13.693086 0 13.693086 14.1428571 27.8583474 0"></polygon>
                    <polygon id="Fill-2" fill="#00D2B5" points="13.693086 27.8142857 27.8583474 27.8142857 13.693086 13.6714286"></polygon>
                    <polygon id="Fill-3" fill="#FFFFFF" points="0 27.8142857 14.1652614 27.8142857 14.1652614 0 0 0"></polygon>
                </g>
                <g id="Group-7" stroke-width="1" fill-rule="evenodd" transform="translate(129.376054, 38.185714)">
                    <path d="M3.11260295,10.5637486 C3.11260295,4.72964438 7.84949821,0 13.693086,0 L0,0 L0,27.3428571 L13.693086,27.3428571 L13.693086,21.1274972 C7.84949821,21.1274972 3.11260295,16.398094 3.11260295,10.5637486" id="Fill-1" fill="#00D2B5"></path>
                    <path d="M13.693086,0 L13.693086,21.2142857 C19.4300503,21.2142857 24.0809444,16.4654548 24.0809444,10.6071429 C24.0809444,4.74883088 19.4300503,0 13.693086,0" id="Fill-3" fill="#FF5E4D"></path>
                    <path d="M3.30522766,10.6071429 C3.30522766,16.4654548 7.9558846,21.2142857 13.693086,21.2142857 L13.693086,0 C7.9558846,0 3.30522766,4.74907302 3.30522766,10.6071429" id="Fill-5" fill="#FFFFFF"></path>
                </g>
                <polygon id="Fill-1" fill="#FF5E4D" fill-rule="evenodd" points="116.155143 0.942857143 116.155143 27.8142857 123.237774 27.8142857 123.237774 27.7941413 123.237774 0.942857143"></polygon>
                <mask id="mask-22" fill="white">
                    <use xlink:href="#path-21"></use>
                </mask>
                <g id="Clip-3"></g>
                <path d="M128.212799,0.942857143 L123.237774,0.942857143 L123.237774,27.804095 L128.212799,27.804095 L128.212799,27.8142857 L128.612184,27.8142857 C135.84826,27.6012292 141.652614,21.6797271 141.652614,14.3886436 C141.652614,6.96271124 135.635302,0.942857143 128.212799,0.942857143" id="Fill-2" fill="#FFFFFF" fill-rule="evenodd" mask="url(#mask-22)"></path>
                <g id="Group-9-Copy" stroke-width="1" fill-rule="evenodd" transform="translate(245.531197, 37.714286)">
                    <path d="M20.7757167,13.9072684 C20.7757167,16.6410209 18.555889,18.8571429 15.8178752,18.8571429 C13.0798614,18.8571429 10.8600337,16.6410209 10.8600337,13.9072684 C10.8600337,11.1735158 13.0798614,8.95714286 15.8178752,8.95714286 C18.555889,8.95714286 20.7757167,11.1735158 20.7757167,13.9072684" id="Fill-1" fill="#FF5E4D"></path>
                    <mask id="mask-24" fill="white">
                        <use xlink:href="#path-23"></use>
                    </mask>
                    <g id="Clip-4"></g>
                    <polygon id="Fill-3" fill="#FF5E4D" mask="url(#mask-24)" points="0 18.8571429 10.8600337 18.8571429 10.8600337 8.95714286 0 8.95714286"></polygon>
                    <polygon id="Fill-5" fill="#00D2B5" mask="url(#mask-24)" points="11.3322091 8.95714286 25.0252951 8.95714286 25.0252951 0 11.3322091 0"></polygon>
                    <polygon id="Fill-6" fill="#00D2B5" mask="url(#mask-24)" points="11.3322091 28.2857143 25.0252951 28.2857143 25.0252951 19.3285714 11.3322091 19.3285714"></polygon>
                    <polygon id="Fill-7" fill="#FFFFFF" mask="url(#mask-24)" points="0 8.95714286 10.8600337 8.95714286 10.8600337 0 0 0"></polygon>
                    <polygon id="Fill-8" fill="#FFFFFF" mask="url(#mask-24)" points="0 28.2857143 10.8600337 28.2857143 10.8600337 19.3285714 0 19.3285714"></polygon>
                </g>
                <g id="Group-4" stroke-width="1" fill-rule="evenodd" transform="translate(0.000000, 37.714286)">
                    <polygon id="Fill-1" fill="#00D2B5" points="0 0 14.1650116 28.2857143 21.2478921 14.1429819 14.1650116 0"></polygon>
                    <polygon id="Fill-2" fill="#FF5E4D" points="28.330606 0 21.2478921 14.1429819 28.330606 28.2857143 42.4957841 0.000498932209 42.4957841 0"></polygon>
                    <polygon id="Fill-3" fill="#FFFFFF" points="14.1652614 0 21.2481419 14.1428571 28.3305228 0"></polygon>
                </g>
                <polygon id="Fill-1" fill="#FF5E4D" fill-rule="evenodd" points="157.234401 38.1857143 170.455312 51.3857143 170.455312 38.1857143"></polygon>
                <polygon id="Fill-2" fill="#FFFFFF" fill-rule="evenodd" points="170.927487 65.0571429 184.148398 65.0571429 170.927487 51.8571429"></polygon>
                <polygon id="Fill-3" fill="#FFFFFF" fill-rule="evenodd" points="157.234401 38.1857143 157.234401 65.0571429 170.455312 65.0571429 170.455312 51.6215471"></polygon>
                <g id="Group-4" stroke-width="1" fill-rule="evenodd" transform="translate(187.925801, 38.185714)">
                    <polygon id="Fill-1" fill="#00D2B5" points="13.6929656 0 0 24.5142857 5.22670338 24.5142857 13.6929656 9.35734262 22.1592277 24.5142857 27.386172 24.5142857"></polygon>
                    <polygon id="Fill-2" fill="#FF5E4D" points="21.5942679 24.5142857 5.79190413 24.5142857 5.23321647 24.5142857 3.77740304 27.3428571 7.96719943 27.3428571 19.4189726 27.3428571 23.608769 27.3428571 22.1527148 24.5142857"></polygon>
                    <polygon id="Fill-3" fill="#FFFFFF" points="5.19392917 24.5142857 5.75521934 24.5142857 21.6309527 24.5142857 22.1922428 24.5142857 13.693086 9.42857143"></polygon>
                </g>
                <g id="Group-15" stroke-width="1" fill-rule="evenodd" transform="translate(219.089376, 37.714286)">
                    <g id="Group-3" transform="translate(0.000000, 13.644323)">
                        <mask id="mask-26" fill="white">
                            <use xlink:href="#path-25"></use>
                        </mask>
                        <g id="Clip-2"></g>
                        <path d="M-2.33653794e-05,0.0730410932 C-2.33653794e-05,3.52275861 1.2932504,6.97271389 3.87979792,9.60452333 C1.2932504,6.97247612 -2.33653794e-05,3.52275861 -2.33653794e-05,0.0730410932" id="Fill-1" fill="#00D2B5" mask="url(#mask-26)"></path>
                    </g>
                    <g id="Group-6" transform="translate(3.738461, 0.091777)">
                        <mask id="mask-28" fill="white">
                            <use xlink:href="#path-27"></use>
                        </mask>
                        <g id="Clip-5"></g>
                        <path d="M9.50814402,13.6255877 L18.8748574,4.09410544 C13.7015287,-1.16998897 5.31452569,-1.16998897 0.141430643,4.09410544 L9.50814402,13.6255877 Z" id="Fill-4" fill="#FFFFFF" mask="url(#mask-28)"></path>
                    </g>
                    <g id="Group-9" transform="translate(0.000000, 4.133764)">
                        <mask id="mask-30" fill="white">
                            <use xlink:href="#path-29"></use>
                        </mask>
                        <g id="Clip-8"></g>
                        <path d="M3.87979792,0.0521416398 L3.87979792,0.0521416398 C1.2932504,2.68418884 -2.33653794e-05,6.13390636 -2.33653794e-05,9.58362388 C-2.33653794e-05,6.13390636 1.2932504,2.68418884 3.87979792,0.0521416398 Z" id="Fill-7" fill="#00D2B5" mask="url(#mask-30)"></path>
                    </g>
                    <g id="Group-12" transform="translate(3.738461, 13.644323)">
                        <mask id="mask-32" fill="white">
                            <use xlink:href="#path-31"></use>
                        </mask>
                        <g id="Clip-11"></g>
                        <path d="M9.50814402,0.0730410932 L0.141430643,9.60452333 C5.31452569,14.8686177 13.7015287,14.8686177 18.8748574,9.60452333 L9.50814402,0.0730410932 Z" id="Fill-10" fill="#FF5E4D" mask="url(#mask-32)"></path>
                    </g>
                    <path d="M13.2466048,13.7173646 L13.2466048,13.7173646 L3.87989138,4.18588234 L3.87989138,4.1861201 C1.29334386,6.81792954 7.00961384e-05,10.2676471 7.00961384e-05,13.7173646 C7.00961384e-05,17.1670821 1.29334386,20.6167996 3.87989138,23.2488468 L13.2466048,13.7173646 Z" id="Fill-13" fill="#FFFFFF"></path>
                </g>
                <g id="Group-9" stroke-width="1" fill-rule="evenodd" transform="translate(145.430017, 0.000000)">
                    <path d="M20.7757167,13.9072684 C20.7757167,16.6410209 18.555889,18.8571429 15.8178752,18.8571429 C13.0798614,18.8571429 10.8600337,16.6410209 10.8600337,13.9072684 C10.8600337,11.1735158 13.0798614,8.95714286 15.8178752,8.95714286 C18.555889,8.95714286 20.7757167,11.1735158 20.7757167,13.9072684" id="Fill-1" fill="#FF5E4D"></path>
                    <mask id="mask-34" fill="white">
                        <use xlink:href="#path-33"></use>
                    </mask>
                    <g id="Clip-4"></g>
                    <polygon id="Fill-3" fill="#FF5E4D" mask="url(#mask-34)" points="0 18.8571429 10.8600337 18.8571429 10.8600337 8.95714286 0 8.95714286"></polygon>
                    <polygon id="Fill-5" fill="#00D2B5" mask="url(#mask-34)" points="11.3322091 8.95714286 25.0252951 8.95714286 25.0252951 0 11.3322091 0"></polygon>
                    <polygon id="Fill-6" fill="#00D2B5" mask="url(#mask-34)" points="11.3322091 28.2857143 25.0252951 28.2857143 25.0252951 19.3285714 11.3322091 19.3285714"></polygon>
                    <polygon id="Fill-7" fill="#FFFFFF" mask="url(#mask-34)" points="0 8.95714286 10.8600337 8.95714286 10.8600337 0 0 0"></polygon>
                    <polygon id="Fill-8" fill="#FFFFFF" mask="url(#mask-34)" points="0 28.2857143 10.8600337 28.2857143 10.8600337 19.3285714 0 19.3285714"></polygon>
                </g>
            </g>
        </g>
    </g>
</svg>