<svg xmlns="http://www.w3.org/2000/svg" width="183" height="80" viewBox="0 0 183 80">
    <g fill="none" fill-rule="evenodd">
        <g fill-rule="nonzero">
            <g>
                <path fill="#000" d="M95.6 26.3c-7.6-.1-13.8 5.9-13.9 13.5V67.4l7-4V51.5c2 1.5 4.5 2.3 7.1 2.3 7.6.2 13.9-5.9 14.1-13.5.2-7.6-5.9-13.9-13.5-14.1-.3.1-.5.1-.8.1zm0 20.6c-3.8 0-6.9-3.1-6.9-6.9 0-3.8 3.1-6.9 6.9-6.9 3.8 0 6.9 3.1 6.9 6.9.2 3.6-2.6 6.7-6.2 6.9h-.7zm47.9-29.3l7-4.1v39.2h-7V17.6zm-17.4 8.7c-7.6.1-13.7 6.3-13.6 13.9.1 7.6 6.3 13.7 13.9 13.6C134 53.7 140 47.6 140 40c0-7.6-6.1-13.7-13.6-13.8-.1.1-.2.1-.3.1zm0 20.6c-3.8 0-6.9-3.1-6.9-6.9 0-3.8 3.1-6.9 6.9-6.9 3.8 0 6.9 3.1 6.9 6.9.2 3.6-2.6 6.7-6.2 6.9h-.7zm56.5-19.6l-16.4 37.4h-7.5l5.7-12.5-11-24.9h7.6l7.2 16.3 6.9-16.3h7.5z" transform="translate(-617 -1732) translate(617 1732)"/>
                <path fill="#FF3900" d="M59.8 34.6l-14.4 8.3.1-.4V38.6l-.1-.6-.1-.8-.1-.4V36l-.1-.8-.2-.7-.2-.7-.1-.5-.2-.7-.2-.7-.3-.6-.3-.7-.2-.6-.3-.6-.3-.6-.4-.6v-.1l-.4-.6-.4-.6-.4-.6-.4-.6-.5-.6-.1-.1-.5-.6-.5-.4-.6-.6-.6-.5-.6-.5-.7-.5-.7-.5-.8-.6-.8-.6-.6-.4-.9-.7-1.1-.6-.3-.2-1.3-.8-.3-.2-.8-.5L0 0v10.5l14.4 8.3-.4.2-.3.1-.5.2-.6.3-.7.4-.5.3-.7.4-.6.4-.7.5-.3.3-.6.5-.6.5-.6.5-.5.5-.3.3-.5.5-.5.5-.4.5-.4.6-.4.6-.4.6-.4.6-.4.6-.3.6-.3.7-.3.7-.3.7-.3.7v.1l-.2.7-.2.7-.2.8-.2.8v.1l-.2.8-.1.9-.1.9-.1.9-.1 1v.7l-.1 1.1v38l9.1-5.3V57.8l.4.2.3.2.5.3.6.4.7.4.5.3.7.4.7.3.7.3.4.2.7.3.7.3.7.2.7.2.4.1.7.2.7.1.6.1.7.1.7.1H24.9l.7-.1.7-.1.7-.1h.1l.8-.2.8-.2.8-.2.8-.2.8-.3.8-.3.8-.3.9-.4.9-.4.7-.3 1-.5 1.1-.6.3-.2 1.3-.8.3-.2.8-.5 29.1-16.8-9.3-5.2zM22.9 53.4c-7.5 0-13.6-6.1-13.6-13.6s6.1-13.6 13.6-13.6 13.6 6.1 13.6 13.6-6.1 13.6-13.6 13.6z" transform="translate(-617 -1732) translate(617 1732)"/>
            </g>
        </g>
    </g>
</svg>
