<svg xmlns="http://www.w3.org/2000/svg" width="104" height="126" viewBox="0 0 104 126">
    <g fill="none" fill-rule="evenodd">
        <g fill="#001A5C">
            <g>
                <g transform="translate(-852 -313) translate(361 259) translate(491 54)">
                    <g>
                        <ellipse cx="2.213" cy="2.211" rx="2.213" ry="2.211"/>
                        <ellipse cx="2.213" cy="2.211" rx="2.213" ry="2.211" transform="translate(0 66.316)"/>
                        <ellipse cx="2.213" cy="2.211" rx="2.213" ry="2.211" transform="translate(55.32)"/>
                        <ellipse cx="2.213" cy="2.211" rx="2.213" ry="2.211" transform="translate(55.32 66.316)"/>
                        <ellipse cx="2.213" cy="2.211" rx="2.213" ry="2.211" transform="translate(0 11.053)"/>
                        <ellipse cx="2.213" cy="2.211" rx="2.213" ry="2.211" transform="translate(0 77.368)"/>
                        <ellipse cx="2.213" cy="2.211" rx="2.213" ry="2.211" transform="translate(55.32 11.053)"/>
                        <ellipse cx="2.213" cy="2.211" rx="2.213" ry="2.211" transform="translate(55.32 77.368)"/>
                        <ellipse cx="2.213" cy="2.211" rx="2.213" ry="2.211" transform="translate(11.064)"/>
                        <ellipse cx="2.213" cy="2.211" rx="2.213" ry="2.211" transform="translate(11.064 66.316)"/>
                        <ellipse cx="2.213" cy="2.211" rx="2.213" ry="2.211" transform="translate(66.383)"/>
                        <ellipse cx="2.213" cy="2.211" rx="2.213" ry="2.211" transform="translate(66.383 66.316)"/>
                        <ellipse cx="2.213" cy="2.211" rx="2.213" ry="2.211" transform="translate(11.064 11.053)"/>
                        <ellipse cx="2.213" cy="2.211" rx="2.213" ry="2.211" transform="translate(11.064 77.368)"/>
                        <ellipse cx="2.213" cy="2.211" rx="2.213" ry="2.211" transform="translate(66.383 11.053)"/>
                        <ellipse cx="2.213" cy="2.211" rx="2.213" ry="2.211" transform="translate(66.383 77.368)"/>
                        <ellipse cx="2.213" cy="2.211" rx="2.213" ry="2.211" transform="translate(22.128)"/>
                        <ellipse cx="2.213" cy="2.211" rx="2.213" ry="2.211" transform="translate(22.128 66.316)"/>
                        <ellipse cx="2.213" cy="2.211" rx="2.213" ry="2.211" transform="translate(77.447)"/>
                        <ellipse cx="2.213" cy="2.211" rx="2.213" ry="2.211" transform="translate(77.447 66.316)"/>
                        <ellipse cx="2.213" cy="2.211" rx="2.213" ry="2.211" transform="translate(22.128 11.053)"/>
                        <ellipse cx="2.213" cy="2.211" rx="2.213" ry="2.211" transform="translate(22.128 77.368)"/>
                        <ellipse cx="2.213" cy="2.211" rx="2.213" ry="2.211" transform="translate(77.447 11.053)"/>
                        <ellipse cx="2.213" cy="2.211" rx="2.213" ry="2.211" transform="translate(77.447 77.368)"/>
                        <ellipse cx="2.213" cy="2.211" rx="2.213" ry="2.211" transform="translate(33.191)"/>
                        <ellipse cx="2.213" cy="2.211" rx="2.213" ry="2.211" transform="translate(33.191 66.316)"/>
                        <ellipse cx="2.213" cy="2.211" rx="2.213" ry="2.211" transform="translate(88.51)"/>
                        <ellipse cx="2.213" cy="2.211" rx="2.213" ry="2.211" transform="translate(88.51 66.316)"/>
                        <ellipse cx="2.213" cy="2.211" rx="2.213" ry="2.211" transform="translate(33.191 11.053)"/>
                        <ellipse cx="2.213" cy="2.211" rx="2.213" ry="2.211" transform="translate(33.191 77.368)"/>
                        <ellipse cx="2.213" cy="2.211" rx="2.213" ry="2.211" transform="translate(88.51 11.053)"/>
                        <ellipse cx="2.213" cy="2.211" rx="2.213" ry="2.211" transform="translate(88.51 77.368)"/>
                        <ellipse cx="2.213" cy="2.211" rx="2.213" ry="2.211" transform="translate(44.255)"/>
                        <ellipse cx="2.213" cy="2.211" rx="2.213" ry="2.211" transform="translate(44.255 66.316)"/>
                        <ellipse cx="2.213" cy="2.211" rx="2.213" ry="2.211" transform="translate(44.255 11.053)"/>
                        <ellipse cx="2.213" cy="2.211" rx="2.213" ry="2.211" transform="translate(44.255 77.368)"/>
                        <ellipse cx="2.213" cy="2.211" rx="2.213" ry="2.211" transform="translate(0 22.105)"/>
                        <ellipse cx="2.213" cy="2.211" rx="2.213" ry="2.211" transform="translate(0 88.421)"/>
                        <ellipse cx="2.213" cy="2.211" rx="2.213" ry="2.211" transform="translate(55.32 22.105)"/>
                        <ellipse cx="2.213" cy="2.211" rx="2.213" ry="2.211" transform="translate(55.32 88.421)"/>
                        <ellipse cx="2.213" cy="2.211" rx="2.213" ry="2.211" transform="translate(11.064 22.105)"/>
                        <ellipse cx="2.213" cy="2.211" rx="2.213" ry="2.211" transform="translate(11.064 88.421)"/>
                        <ellipse cx="2.213" cy="2.211" rx="2.213" ry="2.211" transform="translate(66.383 22.105)"/>
                        <ellipse cx="2.213" cy="2.211" rx="2.213" ry="2.211" transform="translate(66.383 88.421)"/>
                        <ellipse cx="2.213" cy="2.211" rx="2.213" ry="2.211" transform="translate(22.128 22.105)"/>
                        <ellipse cx="2.213" cy="2.211" rx="2.213" ry="2.211" transform="translate(22.128 88.421)"/>
                        <ellipse cx="2.213" cy="2.211" rx="2.213" ry="2.211" transform="translate(77.447 22.105)"/>
                        <ellipse cx="2.213" cy="2.211" rx="2.213" ry="2.211" transform="translate(77.447 88.421)"/>
                        <ellipse cx="2.213" cy="2.211" rx="2.213" ry="2.211" transform="translate(33.191 22.105)"/>
                        <ellipse cx="2.213" cy="2.211" rx="2.213" ry="2.211" transform="translate(33.191 88.421)"/>
                        <ellipse cx="2.213" cy="2.211" rx="2.213" ry="2.211" transform="translate(88.51 22.105)"/>
                        <ellipse cx="2.213" cy="2.211" rx="2.213" ry="2.211" transform="translate(88.51 88.421)"/>
                        <ellipse cx="2.213" cy="2.211" rx="2.213" ry="2.211" transform="translate(44.255 22.105)"/>
                        <ellipse cx="2.213" cy="2.211" rx="2.213" ry="2.211" transform="translate(44.255 88.421)"/>
                        <ellipse cx="2.213" cy="2.211" rx="2.213" ry="2.211" transform="translate(0 33.158)"/>
                        <ellipse cx="2.213" cy="2.211" rx="2.213" ry="2.211" transform="translate(0 99.474)"/>
                        <ellipse cx="2.213" cy="2.211" rx="2.213" ry="2.211" transform="translate(55.32 33.158)"/>
                        <ellipse cx="2.213" cy="2.211" rx="2.213" ry="2.211" transform="translate(55.32 99.474)"/>
                        <ellipse cx="2.213" cy="2.211" rx="2.213" ry="2.211" transform="translate(11.064 33.158)"/>
                        <ellipse cx="2.213" cy="2.211" rx="2.213" ry="2.211" transform="translate(11.064 99.474)"/>
                        <ellipse cx="2.213" cy="2.211" rx="2.213" ry="2.211" transform="translate(66.383 33.158)"/>
                        <ellipse cx="2.213" cy="2.211" rx="2.213" ry="2.211" transform="translate(66.383 99.474)"/>
                        <ellipse cx="2.213" cy="2.211" rx="2.213" ry="2.211" transform="translate(22.128 33.158)"/>
                        <ellipse cx="2.213" cy="2.211" rx="2.213" ry="2.211" transform="translate(22.128 99.474)"/>
                        <ellipse cx="2.213" cy="2.211" rx="2.213" ry="2.211" transform="translate(77.447 33.158)"/>
                        <ellipse cx="2.213" cy="2.211" rx="2.213" ry="2.211" transform="translate(77.447 99.474)"/>
                        <ellipse cx="2.213" cy="2.211" rx="2.213" ry="2.211" transform="translate(33.191 33.158)"/>
                        <ellipse cx="2.213" cy="2.211" rx="2.213" ry="2.211" transform="translate(33.191 99.474)"/>
                        <ellipse cx="2.213" cy="2.211" rx="2.213" ry="2.211" transform="translate(88.51 33.158)"/>
                        <ellipse cx="2.213" cy="2.211" rx="2.213" ry="2.211" transform="translate(88.51 99.474)"/>
                        <ellipse cx="2.213" cy="2.211" rx="2.213" ry="2.211" transform="translate(44.255 33.158)"/>
                        <ellipse cx="2.213" cy="2.211" rx="2.213" ry="2.211" transform="translate(44.255 99.474)"/>
                        <ellipse cx="2.213" cy="2.211" rx="2.213" ry="2.211" transform="translate(0 44.21)"/>
                        <ellipse cx="2.213" cy="2.211" rx="2.213" ry="2.211" transform="translate(0 110.526)"/>
                        <ellipse cx="2.213" cy="2.211" rx="2.213" ry="2.211" transform="translate(55.32 44.21)"/>
                        <ellipse cx="2.213" cy="2.211" rx="2.213" ry="2.211" transform="translate(55.32 110.526)"/>
                        <ellipse cx="2.213" cy="2.211" rx="2.213" ry="2.211" transform="translate(11.064 44.21)"/>
                        <ellipse cx="2.213" cy="2.211" rx="2.213" ry="2.211" transform="translate(11.064 110.526)"/>
                        <ellipse cx="2.213" cy="2.211" rx="2.213" ry="2.211" transform="translate(66.383 44.21)"/>
                        <ellipse cx="2.213" cy="2.211" rx="2.213" ry="2.211" transform="translate(66.383 110.526)"/>
                        <ellipse cx="2.213" cy="2.211" rx="2.213" ry="2.211" transform="translate(22.128 44.21)"/>
                        <ellipse cx="2.213" cy="2.211" rx="2.213" ry="2.211" transform="translate(22.128 110.526)"/>
                        <ellipse cx="2.213" cy="2.211" rx="2.213" ry="2.211" transform="translate(77.447 44.21)"/>
                        <ellipse cx="2.213" cy="2.211" rx="2.213" ry="2.211" transform="translate(77.447 110.526)"/>
                        <ellipse cx="2.213" cy="2.211" rx="2.213" ry="2.211" transform="translate(33.191 44.21)"/>
                        <ellipse cx="2.213" cy="2.211" rx="2.213" ry="2.211" transform="translate(33.191 110.526)"/>
                        <ellipse cx="2.213" cy="2.211" rx="2.213" ry="2.211" transform="translate(88.51 44.21)"/>
                        <ellipse cx="2.213" cy="2.211" rx="2.213" ry="2.211" transform="translate(88.51 110.526)"/>
                        <ellipse cx="2.213" cy="2.211" rx="2.213" ry="2.211" transform="translate(44.255 44.21)"/>
                        <ellipse cx="2.213" cy="2.211" rx="2.213" ry="2.211" transform="translate(44.255 110.526)"/>
                        <ellipse cx="2.213" cy="2.211" rx="2.213" ry="2.211" transform="translate(0 55.263)"/>
                        <ellipse cx="2.213" cy="2.211" rx="2.213" ry="2.211" transform="translate(55.32 55.263)"/>
                        <ellipse cx="2.213" cy="2.211" rx="2.213" ry="2.211" transform="translate(11.064 55.263)"/>
                        <ellipse cx="2.213" cy="2.211" rx="2.213" ry="2.211" transform="translate(66.383 55.263)"/>
                        <ellipse cx="2.213" cy="2.211" rx="2.213" ry="2.211" transform="translate(22.128 55.263)"/>
                        <ellipse cx="2.213" cy="2.211" rx="2.213" ry="2.211" transform="translate(77.447 55.263)"/>
                        <ellipse cx="2.213" cy="2.211" rx="2.213" ry="2.211" transform="translate(33.191 55.263)"/>
                        <ellipse cx="2.213" cy="2.211" rx="2.213" ry="2.211" transform="translate(88.51 55.263)"/>
                        <ellipse cx="2.213" cy="2.211" rx="2.213" ry="2.211" transform="translate(44.255 55.263)"/>
                    </g>
                    <ellipse cx="2.213" cy="2.211" rx="2.213" ry="2.211" transform="translate(99.574)"/>
                    <ellipse cx="2.213" cy="2.211" rx="2.213" ry="2.211" transform="translate(99.574 66.316)"/>
                    <ellipse cx="2.213" cy="2.211" rx="2.213" ry="2.211" transform="translate(99.574 11.053)"/>
                    <ellipse cx="2.213" cy="2.211" rx="2.213" ry="2.211" transform="translate(99.574 77.368)"/>
                    <ellipse cx="2.213" cy="2.211" rx="2.213" ry="2.211" transform="translate(99.574 22.105)"/>
                    <ellipse cx="2.213" cy="2.211" rx="2.213" ry="2.211" transform="translate(99.574 88.421)"/>
                    <ellipse cx="2.213" cy="2.211" rx="2.213" ry="2.211" transform="translate(99.574 33.158)"/>
                    <ellipse cx="2.213" cy="2.211" rx="2.213" ry="2.211" transform="translate(99.574 99.474)"/>
                    <ellipse cx="2.213" cy="2.211" rx="2.213" ry="2.211" transform="translate(99.574 44.21)"/>
                    <ellipse cx="2.213" cy="2.211" rx="2.213" ry="2.211" transform="translate(99.574 110.526)"/>
                    <ellipse cx="2.213" cy="2.211" rx="2.213" ry="2.211" transform="translate(99.574 55.263)"/>
                    <ellipse cx="2.213" cy="2.211" rx="2.213" ry="2.211" transform="translate(0 121.579)"/>
                    <ellipse cx="2.213" cy="2.211" rx="2.213" ry="2.211" transform="translate(55.32 121.579)"/>
                    <ellipse cx="2.213" cy="2.211" rx="2.213" ry="2.211" transform="translate(11.064 121.579)"/>
                    <ellipse cx="2.213" cy="2.211" rx="2.213" ry="2.211" transform="translate(66.383 121.579)"/>
                    <ellipse cx="2.213" cy="2.211" rx="2.213" ry="2.211" transform="translate(22.128 121.579)"/>
                    <ellipse cx="2.213" cy="2.211" rx="2.213" ry="2.211" transform="translate(77.447 121.579)"/>
                    <ellipse cx="2.213" cy="2.211" rx="2.213" ry="2.211" transform="translate(33.191 121.579)"/>
                    <ellipse cx="2.213" cy="2.211" rx="2.213" ry="2.211" transform="translate(88.51 121.579)"/>
                    <ellipse cx="2.213" cy="2.211" rx="2.213" ry="2.211" transform="translate(44.255 121.579)"/>
                    <ellipse cx="2.213" cy="2.211" rx="2.213" ry="2.211" transform="translate(99.574 121.579)"/>
                </g>
            </g>
        </g>
    </g>
</svg>
