<svg xmlns="http://www.w3.org/2000/svg" width="1124" height="843" viewBox="0 0 1124 843">
    <g fill="none" fill-rule="evenodd" opacity=".05">
        <g fill="#00D2B5">
            <g transform="translate(-158 -26) translate(158 26)">
                <path d="M100 0h81c55.228 0 100 44.772 100 100v181H0V100C0 44.772 44.772 0 100 0z" transform="rotate(90 140.5 140.5)"/>
                <path fill="#001A5C" d="M0 0L281 281 0 281z" transform="matrix(1 0 0 -1 0 562)"/>
                <g>
                    <path fill="#FF5E4D" d="M281 .001C280.371 155.301 154.804 281 0 281V0z" transform="rotate(180 140.5 421.5) matrix(0 -1 1 0 0 281)"/>
                </g>
                <path fill="#FF5E4D" d="M0 0L281 281 0 281z" transform="rotate(-90 281 0)"/>
                <path d="M100 0h81c55.228 0 100 44.772 100 100v181H0V100C0 44.772 44.772 0 100 0z" transform="matrix(-1 0 0 1 562 281)"/>
                <path d="M100 0h81c55.228 0 100 44.772 100 100v181H0V100C0 44.772 44.772 0 100 0z" transform="translate(281 562)"/>
                <path d="M100 0h81c55.228 0 100 44.772 100 100v181H0V100C0 44.772 44.772 0 100 0z" transform="rotate(90 421.5 421.5)"/>
                <path d="M100 0h81c55.228 0 100 44.772 100 100v181H0V100C0 44.772 44.772 0 100 0z" transform="matrix(0 -1 -1 0 843 562)"/>
                <circle cx="140.5" cy="140.5" r="140.5" fill="#FF5E4D" transform="rotate(180 421.5 421.5)"/>
                <path fill="#001A5C" d="M100 0h81c55.228 0 100 44.772 100 100v181H0V100C0 44.772 44.772 0 100 0z" transform="translate(843)"/>
                <path d="M100 0h81c55.228 0 100 44.772 100 100v181H0V100C0 44.772 44.772 0 100 0z" transform="matrix(1 0 0 -1 843 562)"/>
                <path fill="#001A5C" d="M0 0L281 281 0 281z" transform="rotate(-90 843 0)"/>
            </g>
        </g>
    </g>
</svg>
