<svg xmlns="http://www.w3.org/2000/svg" width="24" height="24" viewBox="0 0 24 24">
    <g fill="none" fill-rule="evenodd">
        <g>
            <g>
                <g transform="translate(-1072 -176) translate(1072 176)">
                    <circle cx="12" cy="12" r="12" fill="#CACCD8"/>
                    <path fill="#FFF" d="M12.002 8.437c-1.987 0-3.59 1.603-3.59 3.59 0 1.987 1.603 3.59 3.59 3.59 1.986 0 3.588-1.603 3.588-3.59 0-1.987-1.602-3.59-3.588-3.59zm0 5.923c-1.284 0-2.334-1.046-2.334-2.333 0-1.287 1.047-2.334 2.334-2.334 1.286 0 2.333 1.047 2.333 2.334 0 1.287-1.05 2.333-2.333 2.333zm4.572-6.07c0 .466-.375.838-.837.838-.465 0-.837-.375-.837-.838 0-.462.375-.837.837-.837.462 0 .837.375.837.837zm2.377.85c-.053-1.121-.31-2.115-1.13-2.933-.82-.819-1.812-1.075-2.934-1.131-1.155-.066-4.619-.066-5.774 0-1.119.053-2.112.31-2.933 1.128-.822.818-1.075 1.812-1.13 2.933-.066 1.156-.066 4.62 0 5.776.052 1.122.308 2.115 1.13 2.934.821.818 1.811 1.074 2.933 1.13 1.155.066 4.619.066 5.774 0 1.122-.053 2.115-.309 2.933-1.13.818-.819 1.075-1.812 1.13-2.934.066-1.156.066-4.617 0-5.773zm-1.493 7.013c-.244.613-.715 1.084-1.33 1.331-.922.366-3.108.281-4.126.281-1.019 0-3.208.082-4.126-.28-.612-.244-1.084-.716-1.33-1.332-.366-.921-.282-3.108-.282-4.126 0-1.019-.081-3.209.281-4.127.244-.612.715-1.084 1.33-1.33.922-.366 3.108-.282 4.127-.282 1.018 0 3.207-.081 4.125.281.613.244 1.084.716 1.33 1.33.366.922.282 3.11.282 4.128 0 1.018.084 3.208-.281 4.126z"/>
                </g>
            </g>
        </g>
    </g>
</svg>
