<svg xmlns="http://www.w3.org/2000/svg" width="12" height="12" viewBox="0 0 12 12">
    <g fill="none" fill-rule="evenodd">
        <g>
            <g>
                <g>
                    <g>
                        <g>
                            <path d="M0 0L12 0 12 12 0 12z" transform="translate(-457 -23) translate(340 21) translate(117 2) rotate(90 6 6)"/>
                            <path fill="#001A5C" d="M4.251 2.911c-.227.227-.227.596 0 .823L6.51 6l-2.26 2.266c-.227.227-.227.596 0 .823.227.227.596.227.823 0l2.381-2.382c.39-.39.39-1.024 0-1.414L5.074 2.91c-.227-.227-.596-.227-.823 0z" transform="translate(-457 -23) translate(340 21) translate(117 2) rotate(90 6 6)"/>
                        </g>
                    </g>
                </g>
            </g>
        </g>
    </g>
</svg>
