<svg xmlns="http://www.w3.org/2000/svg" width="90" height="90" viewBox="0 0 90 90">
    <g fill="none" fill-rule="evenodd">
        <g>
            <g>
                <g>
                    <g>
                        <g>
                            <g>
                                <g>
                                    <path fill="#00125D" d="M0 45.635L30.248 28.399 0 11.163z" transform="translate(-1075 -1139) translate(0 920) translate(108 69) translate(824 131) translate(143 19) translate(15 16.552)"/>
                                    <path fill="#00D3B5" d="M30.248 28.399L60.497 45.634 60.497 11.163z" transform="translate(-1075 -1139) translate(0 920) translate(108 69) translate(824 131) translate(143 19) translate(15 16.552)"/>
                                    <path fill="#FF5E4B" d="M24.721 11.163L37.442 11.163 31.082.001zM24.721 45.635L31.082 56.798 37.442 45.635z" transform="translate(-1075 -1139) translate(0 920) translate(108 69) translate(824 131) translate(143 19) translate(15 16.552)"/>
                                </g>
                            </g>
                        </g>
                    </g>
                </g>
            </g>
        </g>
    </g>
</svg>
