<svg xmlns="http://www.w3.org/2000/svg" width="24" height="24" viewBox="0 0 24 24">
    <g fill="none" fill-rule="evenodd">
        <g>
            <g>
                <g>
                    <g fill="#CACCD8" transform="translate(-1112 -5834) translate(0 5658) translate(1112 176)">
                        <circle cx="12" cy="12" r="12"/>
                    </g>
                    <g fill="#FFF">
                        <path d="M15.666 1.812c-.184-.677-.727-1.21-1.415-1.392C13.003.091 8 .091 8 .091s-5.003 0-6.251.33C1.06.6.519 1.134.334 1.811 0 3.04 0 5.602 0 5.602s0 2.562.334 3.79c.184.678.727 1.19 1.415 1.37 1.248.33 6.251.33 6.251.33s5.003 0 6.251-.33c.688-.18 1.23-.692 1.415-1.37C16 8.164 16 5.602 16 5.602s0-2.562-.334-3.79zM6.364 7.928V3.276l4.181 2.326-4.181 2.326z" transform="translate(-1112 -5834) translate(0 5658) translate(1112 176) translate(4 6)"/>
                    </g>
                </g>
            </g>
        </g>
    </g>
</svg>
