<svg xmlns="http://www.w3.org/2000/svg" xmlns:xlink="http://www.w3.org/1999/xlink" width="357" height="298" viewBox="0 0 357 298">
    <defs>
        <path id="k2edvo32xa" d="M0 0.212L90.636 0.212 90.636 55.439 0 55.439z"/>
        <path id="n5jixhndzc" d="M0 0.04L43.645 0.04 43.645 229.561 0 229.561z"/>
        <path id="bcnex3dzbe" d="M0.257 0.04L47.248 0.04 47.248 229.561 0.257 229.561z"/>
        <path id="w1w6cwoy9g" d="M0.232 0.268L47.224 0.268 47.224 94.954 0.232 94.954z"/>
        <path id="j7idfg6poi" d="M0.062 0.268L47.054 0.268 47.054 94.954 0.062 94.954z"/>
        <path id="4alm5p25ak" d="M0.158 0.157L47.149 0.157 47.149 211.757 0.158 211.757z"/>
        <path id="r113l272gm" d="M0.258 0.157L47.249 0.157 47.249 211.757 0.258 211.757z"/>
        <path id="0vy3r9mlno" d="M0.048 0.266L47.039 0.266 47.039 269.215 0.048 269.215z"/>
        <path id="pq7ujk6q2q" d="M0.148 0.266L47.139 0.266 47.139 269.215 0.148 269.215z"/>
        <path id="o7wmsdzzhs" d="M0.058 0.037L47.049 0.037 47.049 99.54 0.058 99.54z"/>
        <path id="zgf6rwr4cu" d="M0.158 0.036L47.149 0.036 47.149 99.54 0.158 99.54z"/>
    </defs>
    <g fill="none" fill-rule="evenodd">
        <g>
            <g>
                <g>
                    <g>
                        <g>
                            <g>
                                <path fill="#818181" d="M37.867 158.791zM191.599 266.901L191.599 266.901 191.599 266.901z" transform="translate(-1227 -468) translate(-148 58) translate(1375 410)"/>
                                <g transform="translate(-1227 -468) translate(-148 58) translate(1375 410) translate(0 39.384)">
                                    <mask id="qje1af4hbb" fill="#fff">
                                        <use xlink:href="#k2edvo32xa"/>
                                    </mask>
                                    <path fill="#00D2B5" d="M43.645 55.439L-3.347 27.825 43.645 0.212 90.636 27.825z" mask="url(#qje1af4hbb)"/>
                                </g>
                                <g transform="translate(-1227 -468) translate(-148 58) translate(1375 410) translate(0 67.169)">
                                    <mask id="4b37awypud" fill="#fff">
                                        <use xlink:href="#n5jixhndzc"/>
                                    </mask>
                                    <path fill="#FF5E4D" d="M-3.347 0.04L-3.347 374.466 43.645 402.079 43.645 27.654z" mask="url(#4b37awypud)"/>
                                </g>
                                <g transform="translate(-1227 -468) translate(-148 58) translate(1375 410) translate(43.388 67.169)">
                                    <mask id="u4lwbkr7vf" fill="#fff">
                                        <use xlink:href="#bcnex3dzbe"/>
                                    </mask>
                                    <path fill="#FFF" d="M0.257 402.079L0.257 27.654 47.248 0.04 47.248 374.466z" mask="url(#u4lwbkr7vf)"/>
                                </g>
                                <path fill="#00D2B5" d="M308.901 229.659L261.91 202.045 308.901 174.431 355.893 202.045z" transform="translate(-1227 -468) translate(-148 58) translate(1375 410)"/>
                                <g transform="translate(-1227 -468) translate(-148 58) translate(1375 410) translate(261.678 201.777)">
                                    <mask id="b6suhc63yh" fill="#fff">
                                        <use xlink:href="#w1w6cwoy9g"/>
                                    </mask>
                                    <path fill="#FF5E4D" d="M0.232 0.268L0.232 374.694 47.224 402.307 47.224 27.882z" mask="url(#b6suhc63yh)"/>
                                </g>
                                <g transform="translate(-1227 -468) translate(-148 58) translate(1375 410) translate(308.839 201.777)">
                                    <mask id="aac41ixt0j" fill="#fff">
                                        <use xlink:href="#j7idfg6poi"/>
                                    </mask>
                                    <path fill="#FFF" d="M0.062 402.307L0.062 27.882 47.054 0.268 47.054 374.694z" mask="url(#aac41ixt0j)"/>
                                </g>
                                <path fill="#00D2B5" d="M168.421 112.744L121.429 85.13 168.421 57.517 215.413 85.13z" transform="translate(-1227 -468) translate(-148 58) translate(1375 410)"/>
                                <g transform="translate(-1227 -468) translate(-148 58) translate(1375 410) translate(121.272 84.973)">
                                    <mask id="q5yyahlmgl" fill="#fff">
                                        <use xlink:href="#4alm5p25ak"/>
                                    </mask>
                                    <path fill="#FF5E4D" d="M0.158 0.157L0.158 374.583 47.149 402.196 47.149 27.771z" mask="url(#q5yyahlmgl)"/>
                                </g>
                                <g transform="translate(-1227 -468) translate(-148 58) translate(1375 410) translate(168.164 84.973)">
                                    <mask id="jy4bw25m4n" fill="#fff">
                                        <use xlink:href="#r113l272gm"/>
                                    </mask>
                                    <path fill="#FFF" d="M0.258 402.196L0.258 27.771 47.249 0.157 47.249 374.583z" mask="url(#jy4bw25m4n)"/>
                                </g>
                                <path fill="#00D2B5" d="M214.933 55.394L167.942 27.781 214.933 0.167 261.925 27.781z" transform="translate(-1227 -468) translate(-148 58) translate(1375 410)"/>
                                <g transform="translate(-1227 -468) translate(-148 58) translate(1375 410) translate(167.894 27.515)">
                                    <mask id="vv1g55r4kp" fill="#fff">
                                        <use xlink:href="#0vy3r9mlno"/>
                                    </mask>
                                    <path fill="#FF5E4D" d="M0.048 0.266L0.048 374.691 47.039 402.305 47.039 27.879z" mask="url(#vv1g55r4kp)"/>
                                </g>
                                <g transform="translate(-1227 -468) translate(-148 58) translate(1375 410) translate(214.786 27.515)">
                                    <mask id="ej4jiaucmr" fill="#fff">
                                        <use xlink:href="#pq7ujk6q2q"/>
                                    </mask>
                                    <path fill="#FFF" d="M0.148 402.305L0.148 27.879 47.139 0.266 47.139 374.691z" mask="url(#ej4jiaucmr)"/>
                                </g>
                                <path fill="#00D2B5" d="M121.429 224.841L74.438 197.227 121.429 169.614 168.421 197.227z" transform="translate(-1227 -468) translate(-148 58) translate(1375 410)"/>
                                <g transform="translate(-1227 -468) translate(-148 58) translate(1375 410) translate(74.38 197.19)">
                                    <mask id="ni48og138t" fill="#fff">
                                        <use xlink:href="#o7wmsdzzhs"/>
                                    </mask>
                                    <path fill="#FF5E4D" d="M0.058 0.037L0.058 374.462 47.049 402.076 47.049 27.65z" mask="url(#ni48og138t)"/>
                                </g>
                                <g transform="translate(-1227 -468) translate(-148 58) translate(1375 410) translate(121.272 197.19)">
                                    <mask id="d9goixllnv" fill="#fff">
                                        <use xlink:href="#zgf6rwr4cu"/>
                                    </mask>
                                    <path fill="#FFF" d="M0.158 402.075L0.158 27.65 47.149 0.036 47.149 374.462z" mask="url(#d9goixllnv)"/>
                                </g>
                            </g>
                        </g>
                    </g>
                </g>
            </g>
        </g>
    </g>
</svg>
