<svg xmlns="http://www.w3.org/2000/svg" width="200" height="167" viewBox="0 0 200 167">
    <g fill="none" fill-rule="evenodd">
        <g>
            <g>
                <g>
                    <g>
                        <path fill="#001A5C" d="M102.521 98.631L62.185 140.661 21.849 98.631z" transform="translate(-615 -597) translate(-101 58) matrix(-1 0 0 1 916 539)"/>
                        <path fill="#FFF" d="M62.185 125.121L62.185 167 102.521 98.631z" transform="translate(-615 -597) translate(-101 58) matrix(-1 0 0 1 916 539)"/>
                        <path fill="#FF5E4D" d="M62.185 167L62.185 125.122 21.849 98.631z" transform="translate(-615 -597) translate(-101 58) matrix(-1 0 0 1 916 539)"/>
                        <path fill="#001A5C" d="M182.633 98.631L142.577 140.661 102.521 98.631z" transform="translate(-615 -597) translate(-101 58) matrix(-1 0 0 1 916 539)"/>
                        <path fill="#FF5E4D" d="M142.297 167L142.297 125.122 102.521 98.631z" transform="translate(-615 -597) translate(-101 58) matrix(-1 0 0 1 916 539)"/>
                        <path fill="#FFF" d="M43.307 42.03L21.849 56.268 21.849 98.631 54.902 42.03z" transform="translate(-615 -597) translate(-101 58) matrix(-1 0 0 1 916 539)"/>
                        <path fill="#FF5E4D" d="M0 42.03L0 61.091 21.849 98.631 21.849 56.268 0.462 42.03z" transform="translate(-615 -597) translate(-101 58) matrix(-1 0 0 1 916 539)"/>
                        <path fill="#001A5C" d="M62.185 167L102.521 140.509 102.521 98.631z" transform="translate(-615 -597) translate(-101 58) matrix(-1 0 0 1 916 539)"/>
                        <path fill="#FFF" d="M102.521 140.509L142.297 167 102.521 98.631z" transform="translate(-615 -597) translate(-101 58) matrix(-1 0 0 1 916 539)"/>
                        <path fill="#001A5C" d="M0 98.631L0 121.047 21.849 98.631z" transform="translate(-615 -597) translate(-101 58) matrix(-1 0 0 1 916 539)"/>
                        <path fill="#FF5E4D" d="M0 112.962L0 135.617 21.849 98.631zM0 147.783L0 167 62.185 167 21.878 124.97z" transform="translate(-615 -597) translate(-101 58) matrix(-1 0 0 1 916 539)"/>
                        <path fill="#001A5C" d="M0 135.598L0 154.671 21.849 140.348 21.849 98.631z" transform="translate(-615 -597) translate(-101 58) matrix(-1 0 0 1 916 539)"/>
                        <path fill="#00D2B5" d="M21.849 140.509L62.185 167 21.849 98.631z" transform="translate(-615 -597) translate(-101 58) matrix(-1 0 0 1 916 539)"/>
                        <path fill="#FFF" d="M21.849 98.631L62.185 56.04 102.521 98.631z" transform="translate(-615 -597) translate(-101 58) matrix(-1 0 0 1 916 539)"/>
                        <path fill="#001A5C" d="M54.86 42.03L21.849 98.631 62.185 71.834 62.185 42.03z" transform="translate(-615 -597) translate(-101 58) matrix(-1 0 0 1 916 539)"/>
                        <path fill="#00D2B5" d="M62.185 42.03L62.185 71.834 102.521 98.631 69.51 42.03z" transform="translate(-615 -597) translate(-101 58) matrix(-1 0 0 1 916 539)"/>
                        <path fill="#FFF" d="M0 98.631L21.849 98.631 0 75.654z" transform="translate(-615 -597) translate(-101 58) matrix(-1 0 0 1 916 539)"/>
                        <path fill="#00D2B5" d="M0 84.083L21.849 98.631 0 61.084z" transform="translate(-615 -597) translate(-101 58) matrix(-1 0 0 1 916 539)"/>
                        <path fill="#FFF" d="M123.98 42.03L102.521 56.268 102.521 98.631 135.574 42.03z" transform="translate(-615 -597) translate(-101 58) matrix(-1 0 0 1 916 539)"/>
                        <path fill="#FF5E4D" d="M69.468 42.03L102.521 98.631 102.521 56.268 81.062 42.03z" transform="translate(-615 -597) translate(-101 58) matrix(-1 0 0 1 916 539)"/>
                        <g>
                            <path fill="#FFF" d="M0 26.491L0 68.369 40.336 0z" transform="translate(-615 -597) translate(-101 58) matrix(-1 0 0 1 916 539) translate(142.297 98.63)"/>
                            <path fill="#001A5C" d="M0 68.369L40.336 41.879 40.336 0z" transform="translate(-615 -597) translate(-101 58) matrix(-1 0 0 1 916 539) translate(142.297 98.63)"/>
                            <path fill="#00D2B5" d="M40.336 41.493L57.703 52.678 57.703 28.866 40.336 0z" transform="translate(-615 -597) translate(-101 58) matrix(-1 0 0 1 916 539) translate(142.297 98.63)"/>
                        </g>
                    </g>
                </g>
            </g>
        </g>
    </g>
</svg>
