<svg xmlns="http://www.w3.org/2000/svg" width="200" height="167" viewBox="0 0 200 167">
    <g fill="none" fill-rule="evenodd">
        <g>
            <g>
                <g>
                    <g>
                        <g>
                            <path fill="#00D2B5" d="M52.661 62.205L23.529 45.112 52.661 28.02 81.793 45.112zM82.353 112.641L53.221 95.413 82.456 77.896 111.485 95.413z" transform="translate(-615 -597) translate(-101 58) matrix(-1 0 0 1 916 539) translate(0 35.866)"/>
                            <path fill="#001A5C" d="M53.221 62.424L53.221 95.829 23.529 78.511 23.529 45.393z" transform="translate(-615 -597) translate(-101 58) matrix(-1 0 0 1 916 539) translate(0 35.866)"/>
                            <path fill="#FFF" d="M53.221 62.424L53.221 95.829 82.913 78.511 82.913 45.393z" transform="translate(-615 -597) translate(-101 58) matrix(-1 0 0 1 916 539) translate(0 35.866)"/>
                            <path fill="#00D2B5" d="M0 92.13L0 98.631 23.87 112.641 53.221 95.413 23.765 77.896z" transform="translate(-615 -597) translate(-101 58) matrix(-1 0 0 1 916 539) translate(0 35.866)"/>
                            <path fill="#001A5C" d="M0 100.335L0 131.134 23.474 131.134 23.529 112.97.22 99.191zM111.485 62.424L111.485 95.829 81.793 78.511 81.793 45.393z" transform="translate(-615 -597) translate(-101 58) matrix(-1 0 0 1 916 539) translate(0 35.866)"/>
                            <path fill="#FFF" d="M53.782 130.013L24.65 112.921 53.782 95.829 82.913 112.921zM23.529 131.134L53.221 131.134 53.221 130.036 23.587 112.641z" transform="translate(-615 -597) translate(-101 58) matrix(-1 0 0 1 916 539) translate(0 35.866)"/>
                            <path fill="#001A5C" d="M53.221 130.001L53.221 131.134 82.913 131.134 82.913 112.641z" transform="translate(-615 -597) translate(-101 58) matrix(-1 0 0 1 916 539) translate(0 35.866)"/>
                            <path fill="#818181" d="M170.588 114.043v-.002.002z" transform="translate(-615 -597) translate(-101 58) matrix(-1 0 0 1 916 539) translate(0 35.866)"/>
                            <path fill="#00D2B5" d="M140.616 79.017L111.485 61.925 140.616 44.832 169.748 61.925zM170.308 130.013L141.176 112.786 170.412 95.268 199.44 112.786z" transform="translate(-615 -597) translate(-101 58) matrix(-1 0 0 1 916 539) translate(0 35.866)"/>
                            <path fill="#001A5C" d="M141.176 79.236L141.176 112.641 111.485 95.323 111.485 62.205z" transform="translate(-615 -597) translate(-101 58) matrix(-1 0 0 1 916 539) translate(0 35.866)"/>
                            <path fill="#FFF" d="M141.176 79.236L141.176 112.641 170.868 95.323 170.868 62.205zM112.045 130.013L82.913 112.921 112.045 95.829 141.176 112.921z" transform="translate(-615 -597) translate(-101 58) matrix(-1 0 0 1 916 539) translate(0 35.866)"/>
                            <path fill="#001A5C" d="M111.485 129.823L111.485 131.134 141.176 131.134 141.176 112.641zM199.44 79.236L199.44 112.641 169.748 95.323 169.748 62.205z" transform="translate(-615 -597) translate(-101 58) matrix(-1 0 0 1 916 539) translate(0 35.866)"/>
                            <path fill="#FFF" d="M3.922 0L23.529 11.208 43.137 0z" transform="translate(-615 -597) translate(-101 58) matrix(-1 0 0 1 916 539) translate(0 35.866)"/>
                            <path fill="#FFF" d="M0 0L0 30.913 23.529 44.832 23.529 11.343 4.033 0z" transform="translate(-615 -597) translate(-101 58) matrix(-1 0 0 1 916 539) translate(0 35.866)"/>
                        </g>
                    </g>
                </g>
            </g>
        </g>
    </g>
</svg>
