<?xml version="1.0" encoding="UTF-8"?>
<svg width="12px" height="12px" viewBox="0 0 12 12" version="1.1" xmlns="http://www.w3.org/2000/svg" xmlns:xlink="http://www.w3.org/1999/xlink">
    <!-- Generator: sketchtool 60 (101010) - https://sketch.com -->
    <title>DC14A91E-4963-4C75-B43E-4BBBF4772DF1</title>
    <desc>Created with sketchtool.</desc>
    <g id="Écrans" stroke="none" stroke-width="1" fill="none" fill-rule="evenodd">
        <g id="2.0.0.1---Cloud" transform="translate(-457.000000, -23.000000)">
            <g id="web/header/on-white">
                <g id="Group">
                    <g transform="translate(340.000000, 21.000000)">
                        <g id="Icon/Arrow/Type_4/blue_1" transform="translate(117.000000, 2.000000)">
                            <g id="Icon/Arrow/Type_4/Grey_1" transform="translate(6.000000, 6.000000) rotate(90.000000) translate(-6.000000, -6.000000) ">
                                <polygon id="Shape" points="0 0 12 0 12 12 0 12"></polygon>
                                <path d="M4.25125,2.91125 C4.02405039,3.13844961 4.02384957,3.50675099 4.25080128,3.73419823 L6.51166667,6 L6.51166667,6 L4.25080128,8.26580177 C4.02384957,8.49324901 4.02405039,8.86155039 4.25125,9.08875 C4.4783771,9.3158771 4.8466229,9.3158771 5.07375,9.08875 L7.45539322,6.70710678 C7.84591751,6.31658249 7.84591751,5.68341751 7.45539322,5.29289322 L5.07375,2.91125 C4.8466229,2.6841229 4.4783771,2.6841229 4.25125,2.91125 Z" id="Shape" fill="#001A5C"></path>
                            </g>
                        </g>
                    </g>
                </g>
            </g>
        </g>
    </g>
</svg>