<svg xmlns="http://www.w3.org/2000/svg" xmlns:xlink="http://www.w3.org/1999/xlink" width="76" height="76" viewBox="0 0 76 76">
    <defs>
        <path id="dzarwkw5la" d="M0.082 0.341L42.913 0.341 42.913 43.172 0.082 43.172z"/>
        <path id="5ubwz6ti5c" d="M0 0.344L28.047 0.344 28.047 28.391 0 28.391z"/>
        <path id="qjmxotvv3e" d="M0.227 0.082L23.308 0.082 23.308 23.164 0.227 23.164z"/>
    </defs>
    <g fill="none" fill-rule="evenodd">
        <g>
            <g>
                <g>
                    <g>
                        <g>
                            <path fill="#FF5E4D" d="M26.207 13.322c0 6.633-5.378 12.011-12.012 12.011S2.184 19.955 2.184 13.322C2.184 6.688 7.56 1.31 14.195 1.31c6.634 0 12.012 5.378 12.012 12.012" transform="translate(-132 -261) translate(-74 58) translate(206 203) translate(6.115 16.16)"/>
                            <g transform="translate(-132 -261) translate(-74 58) translate(206 203) translate(6.115 16.16) translate(10.483)">
                                <mask id="xf41qini6b" fill="#fff">
                                    <use xlink:href="#dzarwkw5la"/>
                                </mask>
                                <path fill="#FFF" d="M42.913 21.757c0 11.827-9.588 21.415-21.415 21.415S.082 33.584.082 21.757C.082 9.93 9.671.341 21.498.341S42.913 9.93 42.913 21.757" mask="url(#xf41qini6b)"/>
                            </g>
                            <g transform="translate(-132 -261) translate(-74 58) translate(206 203) translate(6.115 16.16) translate(0 18.782)">
                                <mask id="mee6lm3fxd" fill="#fff">
                                    <use xlink:href="#5ubwz6ti5c"/>
                                </mask>
                                <path fill="#001A5C" d="M28.047 14.367c0 7.745-6.279 14.024-14.024 14.024C6.278 28.39 0 22.112 0 14.367 0 6.623 6.278.344 14.023.344s14.024 6.279 14.024 14.023" mask="url(#mee6lm3fxd)"/>
                            </g>
                            <g transform="translate(-132 -261) translate(-74 58) translate(206 203) translate(6.115 16.16) translate(40.184 15.287)">
                                <mask id="uygbmltwxf" fill="#fff">
                                    <use xlink:href="#qjmxotvv3e"/>
                                </mask>
                                <path fill="#FF5E4D" d="M23.308 11.623c0 6.374-5.167 11.54-11.54 11.54-6.374 0-11.541-5.166-11.541-11.54 0-6.374 5.167-11.54 11.54-11.54 6.374 0 11.54 5.166 11.54 11.54" mask="url(#uygbmltwxf)"/>
                            </g>
                        </g>
                    </g>
                </g>
            </g>
        </g>
    </g>
</svg>
