<?xml version="1.0" encoding="UTF-8"?>
<svg width="200px" height="167px" viewBox="0 0 200 167" version="1.1" xmlns="http://www.w3.org/2000/svg" xmlns:xlink="http://www.w3.org/1999/xlink">
    <!-- Generator: sketchtool 60 (101010) - https://sketch.com -->
    <title>CBBDD2E1-3115-43E4-8922-4B6D2202E1E1</title>
    <desc>Created with sketchtool.</desc>
    <defs>
        <polygon id="path-1" points="0 152.42953 244.257703 152.42953 244.257703 0 0 0"></polygon>
    </defs>
    <g id="Écrans" stroke="none" stroke-width="1" fill="none" fill-rule="evenodd">
        <g id="2.0.0.1---Cloud" transform="translate(-572.000000, -597.000000)">
            <g id="web/cloud/1.0" transform="translate(-74.000000, 58.000000)">
                <g id="illustration/big/cloud">
                    <g transform="translate(768.500000, 622.500000) scale(-1, 1) translate(-768.500000, -622.500000) translate(646.000000, 539.000000)">
                        <g id="Group-17" transform="translate(0.000000, 14.570470)">
                            <polygon id="Fill-2" fill="#001A5C" points="27.4509804 152.42953 83.4733894 152.42953 83.4733894 26.8993289 27.4509804 26.8993289"></polygon>
                            <g id="Group-16">
                                <path d="M83.481609,27.1315291 C83.481609,34.0872696 70.9375766,39.725892 55.4638511,39.725892 C39.9899984,39.725892 27.4459659,34.0872696 27.4459659,27.1315291 C27.4459659,20.1757886 39.9899984,14.5371662 55.4638511,14.5371662 C70.9375766,14.5371662 83.481609,20.1757886 83.481609,27.1315291" id="Fill-3" fill="#FF5E4D"></path>
                                <mask id="mask-2" fill="white">
                                    <use xlink:href="#path-1"></use>
                                </mask>
                                <g id="Clip-6"></g>
                                <polygon id="Fill-5" fill="#00D2B5" mask="url(#mask-2)" points="43.7429925 244.070164 143.575187 244.070164 143.575187 70.737464 43.7429925 70.737464"></polygon>
                                <path d="M143.575199,70.7375529 C143.575199,83.1298197 121.227019,93.1755608 93.6591024,93.1755608 C66.0911857,93.1755608 43.7430053,83.1298197 43.7430053,70.7375529 C43.7430053,58.3454132 66.0911857,48.299545 93.6591024,48.299545 C121.227019,48.299545 143.575199,58.3454132 143.575199,70.7375529" id="Fill-7" fill="#FFFFFF" mask="url(#mask-2)"></path>
                                <polygon id="Fill-10" fill="#FF5E4D" mask="url(#mask-2)" points="8.6460866 283.174817 74.5928676 283.174817 74.5928676 121.649054 8.6460866 121.649054"></polygon>
                                <polygon id="Fill-11" fill="#001A5C" mask="url(#mask-2)" points="113.45465 321.736185 167.252027 321.736185 167.252027 74.3837054 113.45465 74.3837054"></polygon>
                                <path d="M74.5928422,121.648991 C74.5928422,129.834837 59.8301356,136.470984 41.6194517,136.470984 C23.4087677,136.470984 8.64606116,129.834837 8.64606116,121.648991 C8.64606116,113.463017 23.4087677,106.826997 41.6194517,106.826997 C59.8301356,106.826997 74.5928422,113.463017 74.5928422,121.648991" id="Fill-12" fill="#001A5C" mask="url(#mask-2)"></path>
                                <path d="M167.252078,74.38368 C167.252078,81.0614907 155.209156,86.4748984 140.353453,86.4748984 C125.497623,86.4748984 113.454701,81.0614907 113.454701,74.38368 C113.454701,67.7058693 125.497623,62.2923345 140.353453,62.2923345 C155.209156,62.2923345 167.252078,67.7058693 167.252078,74.38368" id="Fill-13" fill="#FF5E4D" mask="url(#mask-2)"></path>
                                <polygon id="Fill-14" fill="#FFFFFF" mask="url(#mask-2)" points="59.2495401 277.822889 95.7228128 277.822889 95.7228128 110.124238 59.2495401 110.124238"></polygon>
                                <path d="M95.7227619,110.124238 C95.7227619,114.651649 87.5579393,118.321771 77.4861256,118.321771 C67.4143119,118.321771 59.2494893,114.651649 59.2494893,110.124238 C59.2494893,105.5967 67.4143119,101.926578 77.4861256,101.926578 C87.5579393,101.926578 95.7227619,105.5967 95.7227619,110.124238" id="Fill-15" fill="#FF5E4D" mask="url(#mask-2)"></path>
                            </g>
                        </g>
                    </g>
                </g>
            </g>
        </g>
    </g>
</svg>