<?xml version="1.0" encoding="UTF-8"?>
<svg width="14px" height="8px" viewBox="0 0 14 8" version="1.1" xmlns="http://www.w3.org/2000/svg" xmlns:xlink="http://www.w3.org/1999/xlink">
    <!-- Generator: sketchtool 60 (101010) - https://sketch.com -->
    <title>B2155409-FFB4-410F-843C-9ED3667587CC</title>
    <desc>Created with sketchtool.</desc>
    <g id="Symbols" stroke="none" stroke-width="1" fill="none" fill-rule="evenodd">
        <g id="Icon/Arrow/Type_4/blue_1" transform="translate(-5.000000, -8.000000)">
            <g id="Icon/Arrow/Type_4/Grey_1" transform="translate(12.000000, 12.000000) rotate(90.000000) translate(-12.000000, -12.000000) ">
                <polygon id="Shape" points="0 0 24 0 24 24 0 24"></polygon>
                <path d="M8.61789322,5.70710678 L8.38633609,5.93866391 C7.9961129,6.3288871 7.99576799,6.96145744 8.3855654,7.35210594 L13.0233333,12 L13.0233333,12 L8.3855654,16.6478941 C7.99576799,17.0385426 7.9961129,17.6711129 8.38633609,18.0613361 L8.61789322,18.2928932 C9.00841751,18.6834175 9.64158249,18.6834175 10.0321068,18.2928932 L15.6178932,12.7071068 C16.0084175,12.3165825 16.0084175,11.6834175 15.6178932,11.2928932 L10.0321068,5.70710678 C9.64158249,5.31658249 9.00841751,5.31658249 8.61789322,5.70710678 Z" id="Shape" fill="#001A5C"></path>
            </g>
        </g>
    </g>
</svg>