<?xml version="1.0" encoding="UTF-8"?>
<svg width="1124px" height="843px" viewBox="0 0 1124 843" version="1.1" xmlns="http://www.w3.org/2000/svg" xmlns:xlink="http://www.w3.org/1999/xlink">
    <!-- Generator: sketchtool 60 (101010) - https://sketch.com -->
    <title>42ACA94D-EFA7-4CF3-9C38-B9381FA85951</title>
    <desc>Created with sketchtool.</desc>
    <g id="Symbols" stroke="none" stroke-width="1" fill="none" fill-rule="evenodd" opacity="0.05">
        <g id="web/homepage/6.0" transform="translate(-158.000000, -26.000000)" fill="#00D2B5">
            <g id="Group-2" transform="translate(158.000000, 26.000000)">
                <g id="illustration/demi-arrondi/vert/2">
                    <path d="M100,0 L181,0 C236.228475,-1.01453063e-14 281,44.771525 281,100 L281,281 L281,281 L0,281 L0,100 C-6.76353751e-15,44.771525 44.771525,1.01453063e-14 100,0 Z" transform="translate(140.500000, 140.500000) rotate(-270.000000) translate(-140.500000, -140.500000) "></path>
                </g>
                <g id="illustration/triangle/bleu/1" transform="translate(140.500000, 421.500000) scale(1, -1) translate(-140.500000, -421.500000) translate(0.000000, 281.000000)">
                    <polygon fill="#001A5C" points="0 0 281 281 0 281"></polygon>
                </g>
                <g id="illustration/angle-arrondi/saumon/4" transform="translate(140.500000, 702.500000) scale(-1, -1) translate(-140.500000, -702.500000) translate(0.000000, 562.000000)">
                    <path d="M281.000004,0.00115635679 C280.371124,155.300712 154.804096,281 0,281 L0,281 L0,0 Z" id="illustration/demi-arrondi/saumon/3" fill="#FF5E4D" transform="translate(140.500000, 140.500000) rotate(-90.000000) translate(-140.500000, -140.500000) "></path>
                </g>
                <g id="illustration/triangle/saumon/4" transform="translate(281.000000, 0.000000)">
                    <polygon fill="#FF5E4D" transform="translate(140.500000, 140.500000) rotate(-90.000000) translate(-140.500000, -140.500000) " points="-3.1197267e-14 4.92920337e-15 281 281 -3.1197267e-14 281"></polygon>
                </g>
                <g id="illustration/demi-arrondi/vert/3" transform="translate(421.500000, 421.500000) scale(1, -1) translate(-421.500000, -421.500000) translate(281.000000, 281.000000)">
                    <path d="M100,0 L181,0 C236.228475,-1.01453063e-14 281,44.771525 281,100 L281,281 L281,281 L0,281 L0,100 C-6.76353751e-15,44.771525 44.771525,1.01453063e-14 100,0 Z" transform="translate(140.500000, 140.500000) rotate(-180.000000) translate(-140.500000, -140.500000) "></path>
                </g>
                <g id="illustration/demi-arrondi/vert/3" transform="translate(421.500000, 702.500000) scale(-1, -1) translate(-421.500000, -702.500000) translate(281.000000, 562.000000)">
                    <path d="M100,0 L181,0 C236.228475,-1.01453063e-14 281,44.771525 281,100 L281,281 L281,281 L0,281 L0,100 C-6.76353751e-15,44.771525 44.771525,1.01453063e-14 100,0 Z" transform="translate(140.500000, 140.500000) rotate(-180.000000) translate(-140.500000, -140.500000) "></path>
                </g>
                <g id="illustration/demi-arrondi/vert/2" transform="translate(562.000000, 0.000000)">
                    <path d="M100,0 L181,0 C236.228475,-1.01453063e-14 281,44.771525 281,100 L281,281 L281,281 L0,281 L0,100 C-6.76353751e-15,44.771525 44.771525,1.01453063e-14 100,0 Z" transform="translate(140.500000, 140.500000) rotate(-270.000000) translate(-140.500000, -140.500000) "></path>
                </g>
                <g id="illustration/demi-arrondi/vert/2" transform="translate(702.500000, 421.500000) scale(1, -1) translate(-702.500000, -421.500000) translate(562.000000, 281.000000)">
                    <path d="M100,0 L181,0 C236.228475,-1.01453063e-14 281,44.771525 281,100 L281,281 L281,281 L0,281 L0,100 C-6.76353751e-15,44.771525 44.771525,1.01453063e-14 100,0 Z" transform="translate(140.500000, 140.500000) rotate(-270.000000) translate(-140.500000, -140.500000) "></path>
                </g>
                <g id="illustration/rond/saumon" transform="translate(702.500000, 702.500000) scale(-1, -1) translate(-702.500000, -702.500000) translate(562.000000, 562.000000)">
                    <circle fill="#FF5E4D" cx="140.5" cy="140.5" r="140.5"></circle>
                </g>
                <g id="illustration/demi-arrondi/bleu/1" transform="translate(843.000000, 0.000000)">
                    <path d="M100,0 L181,0 C236.228475,-1.01453063e-14 281,44.771525 281,100 L281,281 L281,281 L0,281 L0,100 C-6.76353751e-15,44.771525 44.771525,1.01453063e-14 100,0 Z" fill="#001A5C"></path>
                </g>
                <g id="illustration/demi-arrondi/vert/1" transform="translate(983.500000, 421.500000) scale(1, -1) translate(-983.500000, -421.500000) translate(843.000000, 281.000000)">
                    <path d="M100,0 L181,0 C236.228475,-1.01453063e-14 281,44.771525 281,100 L281,281 L281,281 L0,281 L0,100 C-6.76353751e-15,44.771525 44.771525,1.01453063e-14 100,0 Z"></path>
                </g>
                <g id="illustration/triangle/bleu/2" transform="translate(983.500000, 702.500000) scale(-1, -1) translate(-983.500000, -702.500000) translate(843.000000, 562.000000)">
                    <polygon fill="#001A5C" transform="translate(140.500000, 140.500000) rotate(-270.000000) translate(-140.500000, -140.500000) " points="-1.90662301e-14 -1.55986335e-13 281 281 -1.90662301e-14 281"></polygon>
                </g>
            </g>
        </g>
    </g>
</svg>