<svg xmlns="http://www.w3.org/2000/svg" width="24" height="24" viewBox="0 0 24 24">
    <g fill="none" fill-rule="evenodd">
        <g>
            <g>
                <g>
                    <g fill="#CACCD8" transform="translate(-1032 -5604) translate(0 5428) translate(1032 176)">
                        <circle cx="12" cy="12" r="12"/>
                    </g>
                    <g fill="#FFF">
                        <path d="M2.686 12H.198V3.988h2.488V12zM1.441 2.896C.645 2.896 0 2.236 0 1.44S.645 0 1.44 0c.796 0 1.441.646 1.441 1.441 0 .796-.645 1.455-1.44 1.455zM11.997 12H9.515V8.1c0-.93-.019-2.121-1.294-2.121-1.293 0-1.491 1.01-1.491 2.054V12H4.245V3.988H6.63v1.093h.034c.333-.63 1.144-1.294 2.354-1.294C11.537 3.788 12 5.447 12 7.6V12h-.003z" transform="translate(-1032 -5604) translate(0 5428) translate(1032 176) translate(6 6)"/>
                    </g>
                </g>
            </g>
        </g>
    </g>
</svg>
