<?xml version="1.0" encoding="UTF-8"?>
<svg width="90px" height="90px" viewBox="0 0 90 90" version="1.1" xmlns="http://www.w3.org/2000/svg" xmlns:xlink="http://www.w3.org/1999/xlink">
    <!-- Generator: sketchtool 60 (101010) - https://sketch.com -->
    <title>F45223D7-ED41-4BE4-AAE8-CE94CB0FD63D</title>
    <desc>Created with sketchtool.</desc>
    <g id="Écrans" stroke="none" stroke-width="1" fill="none" fill-rule="evenodd">
        <g id="2.0.0.1---Cloud" transform="translate(-275.000000, -1140.000000)">
            <g id="web/cloud/2.0" transform="translate(0.000000, 921.000000)">
                <g transform="translate(108.000000, 69.000000)" id="bloc/expertise/modern-workplace-inactif">
                    <g transform="translate(24.000000, 131.000000)">
                        <g id="bloc/cloud/maximisation">
                            <g id="illustration/expertise/cloud/maximisation" transform="translate(143.000000, 19.000000)">
                                <g id="Group-19" transform="translate(15.517241, 15.517241)">
                                    <path d="M39.7389828,29.324069 C39.7389828,35.0757931 35.0755345,39.7392414 29.3238103,39.7392414 C23.5720862,39.7392414 18.9091552,35.0757931 18.9091552,29.324069 C18.9091552,23.5718276 23.5720862,18.9088966 29.3238103,18.9088966 C35.0755345,18.9088966 39.7389828,23.5718276 39.7389828,29.324069" id="Fill-1" fill="#00D2B5"></path>
                                    <polygon id="Fill-3" fill="#001A5C" points="23.2610172 8.2217069 29.3241207 0.000155172414 35.3867069 8.2217069"></polygon>
                                    <polygon id="Fill-5" fill="#00D2B5" points="10.115069 18.6895345 8.58868966 8.58884483 18.6893793 10.1152241"></polygon>
                                    <polygon id="Fill-7" fill="#001A5C" points="8.22160345 35.3869655 5.17241379e-05 29.3238621 8.22160345 23.2612759"></polygon>
                                    <polygon id="Fill-9" fill="#00D2B5" points="18.689431 48.5327069 8.58874138 50.0590862 10.1151207 39.9583966"></polygon>
                                    <polygon id="Fill-11" fill="#001A5C" points="35.3869138 50.4263793 29.3238103 58.647931 23.2612241 50.4263793"></polygon>
                                    <polygon id="Fill-13" fill="#00D2B5" points="48.5326034 39.9582931 50.0589828 50.0589828 39.9582931 48.5326034"></polygon>
                                    <polygon id="Fill-15" fill="#001A5C" points="50.4262759 23.2611207 58.6478276 29.3242241 50.4262759 35.3868103"></polygon>
                                    <polygon id="Fill-17" fill="#00D2B5" points="39.9582414 10.1151724 50.058931 8.5887931 48.5325517 18.6894828"></polygon>
                                </g>
                            </g>
                        </g>
                    </g>
                </g>
            </g>
        </g>
    </g>
</svg>