<svg xmlns="http://www.w3.org/2000/svg" width="174" height="174" viewBox="0 0 174 174">
    <g fill="none" fill-rule="evenodd">
        <g>
            <g>
                <path fill="#00D2B5" d="M76.829 56.693c0 11.12-9.016 20.136-20.136 20.136s-20.135-9.016-20.135-20.136 9.015-20.136 20.135-20.136c11.12 0 20.136 9.015 20.136 20.136" transform="translate(30 30)"/>
                <path fill="#001A5C" d="M44.971 15.895L56.693 0 68.414 15.895z" transform="translate(30 30)"/>
                <path fill="#00D2B5" d="M19.556 36.133L16.605 16.605 36.133 19.556z" transform="translate(30 30)"/>
                <path fill="#001A5C" d="M15.895 68.415L0 56.693 15.895 44.972z" transform="translate(30 30)"/>
                <path fill="#00D2B5" d="M36.133 93.83L16.605 96.781 19.556 77.253z" transform="translate(30 30)"/>
                <path fill="#001A5C" d="M68.415 97.491L56.693 113.386 44.972 97.491z" transform="translate(30 30)"/>
                <path fill="#00D2B5" d="M93.83 77.253L96.781 96.781 77.253 93.83z" transform="translate(30 30)"/>
                <path fill="#001A5C" d="M97.491 44.971L113.386 56.694 97.491 68.415z" transform="translate(30 30)"/>
                <path fill="#00D2B5" d="M77.253 19.556L96.781 16.605 93.83 36.133z" transform="translate(30 30)"/>
            </g>
        </g>
    </g>
</svg>
