<?xml version="1.0" encoding="UTF-8"?>
<svg width="110px" height="134px" viewBox="0 0 110 134" version="1.1" xmlns="http://www.w3.org/2000/svg" xmlns:xlink="http://www.w3.org/1999/xlink">
    <!-- Generator: sketchtool 60 (101010) - https://sketch.com -->
    <title>84D2700D-6D6B-45FB-B1CE-30F17E84006B</title>
    <desc>Created with sketchtool.</desc>
    <g id="Symbols" stroke="none" stroke-width="1" fill="none" fill-rule="evenodd">
        <g id="web/homepage/7.0" transform="translate(-732.000000, -408.000000)" fill="#FF5E4D">
            <g id="illustration/dot/orange" transform="translate(732.000000, 408.000000)">
                <g id="illustration/dot/vert">
                    <g id="illustration/rond/saumon">
                        <ellipse cx="5" cy="4.96296296" rx="5" ry="4.96296296"></ellipse>
                    </g>
                    <g id="illustration/rond/saumon" transform="translate(0.000000, 24.814815)">
                        <ellipse cx="5" cy="4.96296296" rx="5" ry="4.96296296"></ellipse>
                    </g>
                    <g id="illustration/rond/saumon" transform="translate(25.000000, 0.000000)">
                        <ellipse cx="5" cy="4.96296296" rx="5" ry="4.96296296"></ellipse>
                    </g>
                    <g id="illustration/rond/saumon" transform="translate(25.000000, 24.814815)">
                        <ellipse cx="5" cy="4.96296296" rx="5" ry="4.96296296"></ellipse>
                    </g>
                    <g id="illustration/rond/saumon" transform="translate(50.000000, 0.000000)">
                        <ellipse cx="5" cy="4.96296296" rx="5" ry="4.96296296"></ellipse>
                    </g>
                    <g id="illustration/rond/saumon" transform="translate(50.000000, 24.814815)">
                        <ellipse cx="5" cy="4.96296296" rx="5" ry="4.96296296"></ellipse>
                    </g>
                    <g id="illustration/rond/saumon" transform="translate(75.000000, 0.000000)">
                        <ellipse cx="5" cy="4.96296296" rx="5" ry="4.96296296"></ellipse>
                    </g>
                    <g id="illustration/rond/saumon" transform="translate(75.000000, 24.814815)">
                        <ellipse cx="5" cy="4.96296296" rx="5" ry="4.96296296"></ellipse>
                    </g>
                    <g id="illustration/rond/saumon" transform="translate(100.000000, 0.000000)">
                        <ellipse cx="5" cy="4.96296296" rx="5" ry="4.96296296"></ellipse>
                    </g>
                    <g id="illustration/rond/saumon" transform="translate(100.000000, 24.814815)">
                        <ellipse cx="5" cy="4.96296296" rx="5" ry="4.96296296"></ellipse>
                    </g>
                    <g id="illustration/rond/saumon" transform="translate(0.000000, 49.629630)">
                        <ellipse cx="5" cy="4.96296296" rx="5" ry="4.96296296"></ellipse>
                    </g>
                    <g id="illustration/rond/saumon" transform="translate(25.000000, 49.629630)">
                        <ellipse cx="5" cy="4.96296296" rx="5" ry="4.96296296"></ellipse>
                    </g>
                    <g id="illustration/rond/saumon" transform="translate(50.000000, 49.629630)">
                        <ellipse cx="5" cy="4.96296296" rx="5" ry="4.96296296"></ellipse>
                    </g>
                    <g id="illustration/rond/saumon" transform="translate(75.000000, 49.629630)">
                        <ellipse cx="5" cy="4.96296296" rx="5" ry="4.96296296"></ellipse>
                    </g>
                    <g id="illustration/rond/saumon" transform="translate(100.000000, 49.629630)">
                        <ellipse cx="5" cy="4.96296296" rx="5" ry="4.96296296"></ellipse>
                    </g>
                    <g id="illustration/rond/saumon" transform="translate(0.000000, 74.444444)">
                        <ellipse cx="5" cy="4.96296296" rx="5" ry="4.96296296"></ellipse>
                    </g>
                    <g id="illustration/rond/saumon" transform="translate(25.000000, 74.444444)">
                        <ellipse cx="5" cy="4.96296296" rx="5" ry="4.96296296"></ellipse>
                    </g>
                    <g id="illustration/rond/saumon" transform="translate(50.000000, 74.444444)">
                        <ellipse cx="5" cy="4.96296296" rx="5" ry="4.96296296"></ellipse>
                    </g>
                    <g id="illustration/rond/saumon" transform="translate(75.000000, 74.444444)">
                        <ellipse cx="5" cy="4.96296296" rx="5" ry="4.96296296"></ellipse>
                    </g>
                    <g id="illustration/rond/saumon" transform="translate(100.000000, 74.444444)">
                        <ellipse cx="5" cy="4.96296296" rx="5" ry="4.96296296"></ellipse>
                    </g>
                    <g id="illustration/rond/saumon" transform="translate(0.000000, 99.259259)">
                        <ellipse cx="5" cy="4.96296296" rx="5" ry="4.96296296"></ellipse>
                    </g>
                    <g id="illustration/rond/saumon" transform="translate(25.000000, 99.259259)">
                        <ellipse cx="5" cy="4.96296296" rx="5" ry="4.96296296"></ellipse>
                    </g>
                    <g id="illustration/rond/saumon" transform="translate(50.000000, 99.259259)">
                        <ellipse cx="5" cy="4.96296296" rx="5" ry="4.96296296"></ellipse>
                    </g>
                    <g id="illustration/rond/saumon" transform="translate(75.000000, 99.259259)">
                        <ellipse cx="5" cy="4.96296296" rx="5" ry="4.96296296"></ellipse>
                    </g>
                    <g id="illustration/rond/saumon" transform="translate(100.000000, 99.259259)">
                        <ellipse cx="5" cy="4.96296296" rx="5" ry="4.96296296"></ellipse>
                    </g>
                    <g id="illustration/rond/saumon" transform="translate(0.000000, 124.074074)">
                        <ellipse cx="5" cy="4.96296296" rx="5" ry="4.96296296"></ellipse>
                    </g>
                    <g id="illustration/rond/saumon" transform="translate(25.000000, 124.074074)">
                        <ellipse cx="5" cy="4.96296296" rx="5" ry="4.96296296"></ellipse>
                    </g>
                    <g id="illustration/rond/saumon" transform="translate(50.000000, 124.074074)">
                        <ellipse cx="5" cy="4.96296296" rx="5" ry="4.96296296"></ellipse>
                    </g>
                    <g id="illustration/rond/saumon" transform="translate(75.000000, 124.074074)">
                        <ellipse cx="5" cy="4.96296296" rx="5" ry="4.96296296"></ellipse>
                    </g>
                    <g id="illustration/rond/saumon" transform="translate(100.000000, 124.074074)">
                        <ellipse cx="5" cy="4.96296296" rx="5" ry="4.96296296"></ellipse>
                    </g>
                </g>
            </g>
        </g>
    </g>
</svg>