<svg xmlns="http://www.w3.org/2000/svg" width="90" height="91" viewBox="0 0 90 91">
    <g fill="none" fill-rule="evenodd">
        <g>
            <g>
                <g>
                    <g>
                        <g>
                            <g>
                                <g>
                                    <path fill="#001A5C" d="M0 0L7.562 13.712 15.124 0z" transform="translate(-675 -1122) translate(0 921) translate(132 69) translate(400 124) translate(143 8.683) translate(15 17.586)"/>
                                    <path fill="#FF4D3E" d="M15.124 0L22.686 13.712 30.248 0z" transform="translate(-675 -1122) translate(0 921) translate(132 69) translate(400 124) translate(143 8.683) translate(15 17.586)"/>
                                    <path fill="#00D2B5" d="M22.686 13.711L15.124 27.423 7.562 13.711z" transform="translate(-675 -1122) translate(0 921) translate(132 69) translate(400 124) translate(143 8.683) translate(15 17.586)"/>
                                    <path fill="#001A5C" d="M30.248 0L37.811 13.712 45.373 0z" transform="translate(-675 -1122) translate(0 921) translate(132 69) translate(400 124) translate(143 8.683) translate(15 17.586)"/>
                                    <path fill="#FF4D3E" d="M45.373 0L52.935 13.712 60.497 0.001 60.497 0z" transform="translate(-675 -1122) translate(0 921) translate(132 69) translate(400 124) translate(143 8.683) translate(15 17.586)"/>
                                    <path fill="#00D2B5" d="M52.935 13.711L45.373 27.423 37.811 13.711z" transform="translate(-675 -1122) translate(0 921) translate(132 69) translate(400 124) translate(143 8.683) translate(15 17.586)"/>
                                    <path fill="#001A5C" d="M15.124 27.423L22.686 13.711 30.248 27.423zM26.014 13.711L30.248 6.035 34.483 13.711z" transform="translate(-675 -1122) translate(0 921) translate(132 69) translate(400 124) translate(143 8.683) translate(15 17.586)"/>
                                    <path fill="#FF4D3E" d="M30.249 27.423L37.811 13.711 45.373 27.423z" transform="translate(-675 -1122) translate(0 921) translate(132 69) translate(400 124) translate(143 8.683) translate(15 17.586)"/>
                                    <path fill="#001A5C" d="M45.373 27.423L37.811 41.134 30.249 27.423z" transform="translate(-675 -1122) translate(0 921) translate(132 69) translate(400 124) translate(143 8.683) translate(15 17.586)"/>
                                    <path fill="#FF4D3E" d="M30.249 27.423L22.686 41.134 15.124 27.423z" transform="translate(-675 -1122) translate(0 921) translate(132 69) translate(400 124) translate(143 8.683) translate(15 17.586)"/>
                                    <path fill="#00D2B5" d="M22.687 41.134L30.249 54.845 37.811 41.134z" transform="translate(-675 -1122) translate(0 921) translate(132 69) translate(400 124) translate(143 8.683) translate(15 17.586)"/>
                                    <path fill="#FF4D3E" d="M34.482 13.711L30.248 21.389 26.014 13.711z" transform="translate(-675 -1122) translate(0 921) translate(132 69) translate(400 124) translate(143 8.683) translate(15 17.586)"/>
                                    <path fill="#001A5C" d="M10.89 13.711L15.124 6.035 19.358 13.711zM41.139 13.711L45.373 6.035 49.607 13.711zM26.014 41.134L30.248 33.457 34.483 41.134z" transform="translate(-675 -1122) translate(0 921) translate(132 69) translate(400 124) translate(143 8.683) translate(15 17.586)"/>
                                </g>
                            </g>
                        </g>
                    </g>
                </g>
            </g>
        </g>
    </g>
</svg>
