<svg xmlns="http://www.w3.org/2000/svg" xmlns:xlink="http://www.w3.org/1999/xlink" width="90" height="91" viewBox="0 0 90 91">
    <defs>
        <path id="5tozwoxyia" d="M0 0.324L16.385 0.324 16.385 9.661 0 9.661z"/>
        <path id="b6vzye2pic" d="M0.146 0.324L16.532 0.324 16.532 9.661 0.146 9.661z"/>
        <path id="jmct76pexe" d="M0.332 0.491L16.717 0.491 16.717 9.828 0.332 9.828z"/>
    </defs>
    <g fill="none" fill-rule="evenodd">
        <g>
            <g>
                <g>
                    <g>
                        <g>
                            <g>
                                <g>
                                    <g transform="translate(-1075 -1122) translate(0 921) translate(132 69) translate(800 124) translate(143 8.683) translate(15 23.276) translate(0 16.912)">
                                        <mask id="bkb3zvilab" fill="#fff">
                                            <use xlink:href="#5tozwoxyia"/>
                                        </mask>
                                        <path fill="#00D7B4" d="M8.193.324c1.88 0 3.404 1.524 3.404 3.404s-1.525 3.404-3.404 3.404c-1.88 0-3.404-1.524-3.404-3.404S6.312.324 8.193.324C4.88.324 1.928 2.147 0 4.992c1.928 2.846 4.88 4.669 8.193 4.669 3.31 0 6.264-1.823 8.192-4.669C14.457 2.147 11.504.324 8.193.324" mask="url(#bkb3zvilab)"/>
                                    </g>
                                    <path fill="#001A5C" d="M11.596 20.64c0 1.88-1.524 3.404-3.404 3.404S4.788 22.52 4.788 20.64s1.525-3.404 3.404-3.404c1.88 0 3.404 1.524 3.404 3.404" transform="translate(-1075 -1122) translate(0 921) translate(132 69) translate(800 124) translate(143 8.683) translate(15 23.276)"/>
                                    <g transform="translate(-1075 -1122) translate(0 921) translate(132 69) translate(800 124) translate(143 8.683) translate(15 23.276) translate(43.966 16.912)">
                                        <mask id="qaacy2i9ed" fill="#fff">
                                            <use xlink:href="#b6vzye2pic"/>
                                        </mask>
                                        <path fill="#00D7B4" d="M8.339.324C5.028.324 2.075 2.147.146 4.992 2.075 7.838 5.028 9.661 8.34 9.661s6.264-1.823 8.193-4.669C14.602 2.147 11.65.324 8.339.324" mask="url(#qaacy2i9ed)"/>
                                    </g>
                                    <path fill="#001A5C" d="M55.709 23.168c0 1.88-1.524 3.404-3.404 3.404S48.9 25.05 48.9 23.168c0-1.88 1.523-3.404 3.404-3.404 1.88 0 3.404 1.525 3.404 3.404" transform="translate(-1075 -1122) translate(0 921) translate(132 69) translate(800 124) translate(143 8.683) translate(15 23.276)"/>
                                    <path fill="#00D7B4" d="M52.305 2.743c.775 0 1.403.629 1.403 1.404 0 .775-.628 1.403-1.403 1.403-.776 0-1.404-.628-1.404-1.403s.628-1.404 1.404-1.404c-1.366 0-2.584.752-3.379 1.925.795 1.173 2.013 1.925 3.379 1.925 1.365 0 2.583-.752 3.378-1.925-.795-1.173-2.013-1.925-3.378-1.925" transform="translate(-1075 -1122) translate(0 921) translate(132 69) translate(800 124) translate(143 8.683) translate(15 23.276)"/>
                                    <path fill="#001A5C" d="M53.708 4.147c0 .775-.628 1.403-1.404 1.403-.775 0-1.403-.628-1.403-1.403s.628-1.404 1.403-1.404c.776 0 1.404.629 1.404 1.404" transform="translate(-1075 -1122) translate(0 921) translate(132 69) translate(800 124) translate(143 8.683) translate(15 23.276)"/>
                                    <path fill="#00D7B4" d="M8.193 2.743c.775 0 1.403.629 1.403 1.404 0 .775-.628 1.403-1.403 1.403-.776 0-1.404-.628-1.404-1.403s.628-1.404 1.404-1.404c-1.366 0-2.584.752-3.379 1.925.795 1.173 2.013 1.925 3.379 1.925 1.365 0 2.583-.752 3.378-1.925-.795-1.173-2.013-1.925-3.378-1.925" transform="translate(-1075 -1122) translate(0 921) translate(132 69) translate(800 124) translate(143 8.683) translate(15 23.276)"/>
                                    <path fill="#001A5C" d="M9.596 4.147c0 .775-.628 1.403-1.403 1.403-.776 0-1.404-.628-1.404-1.403s.628-1.404 1.404-1.404c.775 0 1.403.629 1.403 1.404" transform="translate(-1075 -1122) translate(0 921) translate(132 69) translate(800 124) translate(143 8.683) translate(15 23.276)"/>
                                    <path fill="#00D7B4" d="M30.249 14.973c-4.918 0-9.302 2.705-12.165 6.931 2.863 4.226 7.247 6.932 12.165 6.932 4.917 0 9.3-2.706 12.165-6.932-2.864-4.226-7.248-6.931-12.165-6.931" transform="translate(-1075 -1122) translate(0 921) translate(132 69) translate(800 124) translate(143 8.683) translate(15 23.276)"/>
                                    <path fill="#001A5C" d="M35.303 21.904c0 2.791-2.263 5.054-5.054 5.054-2.792 0-5.055-2.263-5.055-5.054 0-2.791 2.263-5.054 5.055-5.054 2.79 0 5.054 2.263 5.054 5.054" transform="translate(-1075 -1122) translate(0 921) translate(132 69) translate(800 124) translate(143 8.683) translate(15 23.276)"/>
                                    <path fill="#00D7B4" d="M30.249 0c1.88 0 3.404 1.524 3.404 3.404s-1.524 3.404-3.404 3.404-3.404-1.524-3.404-3.404S28.369 0 30.249 0c-3.312 0-6.265 1.822-8.193 4.668 1.928 2.846 4.88 4.668 8.193 4.668 3.31 0 6.263-1.822 8.192-4.668C36.512 1.822 33.56 0 30.25 0" transform="translate(-1075 -1122) translate(0 921) translate(132 69) translate(800 124) translate(143 8.683) translate(15 23.276)"/>
                                    <path fill="#001A5C" d="M33.653 3.404c0 1.88-1.524 3.404-3.404 3.404s-3.404-1.524-3.404-3.404S28.369 0 30.249 0s3.404 1.524 3.404 3.404" transform="translate(-1075 -1122) translate(0 921) translate(132 69) translate(800 124) translate(143 8.683) translate(15 23.276)"/>
                                    <g transform="translate(-1075 -1122) translate(0 921) translate(132 69) translate(800 124) translate(143 8.683) translate(15 23.276) translate(21.724 33.98)">
                                        <mask id="ocdu5oyzvf" fill="#fff">
                                            <use xlink:href="#jmct76pexe"/>
                                        </mask>
                                        <path fill="#00D7B4" d="M8.524.491c1.88 0 3.404 1.524 3.404 3.404s-1.523 3.404-3.404 3.404c-1.88 0-3.404-1.524-3.404-3.404S6.645.49 8.524.49C5.213.491 2.26 2.313.332 5.16c1.928 2.846 4.88 4.669 8.192 4.669 3.312 0 6.264-1.823 8.193-4.669C14.788 2.313 11.836.491 8.524.491" mask="url(#ocdu5oyzvf)"/>
                                    </g>
                                    <path fill="#001A5C" d="M33.653 37.875c0 1.88-1.524 3.404-3.404 3.404s-3.404-1.523-3.404-3.404c0-1.88 1.524-3.403 3.404-3.403s3.404 1.524 3.404 3.403" transform="translate(-1075 -1122) translate(0 921) translate(132 69) translate(800 124) translate(143 8.683) translate(15 23.276)"/>
                                    <path fill="#00D7B4" d="M52.305 37.215c.775 0 1.403.629 1.403 1.403 0 .776-.628 1.404-1.403 1.404-.776 0-1.404-.628-1.404-1.404 0-.774.628-1.403 1.404-1.403-1.366 0-2.584.751-3.379 1.925.795 1.173 2.013 1.925 3.379 1.925 1.365 0 2.583-.752 3.378-1.925-.795-1.174-2.013-1.925-3.378-1.925" transform="translate(-1075 -1122) translate(0 921) translate(132 69) translate(800 124) translate(143 8.683) translate(15 23.276)"/>
                                    <path fill="#001A5C" d="M53.708 38.618c0 .776-.628 1.404-1.404 1.404-.775 0-1.403-.628-1.403-1.404 0-.774.628-1.403 1.403-1.403.776 0 1.404.629 1.404 1.403" transform="translate(-1075 -1122) translate(0 921) translate(132 69) translate(800 124) translate(143 8.683) translate(15 23.276)"/>
                                    <path fill="#00D7B4" d="M8.193 37.215c-1.366 0-2.584.751-3.379 1.925.795 1.173 2.013 1.925 3.379 1.925 1.365 0 2.583-.752 3.378-1.925-.795-1.174-2.013-1.925-3.378-1.925" transform="translate(-1075 -1122) translate(0 921) translate(132 69) translate(800 124) translate(143 8.683) translate(15 23.276)"/>
                                    <path fill="#001A5C" d="M9.596 39.661c0 .775-.628 1.404-1.403 1.404-.776 0-1.404-.629-1.404-1.404 0-.775.628-1.403 1.404-1.403.775 0 1.403.628 1.403 1.403" transform="translate(-1075 -1122) translate(0 921) translate(132 69) translate(800 124) translate(143 8.683) translate(15 23.276)"/>
                                </g>
                            </g>
                        </g>
                    </g>
                </g>
            </g>
        </g>
    </g>
</svg>
