<svg xmlns="http://www.w3.org/2000/svg" width="156" height="190" viewBox="0 0 156 190">
    <g fill="none" fill-rule="evenodd">
        <g fill="#00D2B5">
            <g>
                <g transform="translate(-1076 -2557) translate(-173 1535) translate(1249 1022)">
                    <g>
                        <ellipse cx="3.319" cy="3.333" rx="3.319" ry="3.333"/>
                        <ellipse cx="3.319" cy="3.333" rx="3.319" ry="3.333" transform="translate(0 100)"/>
                        <ellipse cx="3.319" cy="3.333" rx="3.319" ry="3.333" transform="translate(82.979)"/>
                        <ellipse cx="3.319" cy="3.333" rx="3.319" ry="3.333" transform="translate(82.979 100)"/>
                        <ellipse cx="3.319" cy="3.333" rx="3.319" ry="3.333" transform="translate(0 16.667)"/>
                        <ellipse cx="3.319" cy="3.333" rx="3.319" ry="3.333" transform="translate(0 116.667)"/>
                        <ellipse cx="3.319" cy="3.333" rx="3.319" ry="3.333" transform="translate(82.979 16.667)"/>
                        <ellipse cx="3.319" cy="3.333" rx="3.319" ry="3.333" transform="translate(82.979 116.667)"/>
                        <ellipse cx="3.319" cy="3.333" rx="3.319" ry="3.333" transform="translate(16.596)"/>
                        <ellipse cx="3.319" cy="3.333" rx="3.319" ry="3.333" transform="translate(16.596 100)"/>
                        <ellipse cx="3.319" cy="3.333" rx="3.319" ry="3.333" transform="translate(99.574)"/>
                        <ellipse cx="3.319" cy="3.333" rx="3.319" ry="3.333" transform="translate(99.574 100)"/>
                        <ellipse cx="3.319" cy="3.333" rx="3.319" ry="3.333" transform="translate(16.596 16.667)"/>
                        <ellipse cx="3.319" cy="3.333" rx="3.319" ry="3.333" transform="translate(16.596 116.667)"/>
                        <ellipse cx="3.319" cy="3.333" rx="3.319" ry="3.333" transform="translate(99.574 16.667)"/>
                        <ellipse cx="3.319" cy="3.333" rx="3.319" ry="3.333" transform="translate(99.574 116.667)"/>
                        <ellipse cx="3.319" cy="3.333" rx="3.319" ry="3.333" transform="translate(33.191)"/>
                        <ellipse cx="3.319" cy="3.333" rx="3.319" ry="3.333" transform="translate(33.191 100)"/>
                        <ellipse cx="3.319" cy="3.333" rx="3.319" ry="3.333" transform="translate(116.17)"/>
                        <ellipse cx="3.319" cy="3.333" rx="3.319" ry="3.333" transform="translate(116.17 100)"/>
                        <ellipse cx="3.319" cy="3.333" rx="3.319" ry="3.333" transform="translate(33.191 16.667)"/>
                        <ellipse cx="3.319" cy="3.333" rx="3.319" ry="3.333" transform="translate(33.191 116.667)"/>
                        <ellipse cx="3.319" cy="3.333" rx="3.319" ry="3.333" transform="translate(116.17 16.667)"/>
                        <ellipse cx="3.319" cy="3.333" rx="3.319" ry="3.333" transform="translate(116.17 116.667)"/>
                        <ellipse cx="3.319" cy="3.333" rx="3.319" ry="3.333" transform="translate(49.787)"/>
                        <ellipse cx="3.319" cy="3.333" rx="3.319" ry="3.333" transform="translate(49.787 100)"/>
                        <ellipse cx="3.319" cy="3.333" rx="3.319" ry="3.333" transform="translate(132.766)"/>
                        <ellipse cx="3.319" cy="3.333" rx="3.319" ry="3.333" transform="translate(132.766 100)"/>
                        <ellipse cx="3.319" cy="3.333" rx="3.319" ry="3.333" transform="translate(49.787 16.667)"/>
                        <ellipse cx="3.319" cy="3.333" rx="3.319" ry="3.333" transform="translate(49.787 116.667)"/>
                        <ellipse cx="3.319" cy="3.333" rx="3.319" ry="3.333" transform="translate(132.766 16.667)"/>
                        <ellipse cx="3.319" cy="3.333" rx="3.319" ry="3.333" transform="translate(132.766 116.667)"/>
                        <ellipse cx="3.319" cy="3.333" rx="3.319" ry="3.333" transform="translate(66.383)"/>
                        <ellipse cx="3.319" cy="3.333" rx="3.319" ry="3.333" transform="translate(66.383 100)"/>
                        <ellipse cx="3.319" cy="3.333" rx="3.319" ry="3.333" transform="translate(66.383 16.667)"/>
                        <ellipse cx="3.319" cy="3.333" rx="3.319" ry="3.333" transform="translate(66.383 116.667)"/>
                        <ellipse cx="3.319" cy="3.333" rx="3.319" ry="3.333" transform="translate(0 33.333)"/>
                        <ellipse cx="3.319" cy="3.333" rx="3.319" ry="3.333" transform="translate(0 133.333)"/>
                        <ellipse cx="3.319" cy="3.333" rx="3.319" ry="3.333" transform="translate(82.979 33.333)"/>
                        <ellipse cx="3.319" cy="3.333" rx="3.319" ry="3.333" transform="translate(82.979 133.333)"/>
                        <ellipse cx="3.319" cy="3.333" rx="3.319" ry="3.333" transform="translate(16.596 33.333)"/>
                        <ellipse cx="3.319" cy="3.333" rx="3.319" ry="3.333" transform="translate(16.596 133.333)"/>
                        <ellipse cx="3.319" cy="3.333" rx="3.319" ry="3.333" transform="translate(99.574 33.333)"/>
                        <ellipse cx="3.319" cy="3.333" rx="3.319" ry="3.333" transform="translate(99.574 133.333)"/>
                        <ellipse cx="3.319" cy="3.333" rx="3.319" ry="3.333" transform="translate(33.191 33.333)"/>
                        <ellipse cx="3.319" cy="3.333" rx="3.319" ry="3.333" transform="translate(33.191 133.333)"/>
                        <ellipse cx="3.319" cy="3.333" rx="3.319" ry="3.333" transform="translate(116.17 33.333)"/>
                        <ellipse cx="3.319" cy="3.333" rx="3.319" ry="3.333" transform="translate(116.17 133.333)"/>
                        <ellipse cx="3.319" cy="3.333" rx="3.319" ry="3.333" transform="translate(49.787 33.333)"/>
                        <ellipse cx="3.319" cy="3.333" rx="3.319" ry="3.333" transform="translate(49.787 133.333)"/>
                        <ellipse cx="3.319" cy="3.333" rx="3.319" ry="3.333" transform="translate(132.766 33.333)"/>
                        <ellipse cx="3.319" cy="3.333" rx="3.319" ry="3.333" transform="translate(132.766 133.333)"/>
                        <ellipse cx="3.319" cy="3.333" rx="3.319" ry="3.333" transform="translate(66.383 33.333)"/>
                        <ellipse cx="3.319" cy="3.333" rx="3.319" ry="3.333" transform="translate(66.383 133.333)"/>
                        <ellipse cx="3.319" cy="3.333" rx="3.319" ry="3.333" transform="translate(0 50)"/>
                        <ellipse cx="3.319" cy="3.333" rx="3.319" ry="3.333" transform="translate(0 150)"/>
                        <ellipse cx="3.319" cy="3.333" rx="3.319" ry="3.333" transform="translate(82.979 50)"/>
                        <ellipse cx="3.319" cy="3.333" rx="3.319" ry="3.333" transform="translate(82.979 150)"/>
                        <ellipse cx="3.319" cy="3.333" rx="3.319" ry="3.333" transform="translate(16.596 50)"/>
                        <ellipse cx="3.319" cy="3.333" rx="3.319" ry="3.333" transform="translate(16.596 150)"/>
                        <ellipse cx="3.319" cy="3.333" rx="3.319" ry="3.333" transform="translate(99.574 50)"/>
                        <ellipse cx="3.319" cy="3.333" rx="3.319" ry="3.333" transform="translate(99.574 150)"/>
                        <ellipse cx="3.319" cy="3.333" rx="3.319" ry="3.333" transform="translate(33.191 50)"/>
                        <ellipse cx="3.319" cy="3.333" rx="3.319" ry="3.333" transform="translate(33.191 150)"/>
                        <ellipse cx="3.319" cy="3.333" rx="3.319" ry="3.333" transform="translate(116.17 50)"/>
                        <ellipse cx="3.319" cy="3.333" rx="3.319" ry="3.333" transform="translate(116.17 150)"/>
                        <ellipse cx="3.319" cy="3.333" rx="3.319" ry="3.333" transform="translate(49.787 50)"/>
                        <ellipse cx="3.319" cy="3.333" rx="3.319" ry="3.333" transform="translate(49.787 150)"/>
                        <ellipse cx="3.319" cy="3.333" rx="3.319" ry="3.333" transform="translate(132.766 50)"/>
                        <ellipse cx="3.319" cy="3.333" rx="3.319" ry="3.333" transform="translate(132.766 150)"/>
                        <ellipse cx="3.319" cy="3.333" rx="3.319" ry="3.333" transform="translate(66.383 50)"/>
                        <ellipse cx="3.319" cy="3.333" rx="3.319" ry="3.333" transform="translate(66.383 150)"/>
                        <ellipse cx="3.319" cy="3.333" rx="3.319" ry="3.333" transform="translate(0 66.667)"/>
                        <ellipse cx="3.319" cy="3.333" rx="3.319" ry="3.333" transform="translate(0 166.667)"/>
                        <ellipse cx="3.319" cy="3.333" rx="3.319" ry="3.333" transform="translate(82.979 66.667)"/>
                        <ellipse cx="3.319" cy="3.333" rx="3.319" ry="3.333" transform="translate(82.979 166.667)"/>
                        <ellipse cx="3.319" cy="3.333" rx="3.319" ry="3.333" transform="translate(16.596 66.667)"/>
                        <ellipse cx="3.319" cy="3.333" rx="3.319" ry="3.333" transform="translate(16.596 166.667)"/>
                        <ellipse cx="3.319" cy="3.333" rx="3.319" ry="3.333" transform="translate(99.574 66.667)"/>
                        <ellipse cx="3.319" cy="3.333" rx="3.319" ry="3.333" transform="translate(99.574 166.667)"/>
                        <ellipse cx="3.319" cy="3.333" rx="3.319" ry="3.333" transform="translate(33.191 66.667)"/>
                        <ellipse cx="3.319" cy="3.333" rx="3.319" ry="3.333" transform="translate(33.191 166.667)"/>
                        <ellipse cx="3.319" cy="3.333" rx="3.319" ry="3.333" transform="translate(116.17 66.667)"/>
                        <ellipse cx="3.319" cy="3.333" rx="3.319" ry="3.333" transform="translate(116.17 166.667)"/>
                        <ellipse cx="3.319" cy="3.333" rx="3.319" ry="3.333" transform="translate(49.787 66.667)"/>
                        <ellipse cx="3.319" cy="3.333" rx="3.319" ry="3.333" transform="translate(49.787 166.667)"/>
                        <ellipse cx="3.319" cy="3.333" rx="3.319" ry="3.333" transform="translate(132.766 66.667)"/>
                        <ellipse cx="3.319" cy="3.333" rx="3.319" ry="3.333" transform="translate(132.766 166.667)"/>
                        <ellipse cx="3.319" cy="3.333" rx="3.319" ry="3.333" transform="translate(66.383 66.667)"/>
                        <ellipse cx="3.319" cy="3.333" rx="3.319" ry="3.333" transform="translate(66.383 166.667)"/>
                        <ellipse cx="3.319" cy="3.333" rx="3.319" ry="3.333" transform="translate(0 83.333)"/>
                        <ellipse cx="3.319" cy="3.333" rx="3.319" ry="3.333" transform="translate(82.979 83.333)"/>
                        <ellipse cx="3.319" cy="3.333" rx="3.319" ry="3.333" transform="translate(16.596 83.333)"/>
                        <ellipse cx="3.319" cy="3.333" rx="3.319" ry="3.333" transform="translate(99.574 83.333)"/>
                        <ellipse cx="3.319" cy="3.333" rx="3.319" ry="3.333" transform="translate(33.191 83.333)"/>
                        <ellipse cx="3.319" cy="3.333" rx="3.319" ry="3.333" transform="translate(116.17 83.333)"/>
                        <ellipse cx="3.319" cy="3.333" rx="3.319" ry="3.333" transform="translate(49.787 83.333)"/>
                        <ellipse cx="3.319" cy="3.333" rx="3.319" ry="3.333" transform="translate(132.766 83.333)"/>
                        <ellipse cx="3.319" cy="3.333" rx="3.319" ry="3.333" transform="translate(66.383 83.333)"/>
                    </g>
                    <ellipse cx="3.319" cy="3.333" rx="3.319" ry="3.333" transform="translate(149.362)"/>
                    <ellipse cx="3.319" cy="3.333" rx="3.319" ry="3.333" transform="translate(149.362 100)"/>
                    <ellipse cx="3.319" cy="3.333" rx="3.319" ry="3.333" transform="translate(149.362 16.667)"/>
                    <ellipse cx="3.319" cy="3.333" rx="3.319" ry="3.333" transform="translate(149.362 116.667)"/>
                    <ellipse cx="3.319" cy="3.333" rx="3.319" ry="3.333" transform="translate(149.362 33.333)"/>
                    <ellipse cx="3.319" cy="3.333" rx="3.319" ry="3.333" transform="translate(149.362 133.333)"/>
                    <ellipse cx="3.319" cy="3.333" rx="3.319" ry="3.333" transform="translate(149.362 50)"/>
                    <ellipse cx="3.319" cy="3.333" rx="3.319" ry="3.333" transform="translate(149.362 150)"/>
                    <ellipse cx="3.319" cy="3.333" rx="3.319" ry="3.333" transform="translate(149.362 66.667)"/>
                    <ellipse cx="3.319" cy="3.333" rx="3.319" ry="3.333" transform="translate(149.362 166.667)"/>
                    <ellipse cx="3.319" cy="3.333" rx="3.319" ry="3.333" transform="translate(149.362 83.333)"/>
                    <ellipse cx="3.319" cy="3.333" rx="3.319" ry="3.333" transform="translate(0 183.333)"/>
                    <ellipse cx="3.319" cy="3.333" rx="3.319" ry="3.333" transform="translate(82.979 183.333)"/>
                    <ellipse cx="3.319" cy="3.333" rx="3.319" ry="3.333" transform="translate(16.596 183.333)"/>
                    <ellipse cx="3.319" cy="3.333" rx="3.319" ry="3.333" transform="translate(99.574 183.333)"/>
                    <ellipse cx="3.319" cy="3.333" rx="3.319" ry="3.333" transform="translate(33.191 183.333)"/>
                    <ellipse cx="3.319" cy="3.333" rx="3.319" ry="3.333" transform="translate(116.17 183.333)"/>
                    <ellipse cx="3.319" cy="3.333" rx="3.319" ry="3.333" transform="translate(49.787 183.333)"/>
                    <ellipse cx="3.319" cy="3.333" rx="3.319" ry="3.333" transform="translate(132.766 183.333)"/>
                    <ellipse cx="3.319" cy="3.333" rx="3.319" ry="3.333" transform="translate(66.383 183.333)"/>
                    <ellipse cx="3.319" cy="3.333" rx="3.319" ry="3.333" transform="translate(149.362 183.333)"/>
                </g>
            </g>
        </g>
    </g>
</svg>
